<?xml  version="1.0" encoding="UTF-8"?>
<!DOCTYPE svg PUBLIC "-//W3C//DTD SVG 1.0//EN" "http://www.w3.org/TR/2001/REC-SVG-20010904/DTD/svg10.dtd" >
<svg xmlns="http://www.w3.org/2000/svg" >
<metadata>
<version>1.0</version>
<id><![CDATA[Modern NAP Display]]></id>
<vendor>Monotype Imaging Inc.</vendor>
<credits>
<name>Fonts.com WebFonts</name>
<URL>http://webfonts.fonts.com</URL>
<role>Home of the Web fonts</role>
</credits>
<license>
<URL>http://webfonts.fonts.com/Legal</URL>
</license>
<copyright><![CDATA[Copyright 2012 Monotype Imaging Inc. All rights reserved.]]></copyright>
<trademark></trademark>
<licensee>
<name></name>
</licensee>
</metadata>
<defs >
<font horiz-adv-x="541" id="17344bbb-26ea-491e-9f99-21a38c24308b">
<font-face font-family="" panose-1="2 7 5 3 0 0 0 2 0 3" ascent="723" descent="-277" units-per-em="1000" alphabetic="0">
</font-face>
<missing-glyph horiz-adv-x="607" d="M107 700H607V0H107V700ZM527 650H187L357 395L527 650ZM557 95V605L387 350L557 95ZM527 50L357 305L187 50H527ZM157 95L327 350L157 605V95Z"  />

<glyph unicode="&#xA;" />
<glyph unicode="&#xD;" />
<glyph unicode=" " horiz-adv-x="250" />
<glyph unicode="!" horiz-adv-x="252" d="M120 157V186Q120 243 114 303T101 416T88 512T82 577Q82 618 94 641T126 665Q146 665 158 642T170 577Q170 554 164 512T151 417T138 303T132 186V157H120ZM179 39Q179 17 164 2T126 -14Q104 -14 89 1T73 39Q73 61 88 76T126 92Q148 92 163 77T179 39Z"  />
<glyph unicode="&quot;" horiz-adv-x="335" d="M80 392L44 590Q42 597 42 604T42 619Q42 677 84 677Q127 677 127 619Q127 611 127 604T125 590L91 392H80ZM246 392L210 590Q209 597 209 604T208 619Q208 677 251 677Q294 677 294 619Q294 611 294 604T292 590L258 392H246Z"  />
<glyph unicode="#" horiz-adv-x="637" d="M226 463L268 667H296L253 463H442L485 667H513L470 463H593L587 436H464L417 207H540L534 179H411L369 -23H341L383 179H194L152 -23H124L166 179H44L50 207H172L220 436H97L103 463H226ZM200 207H389L437 436H248L200 207Z"  />
<glyph unicode="$" horiz-adv-x="511" d="M450 162Q450 121 438 91T407 39T363 5T312 -14V-102H299V-17Q279 -21 255 -21Q237 -21 221 -18V-102H209V-16Q181 -10 155 2T107 33T74 75T61 127Q61 158 76 178T115 198Q135 198 149 182T163 146Q163 126 154 117T134 103T114 92T105 77Q105 63 114 51T137 28T170 10T209 -2V295Q135 332 106 373T77 468Q77 502 87 531T115 582T157 620T209 645V715H221V647Q245 653 270 653Q278 653 285 653T299 651V715H312V649Q343 643 366 630T406 600T431 563T440 521Q440 493 427 476T391 459Q371 459 356 473T341 507Q341 525 348 535T363 551T378 563T385 576Q385 593 365 610T312 636V351Q352 330 379 309T421 265T443 217T450 162ZM251 277Q243 280 236 283T221 290V-5Q239 -8 255 -8Q266 -8 277 -7T299 -4V255Q288 260 277 266T251 277ZM255 377Q267 372 278 367T299 357V638Q285 641 270 641Q257 641 245 639T221 634V393Q229 388 237 385T255 377ZM401 117Q401 158 383 189T312 249V-1Q329 4 345 12T373 35T393 70T401 117ZM129 514Q129 477 145 451T209 399V630Q174 616 152 588T129 514Z"  />
<glyph unicode="%" horiz-adv-x="713" d="M181 682Q215 682 241 667T286 627T314 570T324 505Q324 472 315 440T287 384T242 344T181 328Q147 328 120 343T75 383T47 440T37 505Q37 538 46 570T74 626T120 666T181 682ZM247 556Q247 669 181 669Q115 669 115 556V454Q115 339 181 339Q247 339 247 454V556ZM586 682H627L128 -34H87L586 682ZM532 324Q566 324 593 309T638 268T666 211T676 146Q676 113 667 82T639 25T593 -15T532 -31Q498 -31 472 -16T427 25T399 81T389 146Q389 179 398 211T426 268T471 308T532 324ZM598 197Q598 311 532 311Q466 311 466 197V96Q466 -20 532 -20Q598 -20 598 96V197Z"  />
<glyph unicode="&amp;" horiz-adv-x="662" d="M357 55Q287 -21 198 -21Q161 -21 129 -9T72 25T34 77T20 142Q20 176 34 205T72 262T129 314T200 366Q180 412 168 450T155 517Q155 547 164 572T189 617T228 647T279 658Q301 658 321 651T358 631T383 600T393 558Q393 534 384 513T358 474T320 438T274 403L405 139Q436 191 451 238T466 321Q466 364 446 385T377 407H363V419H630V407H614Q590 407 570 395T532 362T500 313T473 253Q456 211 441 179T412 125Q440 69 466 43T531 16Q587 16 608 67T630 218H643Q643 165 637 121T614 46T569 -3T496 -21Q454 -21 420 -3T357 55ZM351 66Q331 100 310 140T269 220T233 295T205 354Q181 336 162 319T128 281T106 235T97 177Q97 143 106 113T134 61T179 26T240 13Q266 13 294 25T351 66ZM210 578Q210 545 226 506T268 415Q303 438 325 475T347 555Q347 607 329 626T279 645Q248 645 229 629T210 578Z"  />
<glyph unicode="&apos;" horiz-adv-x="169" d="M80 392L44 590Q42 597 42 604T42 619Q42 677 84 677Q127 677 127 619Q127 611 127 604T125 590L91 392H80Z"  />
<glyph unicode="(" horiz-adv-x="332" d="M258 -200Q163 -98 121 11T78 249Q78 376 120 486T258 698H271Q209 595 179 480T148 249Q148 134 178 19T271 -200H258Z"  />
<glyph unicode=")" horiz-adv-x="332" d="M73 698Q168 596 210 486T253 249Q253 121 211 12T73 -200H61Q123 -97 153 18T183 249Q183 364 153 479T61 698H73Z"  />
<glyph unicode="*" horiz-adv-x="488" d="M259 462Q274 453 293 448T331 439T368 431T396 420Q425 404 425 379Q425 365 415 356T390 346Q382 346 374 348T358 355Q347 361 336 374T311 402T283 431T254 454L249 451Q249 434 254 415T265 377T277 341T282 312Q282 292 272 277T244 262Q226 262 217 277T207 312Q207 324 212 341T223 376T234 414T239 451L234 454Q219 445 205 431T178 402T153 374T130 355Q122 351 114 349T99 346Q84 346 74 355T63 379Q63 391 71 401T92 420Q103 426 120 430T156 439T195 448T229 462V469Q214 478 195 483T157 492T120 500T92 510Q79 518 71 529T63 551Q63 565 73 574T99 584Q115 584 130 575Q141 569 153 556T178 529T205 500T234 477L239 479Q239 496 234 515T223 553T212 589T207 619Q207 639 216 653T244 668Q262 668 272 654T282 619Q282 606 277 589T266 554T254 516T249 479L254 477Q269 486 283 500T310 528T335 556T358 575Q374 584 390 584Q405 584 415 575T425 551Q425 528 396 510Q385 504 368 500T332 492T293 483T259 469V462H259Z"  />
<glyph unicode="+" horiz-adv-x="667" d="M71 341H311V583H354V341H596V298H354V59H311V298H71V341Z"  />
<glyph unicode="&#x2c;" horiz-adv-x="203" d="M47 -151Q94 -125 118 -89T143 -12Q143 6 132 6Q124 6 117 -1T90 -8Q71 -8 58 7T45 43Q45 64 58 78T93 92Q109 92 121 84T141 62T153 31T157 -4Q157 -54 132 -92T53 -162L47 -151Z"  />
<glyph unicode="-" horiz-adv-x="286" d="M37 270H249V241H37V270Z"  />
<glyph unicode="." horiz-adv-x="203" d="M154 39Q154 17 139 2T102 -14Q79 -14 64 1T49 39Q49 61 64 76T102 92Q123 92 138 77T154 39Z"  />
<glyph unicode="/" horiz-adv-x="333" d="M83 -246H57L263 683H289L83 -246Z"  />
<glyph unicode="0" horiz-adv-x="514" d="M257 -21Q210 -21 169 11T98 94T50 203T32 316Q32 370 49 429T97 538T169 620T257 653Q304 653 345 621T416 538T464 429T482 316Q482 262 465 203T417 94T345 12T257 -21ZM257 -8Q295 -8 317 11T352 66T368 152T372 263V370Q372 431 368 481T352 566T318 621T257 641Q219 641 197 622T162 567T146 481T142 370V263Q142 202 146 152T162 67T196 12T257 -8Z"  />
<glyph unicode="1" horiz-adv-x="373" d="M24 541Q78 560 131 588T229 653H241V54Q241 12 278 12H348V0H41V12H96Q126 12 136 21T147 56V583Q122 568 92 555T29 529L24 541Z"  />
<glyph unicode="2" horiz-adv-x="490" d="M12 0Q36 42 85 98T204 228Q235 261 258 290T298 348T322 410T330 484Q330 515 323 543T300 591T263 624T211 636Q182 636 155 624T105 590T69 541T55 482Q55 468 60 462T71 456Q75 456 79 461T89 473T103 484T124 490Q148 490 163 471T179 429Q179 403 162 386T118 369Q99 369 85 378T61 401T47 434T42 473Q42 513 57 546T99 603T161 640T237 653Q277 653 313 639T378 601T422 545T439 476Q439 449 431 427T406 384T369 344T320 303Q244 241 186 185T92 86H359Q392 86 401 101Q406 108 410 122T418 152T424 182T429 205H441L406 0H12Z"  />
<glyph unicode="3" horiz-adv-x="486" d="M419 487Q419 383 249 323Q337 310 389 273T442 166Q442 122 423 88T371 29T296 -8T206 -21Q170 -21 138 -13T83 11T46 50T32 104Q32 135 49 157T94 180Q117 180 134 164T152 120Q152 97 142 84T121 63T99 50T89 35Q89 25 100 17T127 4T161 -5T194 -8Q263 -8 298 30T334 144Q334 176 328 206T309 260T275 298T223 312Q207 312 186 305T155 298Q139 298 139 310Q139 318 150 320T184 324Q252 326 286 365T320 488Q320 569 288 604T204 640Q183 640 163 635T126 621T99 601T89 579Q89 570 101 567T129 560T156 544T169 505Q169 479 152 460T108 440Q77 440 60 463T43 518Q43 548 57 573T95 615T149 643T212 653Q251 653 288 641T354 607T401 555T419 487Z"  />
<glyph unicode="4" horiz-adv-x="501" d="M334 653H347V209H477V175H347V53Q347 30 354 21T383 12H467V0H137V12H225Q256 12 256 47V175H31L11 195L334 653ZM256 209V521L37 209H256Z"  />
<glyph unicode="5" horiz-adv-x="472" d="M81 317Q109 365 145 387T228 409Q273 409 311 393T378 350T423 285T440 205Q440 158 421 117T368 45T291 -3T199 -21Q164 -21 130 -11T69 18T24 63T7 120Q7 152 27 174T77 197Q102 197 119 180T137 138Q137 117 127 106T104 87T82 72T71 53Q71 38 83 27T115 8T157 -4T199 -8Q269 -8 299 42T330 195Q330 238 325 274T306 338T271 380T216 396Q171 396 134 364T81 286Q78 275 77 273T70 270Q64 270 64 276Q64 282 65 286L109 642Q175 622 223 612T304 601Q342 601 366 613T397 650H410Q393 587 357 559T255 530Q209 530 177 535T110 549L81 317Z"  />
<glyph unicode="6" horiz-adv-x="491" d="M144 300Q171 355 203 379T283 403Q322 403 354 386T410 341T446 276T459 200Q459 155 444 115T402 45T337 -3T253 -21Q194 -21 153 10T84 88T45 192T32 301Q32 366 50 429T101 542T180 622T284 653Q311 653 336 645T381 623T413 587T425 540Q425 510 407 492T363 474Q341 474 326 488T311 528Q311 550 320 562T341 580T361 589T371 597Q371 614 347 627T284 641Q242 641 215 624T172 576T150 501T144 401V300ZM145 186Q145 -8 253 -8Q286 -8 306 3T337 37T351 97T355 187Q355 233 352 270T340 334T315 375T272 390Q242 390 218 374T178 329T154 264T145 186Z"  />
<glyph unicode="7" horiz-adv-x="419" d="M259 333Q287 391 311 444T353 537H98Q78 537 67 533T49 519T41 492T35 447L32 415H20L36 653H47Q47 628 76 628H409Q377 563 348 494T296 359Q277 303 270 231T263 82Q263 63 260 44T250 10T230 -14T200 -24Q173 -24 160 -5T146 37Q146 72 175 145T259 333Z"  />
<glyph unicode="8" horiz-adv-x="505" d="M435 507Q435 481 428 460T405 421T368 387T318 354Q391 319 426 272T461 165Q461 123 444 89T397 31T328 -7T246 -21Q207 -21 171 -11T106 18T61 67T44 134Q44 162 53 184T79 225T122 260T179 294Q121 329 92 374T62 479Q62 514 76 545T115 601T175 639T252 653Q291 653 324 642T382 610T421 564T435 507ZM392 115Q392 144 381 166T345 208T284 247T196 288Q145 266 123 230T101 142Q101 72 139 32T251 -8Q317 -8 354 26T392 115ZM113 524Q113 495 127 472T168 429T228 393T304 360Q346 381 362 414T379 493Q379 565 343 603T246 641Q183 641 148 608T113 524Z"  />
<glyph unicode="9" horiz-adv-x="491" d="M208 -8Q250 -8 277 8T319 56T341 131T348 231V333Q319 277 287 253T208 229Q169 229 137 246T81 291T45 357T32 433Q32 477 47 517T89 587T154 635T238 653Q296 653 338 623T407 545T446 441T459 332Q459 267 441 204T390 90T311 10T207 -21Q180 -21 155 -13T110 9T78 45T66 93Q66 123 84 140T127 158Q149 158 165 144T181 104Q181 81 172 70T150 52T129 42T119 35Q119 18 143 5T208 -8ZM347 447Q347 641 237 641Q204 641 185 630T154 596T140 535T136 446Q136 400 139 363T151 298T176 257T219 242Q249 242 273 258T313 303T338 368T347 447Z"  />
<glyph unicode=":" horiz-adv-x="203" d="M154 380Q154 358 139 343T102 327Q79 327 64 342T49 380Q49 402 64 417T102 433Q123 433 138 418T154 380ZM154 39Q154 17 139 2T102 -14Q79 -14 64 1T49 39Q49 61 64 76T102 92Q123 92 138 77T154 39Z"  />
<glyph unicode=";" horiz-adv-x="203" d="M47 -151Q94 -125 118 -89T143 -12Q143 6 132 6Q124 6 117 -1T90 -8Q71 -8 58 7T45 43Q45 64 58 78T93 92Q109 92 121 84T141 62T153 31T157 -4Q157 -54 132 -92T53 -162L47 -151ZM154 380Q154 358 139 343T102 327Q79 327 64 342T49 380Q49 402 64 417T102 433Q123 433 138 418T154 380Z"  />
<glyph unicode="&lt;" horiz-adv-x="667" d="M594 80L71 302V340L594 561V515L128 321L594 126V80Z"  />
<glyph unicode="=" horiz-adv-x="667" d="M72 457H595V414H72V457ZM72 230H595V187H72V230Z"  />
<glyph unicode="&gt;" horiz-adv-x="667" d="M72 561L595 339V300L72 80V126L538 320L72 514V561Z"  />
<glyph unicode="?" horiz-adv-x="344" d="M37 472Q37 519 48 554T79 612T123 646T175 658Q203 658 227 648T269 618T297 570T308 508Q308 466 292 430T238 363Q223 350 205 336T171 307T145 273T134 233Q134 213 145 199T178 184Q226 184 236 258H249Q235 171 177 171Q159 171 145 180T122 203T107 237T102 276Q102 312 114 337T144 381T183 417T222 452T252 493T264 549Q264 573 256 591T236 621T207 639T173 645Q149 645 127 635T87 602T59 548T49 472H37ZM220 39Q220 17 205 2T167 -14Q145 -14 130 1T115 39Q115 61 130 76T167 92Q189 92 204 77T220 39Z"  />
<glyph unicode="@" horiz-adv-x="917" d="M887 84Q862 19 822 -35T728 -127T611 -187T474 -209Q381 -209 303 -178T168 -91T79 44T47 217Q47 318 82 404T180 553T328 651T512 687Q592 687 657 662T767 591T838 480T863 335Q863 276 844 219T790 116T709 44T606 16Q565 16 541 39T517 104Q517 114 518 127T522 156Q499 114 478 88T438 46T400 24T365 18Q338 18 315 30T275 65T249 116T239 180Q239 245 265 296T331 384T413 439T492 459Q527 459 548 431T575 348L610 447H689L590 97Q588 89 587 81T586 67Q586 34 624 34Q668 34 709 59T781 127T832 224T851 335Q851 411 827 472T760 576T654 642T515 665Q421 665 343 628T207 528T119 381T87 204Q87 117 115 44T195 -82T318 -165T474 -195Q544 -195 606 -175T720 -118T810 -30T874 84H887ZM494 447Q459 447 431 414Q406 385 385 339T349 245T325 156T316 98Q316 66 329 48T365 30Q393 30 418 46T465 90T504 150T534 218T554 283T561 337Q561 389 542 418T494 447Z"  />
<glyph unicode="A" horiz-adv-x="694" d="M442 228H190Q173 180 164 145T154 95Q154 60 183 36T263 12H289V0H2V12H9Q38 12 59 23T97 54T127 100T151 157L347 685H385L583 104Q594 73 603 55T620 29Q628 22 641 17T673 12H691V0H378V12H462Q481 12 490 21T500 44Q500 59 495 72L442 228ZM198 247H435L321 581L198 247Z"  />
<glyph unicode="B" horiz-adv-x="642" d="M12 674H313Q367 674 415 665T500 636T558 587T579 517Q579 480 565 453T524 407T460 375T376 355Q422 353 464 340T540 305T592 251T612 179Q612 135 587 102T522 46T429 12T322 0H12V12H65Q115 12 115 69V602Q115 662 65 662H12V674ZM215 361H305Q380 361 425 400T471 510Q471 578 434 620T333 662H241Q215 662 215 628V361ZM215 349V47Q215 12 243 12H330Q367 12 398 24T452 59T487 113T500 180Q500 219 485 250T444 303T383 337T306 349H215Z"  />
<glyph unicode="C" horiz-adv-x="623" d="M326 687Q433 687 504 571Q530 594 546 624T567 687H578V383H567Q552 439 531 491T481 585T413 650T327 675Q243 675 196 584Q187 566 181 538T171 474T166 396T164 308Q164 270 166 233T174 163T188 104T208 63Q231 31 264 14T341 -4Q391 -4 432 15T504 68T553 147T574 245H586Q584 190 565 142T513 59T437 4T342 -17Q283 -17 230 10T135 83T69 193T44 329Q44 396 66 460T126 575T216 656T326 687Z"  />
<glyph unicode="D" horiz-adv-x="718" d="M12 674H342Q412 674 473 646T580 571T652 463T679 333Q679 264 651 204T574 98T464 27T336 0H12V12H65Q115 12 115 69V604Q115 662 65 662H12V674ZM242 662Q215 662 215 631V52Q215 12 244 12H339Q401 12 443 40T512 114T550 222T562 349Q562 416 552 473T515 573T443 638T329 662H242Z"  />
<glyph unicode="E" horiz-adv-x="644" d="M12 674H589V430H578Q553 537 499 599T362 662H238Q215 662 215 629V347H250Q395 347 401 524H413V154H401Q401 199 390 232T360 288T313 322T255 334H215V46Q215 12 246 12H373Q417 12 453 29T516 78T563 151T593 244H604L599 0H12V12H64Q115 12 115 69V604Q115 662 66 662H12V674Z"  />
<glyph unicode="F" horiz-adv-x="604" d="M12 674H580V425H568Q542 543 488 602T352 662H238Q215 662 215 629V349H251Q325 349 363 393T404 526H416V152H404Q404 192 397 226T373 285T328 323T256 337H215V100Q215 58 224 35T261 12H336V0H12V12H64Q115 12 115 69V604Q115 662 66 662H12V674Z"  />
<glyph unicode="G" horiz-adv-x="712" d="M342 683Q463 683 535 572Q570 610 583 683H594L609 370H598Q585 434 563 489T510 584T438 647T346 670Q289 670 253 643T196 569T167 456T159 313Q159 244 166 186T194 85T247 20T334 -4Q370 -4 402 7T458 40T495 96T509 174V229Q509 262 475 262H376V274H708V262H642Q605 262 605 224V-17H595Q586 33 571 66T541 117Q499 52 453 18T337 -17Q269 -17 214 14T120 94T60 202T39 318Q39 383 62 448T127 565T224 650T342 683Z"  />
<glyph unicode="H" horiz-adv-x="730" d="M12 674H315V662H265Q215 662 215 604V358H516V604Q516 662 466 662H413V674H718V662H666Q616 662 616 604V70Q616 12 666 12H718V0H413V12H466Q516 12 516 70V340H215V70Q215 12 265 12H315V0H12V12H65Q115 12 115 70V604Q115 662 65 662H12V674Z"  />
<glyph unicode="I" horiz-adv-x="330" d="M12 12H65Q115 12 115 69V604Q115 662 65 662H12V674H317V662H265Q215 662 215 604V69Q215 12 265 12H317V0H12V12Z"  />
<glyph unicode="J" horiz-adv-x="502" d="M498 674V662H445Q395 662 395 604V213Q395 162 380 119T338 45T273 -3T187 -21Q150 -21 117 -9T59 25T20 77T5 144Q5 179 22 205T72 232Q98 232 115 213T133 167Q133 140 121 126T95 104T68 89T56 71Q56 55 67 41T96 16T138 -1T185 -8Q246 -8 270 27T295 134V604Q295 662 245 662H192V674H498Z"  />
<glyph unicode="K" horiz-adv-x="763" d="M713 674V662H693Q632 662 584 635T486 557L370 440L611 98Q638 60 671 36T742 12H760V0H422V12H498Q524 12 524 35Q524 49 513 64L298 368L215 284V69Q215 12 265 12H317V0H12V12H65Q115 12 115 69V604Q115 662 65 662H12V674H317V662H265Q215 662 215 604V302L444 532Q489 577 489 611Q489 635 473 648T429 662H408V674H713Z"  />
<glyph unicode="L" horiz-adv-x="599" d="M12 12H60Q86 12 100 26T115 69V604Q115 633 101 647T60 662H14V674H310V662H265Q215 662 215 604V64Q215 12 257 12H328Q374 12 414 32T485 87T539 167T573 264H584L576 0H12V12Z"  />
<glyph unicode="M" horiz-adv-x="866" d="M243 674L445 149L646 674H854V662H805Q780 662 766 647T751 602V70Q751 41 767 27T810 12H854V0H534V12H601Q651 12 651 70V654L400 -4H390L137 648V169Q137 12 235 12H266V0H12V12H30Q81 12 103 51T125 169V589Q125 662 44 662H12V674H243Z"  />
<glyph unicode="N" horiz-adv-x="701" d="M12 674H194L568 130V455Q568 503 563 541T545 606T507 647T444 662H426V674H696V662H676Q640 662 621 643T592 594T582 527T580 455V-23H552L137 581V215Q137 114 162 63T257 12H290V0H12V12H32Q55 12 72 21T101 54T119 117T125 215V513Q125 554 122 582T109 628T82 654T35 662H12V674Z"  />
<glyph unicode="O" horiz-adv-x="698" d="M39 330Q39 397 62 460T128 573T227 653T350 683Q417 683 473 653T571 573T635 460T659 330Q659 263 636 201T571 90T473 12T350 -17Q278 -17 221 14T123 96T61 208T39 330ZM522 545Q505 606 461 638T350 670Q284 670 237 638T174 543Q167 512 164 456T160 331Q160 262 163 207T175 121Q192 57 236 27T349 -4Q420 -4 465 29T524 128Q531 161 534 217T538 341Q538 407 534 461T522 545Z"  />
<glyph unicode="P" horiz-adv-x="612" d="M215 314V151Q215 116 216 90T222 47T237 21T268 12H336V0H12V12H65Q115 12 115 69V604Q115 662 65 662H12V674H332Q387 674 434 663T517 629T572 572T592 492Q592 451 570 418T511 362T429 327T337 314H215ZM215 326H314Q402 326 440 371T479 492Q479 575 439 618T319 662H254Q232 662 224 654T215 624V326Z"  />
<glyph unicode="Q" horiz-adv-x="698" d="M39 330Q39 397 62 460T128 573T227 653T350 683Q417 683 473 653T571 573T635 460T659 330Q659 281 646 234T610 145T553 71T479 16Q480 13 480 10T481 3Q490 -58 500 -97T524 -160T554 -192T592 -201Q633 -201 658 -161T684 -49H696Q695 -91 688 -126T664 -186T622 -226T562 -240Q508 -240 470 -213T416 -120Q410 -96 407 -67T401 -12Q389 -14 376 -15T350 -17Q278 -17 221 14T123 96T61 208T39 330ZM522 545Q505 606 461 638T350 670Q284 670 237 638T174 543Q167 512 164 456T160 331Q160 262 163 207T175 121Q187 73 216 44T289 2Q276 19 270 38T263 76Q263 117 288 140T350 164Q377 164 397 155T433 128T458 88T475 37Q514 71 524 128Q531 161 534 217T538 341Q538 407 534 461T522 545ZM277 76Q277 57 284 37T305 -1Q326 -4 349 -4Q363 -4 376 -3T401 0Q400 15 400 26T399 44Q399 98 387 122T341 146Q314 146 296 127T277 76Z"  />
<glyph unicode="R" horiz-adv-x="693" d="M12 12H65Q115 12 115 69V604Q115 662 65 662H12V674H328Q381 674 428 663T510 631T566 578T587 506Q587 470 568 442T517 392T444 358T359 338Q409 327 445 308T507 259T545 184T564 79Q567 24 604 24Q625 24 640 61T656 164V218H668V179Q668 91 648 43T572 -6Q510 -6 482 35T449 145Q446 197 435 233T400 291T341 324T254 334H215V69Q215 12 265 12H317V0H12V12ZM265 662Q215 662 215 604V347H295Q379 347 425 387T472 507Q472 585 427 623T304 662H265Z"  />
<glyph unicode="S" horiz-adv-x="569" d="M325 -17Q264 -17 215 9T125 95Q105 69 93 44T71 -14H60V295H71Q98 139 161 68T325 -4Q391 -4 433 27T475 116Q475 151 460 177T417 224T352 262T272 295Q230 311 191 329T123 371T77 427T59 504Q59 541 73 574T113 631T172 669T245 683Q296 683 340 659T420 588Q459 630 474 677H485V416H474Q467 469 448 515T398 595T329 650T245 670Q218 670 193 661T149 637T117 600T105 555Q105 527 119 506T158 467T219 434T297 403Q347 385 388 365T458 319T504 256T520 169Q520 126 506 92T465 33T403 -4T325 -17Z"  />
<glyph unicode="T" horiz-adv-x="650" d="M614 421Q606 474 593 518T558 594T504 644T425 662Q398 662 387 656T376 630V69Q376 12 427 12H496V0H142V12H227Q276 12 276 69V630Q276 646 266 654T228 662Q180 662 147 643T92 590T56 514T36 421H24V674H625V421H614Z"  />
<glyph unicode="U" horiz-adv-x="728" d="M735 662Q613 657 613 507V253Q613 193 596 143T547 56T469 -1T363 -22Q263 -22 188 38Q115 98 115 236V604Q115 662 65 662H12V674H317V662H263Q215 662 215 600V215Q215 2 387 2Q438 2 477 21T544 74T586 154T601 253V483Q601 582 563 622Q525 662 472 662H447V674H735V662Z"  />
<glyph unicode="V" horiz-adv-x="695" d="M207 629Q207 624 207 620T209 611L377 113L513 467Q529 509 535 532T542 579Q542 619 515 640T450 662H412V674H693V662H685Q647 662 610 624T549 526L339 -21H319L105 611Q97 635 82 648T42 662H2V674H327V662H248Q227 662 217 653T207 629Z"  />
<glyph unicode="W" horiz-adv-x="1009" d="M199 628Q199 624 200 620T202 611L346 121L488 533L470 594Q459 631 446 646T408 662H352V674H671V662H606Q562 662 562 628Q562 624 562 620T564 611L708 122L828 478Q837 506 841 528T845 574Q845 612 822 637T752 662H736V674H1006V662H993Q968 662 946 647T905 608T871 552T844 487L672 -21H648L494 513L310 -21H286L107 603Q99 631 82 646T41 662H2V674H291V662H256Q199 662 199 628Z"  />
<glyph unicode="X" horiz-adv-x="734" d="M288 662Q272 662 264 656T256 638Q256 627 265 614L405 398L503 531Q517 551 523 570T530 606Q530 630 512 646T461 662H420V674H715V662H696Q658 662 613 631T523 538L412 387L606 88Q619 67 629 53T651 29T676 16T710 12H731V0H409V12H484Q502 12 511 18T520 35Q520 43 513 53L348 308L231 150Q213 126 205 105T196 68Q196 44 215 28T270 12H335V0H2V12H16Q49 14 75 24T125 52T171 96T219 156L340 318L144 621Q130 643 117 652T80 662H22V674H356V662H288Z"  />
<glyph unicode="Y" horiz-adv-x="723" d="M210 638Q210 625 219 610L402 273L534 522Q544 541 548 560T552 595Q552 625 530 643T470 662H418V674H721V662H708Q684 662 664 655T625 631T587 586T545 517L406 254V69Q406 12 457 12H525V0H171V12H256Q306 12 306 69V241L96 625Q85 645 71 653T34 662H2V674H327V662H244Q227 662 219 656T210 638Z"  />
<glyph unicode="Z" horiz-adv-x="648" d="M167 12H354Q417 12 483 69Q515 98 540 144T580 257H591L585 0H37L483 662H304Q224 662 164 602Q104 543 83 435H71L76 674H611L167 12Z"  />
<glyph unicode="[" horiz-adv-x="338" d="M88 674H304V662H167V-168H303V-181H88V674Z"  />
<glyph unicode="\" horiz-adv-x="333" d="M44 683H71L277 -246H250L44 683Z"  />
<glyph unicode="]" horiz-adv-x="337" d="M34 674H250V-181H34V-168H170V662H34V674Z"  />
<glyph unicode="^" horiz-adv-x="469" d="M234 609L64 324H18L227 674H242L451 324H405L234 609Z"  />
<glyph unicode="_" horiz-adv-x="500" d="M509 -216H-8V-175H509V-216Z"  />
<glyph unicode="`" horiz-adv-x="316" d="M114 598Q93 615 84 626T74 652Q74 667 83 676T106 685Q127 685 141 670T179 615L242 505H230L114 598Z"  />
<glyph unicode="a" horiz-adv-x="506" d="M408 -6Q372 -6 346 16T312 96Q287 43 255 19T172 -6Q108 -6 70 24T32 101Q32 134 49 155T92 189T152 211T217 226Q273 238 305 254V330Q305 372 281 395T213 418Q200 418 184 415T155 405T132 389T123 370Q123 363 129 358T144 347T159 330T166 304Q166 284 153 272T120 259Q97 259 83 275T69 312Q69 339 83 361T119 399T171 424T230 433Q395 433 395 297V99Q395 19 432 19Q463 19 476 58T489 160H501Q501 71 480 33T408 -6ZM305 240Q281 229 250 220Q222 212 200 204T162 182T138 146T129 89Q129 57 145 35T198 12Q219 12 238 23T272 54T296 97T305 146V240Z"  />
<glyph unicode="b" horiz-adv-x="545" d="M164 324Q188 383 227 408T304 433Q351 433 390 415T456 365T499 295T514 212Q514 165 498 125T454 56T387 11T302 -6Q258 -6 219 20T152 106Q130 90 112 59T84 -10H73V612Q73 662 21 662H-23V674H10Q26 674 45 674T86 676T127 679T164 684V324ZM164 212Q164 166 173 128T200 63T243 21T300 6Q355 6 382 58T410 208Q410 318 383 369T302 420Q267 420 241 403T198 358T173 292T164 212Z"  />
<glyph unicode="c" horiz-adv-x="442" d="M406 160Q404 84 361 39T248 -6Q204 -6 165 10T96 56T49 124T32 208Q32 253 49 293T97 365T168 414T257 433Q288 433 315 423T361 394T392 353T403 305Q403 279 391 262T354 245Q331 245 319 260T307 293Q307 327 337 342Q346 347 351 350T357 362Q357 372 350 382T329 401T298 414T257 420Q194 420 165 370T136 208Q136 110 166 59T256 7Q285 7 310 18T353 50T382 98T394 160H406Z"  />
<glyph unicode="d" horiz-adv-x="554" d="M510 0Q478 0 445 -2T379 -10V106Q359 51 323 22T239 -7Q192 -7 154 9T89 55T47 124T32 208Q32 253 47 293T90 365T156 414T241 433Q283 433 317 408T379 321V612Q379 662 326 662H278V674H316Q332 674 351 674T392 676T433 679T470 684V57Q470 34 480 23T517 12H548V0H510ZM133 208Q133 101 160 54T241 6Q276 6 302 23T345 68T370 133T379 208Q379 253 370 291T343 358T300 403T243 420Q188 420 161 370T133 208Z"  />
<glyph unicode="e" horiz-adv-x="491" d="M460 160Q452 121 434 91T388 39T327 6T255 -6Q207 -6 166 10T96 56T49 124T32 208Q32 253 48 293T94 365T163 414T250 433Q293 433 329 417T392 373T435 308T457 228H136V202Q136 105 170 56T265 7Q298 7 328 18T382 49T423 97T448 160H460ZM321 240Q338 240 344 248T350 283Q350 311 343 336T323 380T290 409T248 420Q198 420 167 373T136 240H321Z"  />
<glyph unicode="f" horiz-adv-x="328" d="M73 12Q96 12 105 23T114 61V398H17V419H114V468Q114 574 163 629T303 685Q326 685 348 681T387 667T415 643T426 610Q426 585 411 572T377 558Q353 558 340 573T327 605Q327 617 331 625T340 639T349 648T353 655Q353 662 343 667T307 672Q263 672 234 644T205 545V419H296V398H205V61Q205 34 213 23T245 12H277V0H38V12H73Z"  />
<glyph unicode="g" horiz-adv-x="510" d="M7 -130Q7 -95 38 -78T140 -51Q85 -42 58 -20T30 46Q30 70 40 86T66 111T104 125T147 130H163Q100 145 68 184T36 271Q36 308 51 338T92 389T151 421T220 433Q272 433 313 408T383 332Q383 337 383 344T382 361Q382 391 398 411T448 432Q476 432 495 416T515 372Q515 352 504 343T478 333Q462 333 452 342T441 368Q441 381 447 385T454 401Q454 417 435 417Q418 417 406 402T394 361Q394 349 396 339T400 318T405 295T407 268Q407 232 391 204T346 156T281 126T204 116Q191 116 177 117T147 118Q112 118 88 107T64 73Q64 37 134 37Q153 37 169 38T202 40T237 42T276 43Q357 43 404 10T451 -92Q451 -131 433 -159T385 -205T316 -231T233 -240Q194 -240 154 -234T81 -215T28 -181T7 -130ZM233 -228Q277 -228 313 -220T375 -197T415 -162T429 -117Q429 -79 396 -65T307 -51Q256 -51 217 -53T151 -61Q111 -69 92 -87T73 -131Q73 -157 86 -175T121 -205T172 -222T233 -228ZM220 420Q125 420 125 267Q125 204 149 167T218 130Q318 130 318 278Q318 420 220 420Z"  />
<glyph unicode="h" horiz-adv-x="560" d="M179 297Q223 433 331 433Q369 433 397 421T444 386T472 332T482 263V61Q482 33 491 23T523 12H555V0H316V12H351Q374 12 383 23T392 61V287Q392 347 373 382T316 417Q285 417 260 399T216 351T189 283T179 204V61Q179 34 187 23T219 12H251V0H13V12H48Q71 12 79 23T88 61V617Q88 640 78 651T41 662H10V674H48Q80 674 113 676T179 684V297Z"  />
<glyph unicode="i" horiz-adv-x="264" d="M179 61Q179 34 187 23T219 12H251V0H13V12H48Q71 12 79 23T88 61V364Q88 387 76 397T41 407H10V419H48Q79 419 111 421T179 430V61ZM76 573Q76 596 92 612T132 629Q155 629 171 613T188 573Q188 550 172 534T132 517Q109 517 93 533T76 573Z"  />
<glyph unicode="j" horiz-adv-x="251" d="M47 419Q78 419 110 421T179 430V-78Q179 -108 171 -137T145 -189T102 -226T41 -240Q23 -240 5 -235T-27 -219T-50 -192T-59 -156Q-59 -134 -47 -121T-11 -107Q9 -107 20 -118T31 -147Q31 -163 26 -172T14 -188T3 -198T-3 -207Q-3 -216 10 -222T41 -228Q68 -228 78 -211T88 -146V364Q88 387 75 397T41 407H9V419H47ZM76 573Q76 596 92 612T132 629Q155 629 171 613T188 573Q188 550 172 534T132 517Q109 517 93 533T76 573Z"  />
<glyph unicode="k" horiz-adv-x="549" d="M179 158L335 315Q361 340 361 366Q361 383 343 395T285 407H260V419H527V407H513Q444 407 368 331L313 276L468 59Q483 37 501 25T539 12H555V0H305V12H347Q372 12 372 30Q372 35 369 40T363 51L249 211L179 142V61Q179 34 187 23T219 12H251V0H13V12H48Q71 12 79 23T88 61V618Q88 641 76 651T41 662H10V674H48Q79 674 111 676T179 684V158Z"  />
<glyph unicode="l" horiz-adv-x="264" d="M179 61Q179 34 187 23T219 12H251V0H13V12H48Q71 12 79 23T88 61V618Q88 641 76 651T41 662H10V674H48Q79 674 111 676T179 684V61Z"  />
<glyph unicode="m" horiz-adv-x="834" d="M328 433Q381 433 416 404T466 307Q492 374 530 403T613 433Q649 433 676 421T720 388T747 339T756 277V61Q756 34 765 23T797 12H829V0H590V12H625Q648 12 657 23T666 61V290Q666 357 651 387T601 417Q578 417 555 404T512 365T481 300T468 206V61Q468 34 476 23T508 12H541V0H301V12H336Q359 12 368 23T377 61V296Q377 417 313 417Q295 417 272 406T228 365T193 287T179 164V61Q179 34 187 23T219 12H251V0H13V12H48Q71 12 79 23T88 61V364Q88 387 76 397T41 407H10V419H48Q79 419 111 421T179 430V287Q222 433 328 433Z"  />
<glyph unicode="n" horiz-adv-x="560" d="M179 297Q223 433 331 433Q369 433 397 421T444 386T472 332T482 263V61Q482 33 491 23T523 12H555V0H316V12H351Q374 12 383 23T392 61V287Q392 347 373 382T316 417Q285 417 260 399T216 351T189 283T179 204V61Q179 34 187 23T219 12H251V0H13V12H48Q71 12 79 23T88 61V363Q88 386 78 396T41 407H10V419H48Q80 419 113 422T179 430V297Z"  />
<glyph unicode="o" horiz-adv-x="522" d="M261 -6Q212 -6 170 10T98 56T50 124T32 208Q32 253 50 293T99 365T171 414T261 433Q309 433 351 415T424 367T473 295T491 208Q491 163 473 124T424 56T351 11T261 -6ZM261 420Q195 420 166 370T136 208Q136 101 166 54T261 6Q300 6 324 19T363 59T382 122T387 208Q387 318 356 369T261 420Z"  />
<glyph unicode="p" horiz-adv-x="556" d="M312 -6Q270 -6 236 20T174 109V-173Q174 -199 182 -210T214 -222H246V-234H8V-222H43Q66 -222 74 -211T83 -173V358Q83 384 70 395T31 407H5V419H21Q36 419 56 419T96 421T137 425T174 430V317Q194 369 229 401T314 433Q360 433 399 415T465 367T508 295T524 208Q524 163 508 124T464 56T397 11T312 -6ZM174 212Q174 172 183 135T210 70T253 24T310 6Q365 6 392 58T420 208Q420 318 393 369T312 420Q277 420 251 403T208 356T183 290T174 212Z"  />
<glyph unicode="q" horiz-adv-x="542" d="M242 433Q287 433 325 405T390 320Q412 335 430 365T458 436H470V-173Q470 -199 478 -210T509 -222H542V-234H303V-222H338Q361 -222 370 -211T379 -173V103Q356 44 318 19T240 -6Q193 -6 155 12T89 61T47 132T32 214Q32 261 47 301T91 370T157 416T242 433ZM133 218Q133 108 159 57T241 6Q275 6 301 23T344 70T370 136T379 214Q379 260 370 298T343 363T301 405T244 420Q187 420 160 368T133 218Z"  />
<glyph unicode="r" horiz-adv-x="412" d="M179 300Q202 370 236 401T310 433Q328 433 344 426T373 408T393 381T401 348Q401 321 387 306T350 290Q327 290 311 304T295 339Q295 354 300 362T312 377T324 389T330 402Q330 419 306 419Q280 419 257 402T216 355T189 282T179 191V61Q179 34 187 23T219 12H251V0H13V12H48Q71 12 79 23T88 61V364Q88 387 76 397T41 407H10V419H48Q79 419 111 421T179 430V300Z"  />
<glyph unicode="s" horiz-adv-x="395" d="M229 -6Q195 -6 160 6T95 53Q81 41 71 25T55 -6H44V179H55Q73 94 115 50T229 6Q268 6 294 23T321 79Q321 97 312 109T285 132T244 150T192 167Q158 177 131 189T84 218T55 259T45 314Q45 339 55 361T82 399T123 424T175 433Q210 433 240 416T291 375Q307 387 315 400T327 428H338V260H327Q322 294 308 323T274 374T229 408T175 420Q139 420 111 402T83 347Q83 315 115 298T203 264Q239 252 268 240T319 210T351 169T363 115Q363 58 325 26T229 -6Z"  />
<glyph unicode="t" horiz-adv-x="374" d="M184 615V419H323V398H184V89Q184 57 198 35T245 13Q294 13 319 66T344 226H356Q356 108 326 51T219 -6Q159 -6 126 24T93 111V398H5V409Q73 426 117 478T172 615H184Z"  />
<glyph unicode="u" horiz-adv-x="544" d="M545 12V0H507Q475 0 442 -2T376 -10V130Q354 60 318 27T220 -6Q181 -6 154 6T110 41T86 95T78 164V363Q78 386 67 396T30 407H-1V419H37Q69 419 102 422T168 430V139Q168 79 183 44T237 9Q273 9 299 30T343 83T368 156T376 234V363Q376 386 366 396T329 407H297V419H335Q367 419 400 422T467 430V57Q467 34 477 23T514 12H545Z"  />
<glyph unicode="v" horiz-adv-x="531" d="M187 378Q187 375 189 367L303 86L387 283Q404 324 404 359Q404 382 390 394T345 407H316V419H536V407H524Q483 407 460 386T415 315L275 -10H245L105 333Q91 367 77 387T34 407H-5V419H266V407H221Q187 407 187 378Z"  />
<glyph unicode="w" horiz-adv-x="706" d="M422 388Q422 378 426 367L510 97L594 310Q607 343 607 368Q607 385 595 396T559 407H543V419H710V407H706Q645 407 612 323L482 -10H450L359 283L240 -10H209L92 320Q84 342 78 358T63 385T45 401T18 407H-5V419H216V407H192Q165 407 165 391Q165 380 169 369L267 91L353 302L329 380Q324 394 316 400T288 407H260V419H494V407H454Q422 407 422 388Z"  />
<glyph unicode="x" horiz-adv-x="533" d="M303 247L426 69Q446 40 461 26T506 12H523V0H275V12H299Q336 12 336 31Q336 39 329 49L235 188L167 104Q152 86 146 71T140 44Q140 12 207 12H226V0H10V12H18Q49 12 81 35T149 103L226 198L110 365Q95 386 80 396T42 407H18V419H264V407H230Q207 407 207 394Q207 383 216 371L295 256L364 345Q378 362 378 379Q378 407 340 407H308V419H510V407H491Q462 407 428 385T356 315L303 247Z"  />
<glyph unicode="y" horiz-adv-x="542" d="M547 419V407H531Q489 407 467 383T427 319L249 -111Q221 -178 188 -209T108 -240Q63 -240 36 -219T9 -163Q9 -138 23 -123T61 -108Q83 -108 96 -122T109 -157Q109 -168 106 -176T98 -191T91 -203T87 -214Q87 -228 109 -228Q151 -228 181 -199T235 -112L262 -46L105 333Q91 367 77 387T28 407H-5V419H266V407H221Q187 407 187 378Q187 372 190 366L312 72L399 283Q417 326 417 359Q417 382 402 394T358 407H327V419H547Z"  />
<glyph unicode="z" horiz-adv-x="453" d="M144 12H241Q283 12 312 22T361 53T391 102T407 170H418V0H34V8L296 407H215Q86 407 64 252H53V419H412L144 12Z"  />
<glyph unicode="{" horiz-adv-x="355" d="M321 -199Q239 -187 189 -137T138 -9Q138 9 141 27T149 64T156 101T160 137Q160 157 151 175T127 207T92 230T49 243V255Q104 264 132 295T160 364Q160 384 157 401T149 436T142 472T138 513Q138 550 152 581T191 637T249 676T321 698V686Q211 654 211 572Q211 534 222 496T233 418Q233 307 89 250Q233 191 233 79Q233 42 222 3T211 -74Q211 -157 321 -187V-199Z"  />
<glyph unicode="|" horiz-adv-x="202" d="M116 674V-181H85V674H116Z"  />
<glyph unicode="}" horiz-adv-x="355" d="M34 698Q117 686 167 636T217 508Q217 471 206 434T195 362Q195 341 204 323T228 291T264 268T307 256V244Q252 234 224 204T195 135Q195 115 198 98T206 63T214 27T218 -14Q218 -52 204 -83T165 -138T107 -177T34 -199V-187Q145 -157 145 -73Q145 -54 142 -35T134 3T127 41T123 80Q123 193 267 249Q123 307 123 420Q123 438 126 457T134 495T141 534T145 572Q145 656 34 686V698Z"  />
<glyph unicode="~" horiz-adv-x="667" d="M479 244Q452 244 413 258T332 289T251 320T184 334Q145 334 119 312T85 245H73Q73 277 81 305T105 353T141 386T187 398Q214 398 253 384T334 353T415 322T482 308Q522 308 548 330T581 397H593Q593 365 585 337T561 289T525 256T479 244Z"  />
<glyph unicode="&#xA0;" horiz-adv-x="250" />
<glyph unicode="&#xA1;" horiz-adv-x="252" d="M132 274V246Q132 189 138 129T151 16T164 -80T170 -146Q170 -187 158 -210T126 -233Q106 -233 94 -210T82 -146Q82 -123 88 -81T101 15T114 129T120 246V274H132ZM73 393Q73 414 88 429T126 445Q148 445 163 430T179 393Q179 371 164 356T126 340Q104 340 89 355T73 393Z"  />
<glyph unicode="&#xA2;" horiz-adv-x="448" d="M406 160Q404 84 361 39T248 -6Q199 -6 156 14L66 -244H53L144 20Q94 47 63 96T32 208Q32 253 49 293T97 365T168 414T257 433Q272 433 287 430L375 684H389L299 427Q345 414 374 380T403 305Q403 279 391 262T354 245Q331 245 319 260T307 293Q307 327 337 342Q346 347 351 350T357 362Q357 377 341 392T295 415L169 53Q200 7 256 7Q285 7 310 18T353 50T382 98T394 160H406ZM136 208Q136 118 161 68L283 418Q276 419 270 419T257 420Q194 420 165 370T136 208Z"  />
<glyph unicode="&#xA3;" horiz-adv-x="510" d="M249 292Q250 283 250 276T251 260Q251 211 238 164T204 76Q237 69 274 63T356 56Q401 56 427 72T455 121H466Q466 91 456 65T430 19T392 -12T349 -23Q326 -23 305 -16T264 1T225 24T187 47Q165 12 142 -4T91 -21Q67 -21 52 -8T36 29Q36 54 59 71T124 88Q138 88 153 86T187 80Q196 110 196 149Q196 186 185 220T162 292H60V304H158Q149 331 143 359T137 420Q137 466 149 508T184 582T239 633T313 653Q340 653 363 644T403 620T429 583T439 538Q439 503 422 479T375 454Q355 454 341 465T327 499Q327 519 338 531T367 543Q385 543 395 533T413 522Q418 522 422 526T427 541Q427 561 419 579T395 611T359 633T313 641Q290 641 271 632T237 606T216 567T208 521Q208 496 212 469T223 413T236 356T247 304H363V292H249ZM91 -8Q144 -8 175 53Q160 61 144 65T111 70Q80 70 64 58T48 29Q48 9 59 1T91 -8Z"  />
<glyph unicode="&#xA4;" horiz-adv-x="677" d="M532 549L562 519L501 458Q550 396 550 319Q550 245 501 183L562 122L532 92L471 152Q408 104 333 104Q257 104 196 152L134 92L104 122L166 183Q116 245 116 320Q116 394 166 458L104 519L134 549L196 488Q258 537 333 537Q407 537 471 488L532 549ZM160 320Q160 284 173 253T210 198T265 161T333 147Q369 147 400 160T455 197T492 252T506 320Q506 356 493 387T456 443T401 480T333 494Q297 494 266 481T211 443T174 388T160 320Z"  />
<glyph unicode="&#xA5;" horiz-adv-x="660" d="M387 293L374 268V167H572V154H374V69Q374 12 424 12H493V0H139V12H224Q274 12 274 69V154H76V167H274V254L252 293H76V305H246L96 580Q85 599 71 607T34 616H2V628H294V616H244Q227 616 219 610T210 592Q210 580 219 564L370 286L471 477Q481 496 484 515T488 550Q488 579 467 597T406 616H386V628H657V616H644Q621 616 601 609T562 586T523 541T482 472L394 305H572V293H387Z"  />
<glyph unicode="&#xA6;" horiz-adv-x="202" d="M116 117V-181H85V117H116ZM116 333H85V674H116V333Z"  />
<glyph unicode="&#xA7;" horiz-adv-x="396" d="M271 98Q268 98 262 98T249 100Q296 56 319 8T342 -83Q342 -117 332 -145T304 -195T258 -228T198 -240Q175 -240 155 -233T120 -212T95 -180T86 -140Q86 -113 101 -95T139 -77Q159 -77 172 -90T185 -123Q185 -142 175 -151T154 -164T132 -172T122 -182Q122 -191 129 -199T147 -214T171 -224T199 -228Q248 -228 275 -199T303 -123Q303 -73 267 -26T174 66Q121 109 88 151T54 246Q54 288 77 318T142 348Q148 348 155 347T169 344Q76 431 76 512Q76 543 86 569T116 615T160 646T214 658Q238 658 259 651T296 630T321 599T330 559Q330 536 317 521T283 506Q263 506 249 519T235 553Q235 569 242 576T258 588T274 595T282 606Q282 622 263 633T214 645Q172 645 144 617T115 543Q115 521 123 503T146 467T182 432T230 393Q261 368 286 346T327 301T353 254T362 202Q362 154 338 126T271 98ZM142 335Q119 335 102 321T84 282Q84 268 91 254T108 227T130 202T152 181Q164 170 178 158T207 136T239 118T271 111Q302 111 316 127T330 164Q330 187 312 215T259 272Q224 302 194 318T142 335Z"  />
<glyph unicode="&#xA8;" horiz-adv-x="316" d="M11 571Q11 593 26 608T62 623Q84 623 99 608T114 571Q114 550 99 535T62 520Q41 520 26 535T11 571ZM203 571Q203 593 218 608T254 623Q275 623 290 608T305 571Q305 550 290 535T254 520Q233 520 218 535T203 571Z"  />
<glyph unicode="&#xA9;" horiz-adv-x="782" d="M561 278Q557 241 544 210T508 156T455 120T389 107Q343 107 305 128T239 182T196 254T180 330Q180 370 196 410T240 484T303 538T378 559Q421 559 450 539T499 495Q503 489 511 489Q518 489 525 505T543 559H554L560 361H549Q538 400 522 434T484 492T436 531T380 546Q346 546 324 533T289 495T270 433T264 348Q264 226 294 173T387 120Q415 120 442 129T491 157T528 206T548 278H561ZM49 335Q49 405 76 467T149 576T258 650T391 677Q462 677 524 650T632 577T706 468T733 335Q733 264 706 202T633 94T524 20T391 -7Q320 -7 258 20T150 93T76 202T49 335ZM65 335Q65 267 90 208T160 105T264 35T391 9Q458 9 517 34T621 104T691 208T717 335Q717 402 692 461T622 565T518 635T391 661Q323 661 264 636T161 566T91 462T65 335Z"  />
<glyph unicode="&#xAA;" horiz-adv-x="396" d="M303 322Q277 322 259 339T233 392Q204 321 135 321Q90 321 63 343T35 404Q35 437 58 460T136 504Q156 512 180 521T229 538V597Q229 668 163 668Q134 668 113 659T92 634Q92 629 95 626T110 618Q121 613 127 606T133 585Q133 568 122 557T94 546Q74 546 61 559T47 593Q47 611 56 627T82 655T122 675T173 682Q224 682 258 659T293 585V403Q293 354 322 354Q358 354 358 422V465H371V422Q371 322 303 322ZM229 524Q201 516 177 505Q143 490 126 471T108 416Q108 341 152 341Q167 341 180 347T205 366T222 394T229 431V524Z"  />
<glyph unicode="&#xAB;" horiz-adv-x="383" d="M282 217L334 42H323L210 217L323 393H334L282 217ZM134 217L224 -6H213L49 217L213 440H224L134 217Z"  />
<glyph unicode="&#xAC;" horiz-adv-x="667" d="M71 461H595V180H553V419H71V461Z"  />
<glyph unicode="&#xAD;" horiz-adv-x="286" d="M37 270H249V241H37V270Z"  />
<glyph unicode="&#xAE;" horiz-adv-x="782" d="M49 335Q49 405 76 467T149 576T258 650T391 677Q462 677 524 650T632 577T706 468T733 335Q733 264 706 202T633 94T524 20T391 -7Q320 -7 258 20T150 93T76 202T49 335ZM65 335Q65 267 90 208T160 105T264 35T391 9Q458 9 517 34T621 104T691 208T717 335Q717 402 692 461T622 565T518 635T391 661Q323 661 264 636T161 566T91 462T65 335ZM180 560H404Q486 560 526 530T566 457Q566 440 558 423T531 390T486 364T420 349Q445 344 462 334T490 311T509 281T521 247Q527 226 531 206T539 171T550 147T567 138Q588 138 601 161T614 223V245H626V223Q626 203 623 184T610 151T584 127T543 118Q508 118 485 145T461 236Q461 258 458 278T446 313T418 336T370 345H331V196Q331 167 339 154T370 140H417V128H180V140H219Q242 140 249 153T257 196V492Q257 521 250 534T219 548H180V560ZM370 548Q347 548 339 535T331 492V357H378Q432 357 460 379T488 460Q488 506 467 527T394 548H370Z"  />
<glyph unicode="&#xAF;" horiz-adv-x="316" d="M9 575H308V541H9V575Z"  />
<glyph unicode="&#xB0;" horiz-adv-x="385" d="M54 541Q54 570 65 595T94 639T138 669T192 680Q221 680 246 669T291 640T321 596T332 541Q332 512 321 487T291 443T247 413T192 402Q163 402 138 413T95 442T65 486T54 541ZM71 541Q71 516 80 494T106 456T145 430T192 420Q217 420 239 429T278 455T304 494T314 541Q314 566 305 588T279 627T240 653T192 663Q167 663 145 654T107 628T81 589T71 541Z"  />
<glyph unicode="&#xB1;" horiz-adv-x="667" d="M71 419H311V661H354V419H596V376H354V136H311V376H71V419ZM71 25H596V-18H71V25Z"  />
<glyph unicode="&#xB2;" horiz-adv-x="333" d="M32 345Q78 399 121 440T187 516Q205 543 205 578Q205 614 186 637T132 660Q115 660 100 654T74 639T57 617T50 591Q50 578 59 578Q61 578 68 583Q78 591 92 591Q103 591 113 580T124 555Q124 541 113 529T85 517Q65 517 52 534T38 582Q38 607 48 626T74 657T113 676T159 682Q213 682 247 654T282 583Q282 545 255 518T186 465Q126 428 95 395H253Q267 395 273 405T280 442H291L280 335H32V345Z"  />
<glyph unicode="&#xB3;" horiz-adv-x="333" d="M283 595Q283 536 189 519Q296 496 296 423Q296 400 285 383T255 353T211 335T158 328Q98 328 66 349T34 404Q34 425 47 438T78 451Q113 451 113 416Q113 386 79 382Q66 379 66 372Q66 362 85 352T132 341Q170 341 194 363T219 424Q219 438 215 452T203 479T184 498T157 506Q150 506 136 503T114 500Q106 500 106 508Q106 519 138 521Q164 523 175 528Q187 534 197 551T207 594Q207 668 145 668Q117 668 96 658T74 636Q74 630 88 628Q124 625 124 594Q124 559 90 559Q72 559 60 572T47 605Q47 638 78 660T160 682Q214 682 248 658T283 595Z"  />
<glyph unicode="&#xB4;" horiz-adv-x="316" d="M86 505H74L138 615Q161 654 175 669T210 685Q224 685 233 676T242 652Q242 638 233 627T203 598L86 505Z"  />
<glyph unicode="&#xB5;" horiz-adv-x="500" d="M140 430H214L136 157Q131 140 129 131T125 116T123 107T122 101Q122 93 123 82T128 60T143 42T172 34Q195 34 220 49T268 94Q283 113 292 126T308 154T321 190T338 245L392 430H466L384 148L374 116Q368 98 368 77Q368 36 395 36Q420 36 434 57T462 105H480Q474 85 468 71T456 46T441 27T422 11Q408 0 390 -6T357 -12Q328 -12 311 8T293 62Q293 67 293 77T296 99Q257 42 215 15T136 -12Q117 -12 104 -7T82 7T68 24T59 41Q51 15 47 -3T39 -39T34 -79T29 -134Q22 -215 -25 -215Q-41 -215 -50 -204T-60 -176Q-60 -170 -59 -165T-55 -151T-44 -127T-23 -86Q8 -27 33 63L140 430Z"  />
<glyph unicode="&#xB6;" horiz-adv-x="495" d="M485 674V662H465Q426 662 417 644Q406 625 406 559V-234H370V656H275V-234H238V292Q94 296 44 352Q-4 406 -4 483Q-4 570 54 622Q115 674 223 674H485Z"  />
<glyph unicode="&#xB7;" horiz-adv-x="281" d="M193 276Q193 254 178 239T141 223Q118 223 103 238T88 276Q88 298 103 313T141 329Q162 329 177 314T193 276Z"  />
<glyph unicode="&#xB8;" horiz-adv-x="316" d="M184 0H200L167 -42Q205 -50 226 -70T248 -115Q248 -137 233 -153T193 -181T136 -197T68 -203V-191Q92 -190 113 -187T149 -176T174 -158T183 -128Q183 -88 118 -85L184 0Z"  />
<glyph unicode="&#xB9;" horiz-adv-x="333" d="M60 674Q100 674 131 676T189 682H205V376Q205 347 233 347H279V335H60V347H103Q137 347 137 383V633Q137 662 104 662H60V674Z"  />
<glyph unicode="&#xBA;" horiz-adv-x="396" d="M198 682Q233 682 262 668T313 630T347 573T359 501Q359 462 347 429T314 372T263 334T198 320Q163 320 134 333T83 371T49 429T37 501Q37 540 49 573T82 630T133 668T198 682ZM198 333Q243 333 264 373T286 501Q286 589 265 629T198 669Q153 669 132 629T110 501Q110 413 131 373T198 333Z"  />
<glyph unicode="&#xBB;" horiz-adv-x="383" d="M49 393H60L172 217L60 42H49L101 217L49 393ZM159 440H170L334 217L170 -6H159L249 217L159 440Z"  />
<glyph unicode="&#xBC;" horiz-adv-x="718" d="M60 674Q100 674 131 676T189 682H205V376Q205 347 233 347H279V335H60V347H103Q137 347 137 383V633Q137 662 104 662H60V674ZM588 682H629L130 -34H89L588 682ZM588 349H599V120H679V88H599V38Q599 12 626 12H664V0H472V12H511Q539 12 539 38V88H411L392 108L588 349ZM539 120V270L417 120H539Z"  />
<glyph unicode="&#xBD;" horiz-adv-x="718" d="M60 674Q100 674 131 676T189 682H205V376Q205 347 233 347H279V335H60V347H103Q137 347 137 383V633Q137 662 104 662H60V674ZM588 682H629L130 -34H89L588 682ZM417 10Q463 64 506 105T571 181Q590 209 590 243Q590 279 571 302T517 325Q483 325 459 304T435 256Q435 243 443 243Q446 243 453 248Q463 256 477 256Q488 256 498 245T508 220Q508 206 498 194T470 182Q450 182 436 200T422 247Q422 272 432 291T459 322T498 341T544 347Q598 347 632 319T667 248Q667 210 640 184T571 130Q511 93 480 60H638Q652 60 658 70T665 107H675L665 0H417V10Z"  />
<glyph unicode="&#xBE;" horiz-adv-x="718" d="M283 595Q283 536 189 519Q296 496 296 423Q296 400 285 383T255 353T211 335T158 328Q98 328 66 349T34 404Q34 425 47 438T78 451Q113 451 113 416Q113 386 79 382Q66 379 66 372Q66 362 85 352T132 341Q170 341 194 363T219 424Q219 438 215 452T203 479T184 498T157 506Q150 506 136 503T114 500Q106 500 106 508Q106 519 138 521Q164 523 175 528Q187 534 197 551T207 594Q207 668 145 668Q117 668 96 658T74 636Q74 630 88 628Q124 625 124 594Q124 559 90 559Q72 559 60 572T47 605Q47 638 78 660T160 682Q214 682 248 658T283 595ZM588 682H629L130 -34H89L588 682ZM588 349H599V120H679V88H599V38Q599 12 626 12H664V0H472V12H511Q539 12 539 38V88H411L392 108L588 349ZM539 120V270L417 120H539Z"  />
<glyph unicode="&#xBF;" horiz-adv-x="344" d="M308 -39Q308 -86 297 -121T266 -179T221 -213T169 -224Q142 -224 118 -214T76 -184T48 -137T37 -74Q37 -32 53 4T106 71Q121 84 139 98T173 127T199 161T210 201Q210 221 199 235T167 250Q141 250 128 232T108 175H95Q109 263 167 263Q185 263 199 254T222 231T237 197T242 157Q242 121 230 96T200 52T161 16T122 -19T92 -61T80 -116Q80 -139 88 -157T108 -187T137 -205T171 -211Q195 -211 217 -201T257 -169T285 -115T295 -39H308ZM124 395Q124 416 139 431T177 447Q199 447 214 432T229 395Q229 373 214 358T177 342Q155 342 140 357T124 395Z"  />
<glyph unicode="&#xC0;" horiz-adv-x="694" d="M442 228H190Q173 180 164 145T154 95Q154 60 183 36T263 12H289V0H2V12H9Q38 12 59 23T97 54T127 100T151 157L347 685H385L583 104Q594 73 603 55T620 29Q628 22 641 17T673 12H691V0H378V12H462Q481 12 490 21T500 44Q500 59 495 72L442 228ZM198 247H435L321 581L198 247ZM293 842Q272 859 263 870T253 896Q253 911 262 920T285 929Q306 929 320 914T358 859L421 749H409L293 842Z"  />
<glyph unicode="&#xC1;" horiz-adv-x="694" d="M442 228H190Q173 180 164 145T154 95Q154 60 183 36T263 12H289V0H2V12H9Q38 12 59 23T97 54T127 100T151 157L347 685H385L583 104Q594 73 603 55T620 29Q628 22 641 17T673 12H691V0H378V12H462Q481 12 490 21T500 44Q500 59 495 72L442 228ZM198 247H435L321 581L198 247ZM323 749H311L375 859Q398 898 412 913T447 929Q461 929 470 920T479 896Q479 882 470 871T440 842L323 749Z"  />
<glyph unicode="&#xC2;" horiz-adv-x="694" d="M442 228H190Q173 180 164 145T154 95Q154 60 183 36T263 12H289V0H2V12H9Q38 12 59 23T97 54T127 100T151 157L347 685H385L583 104Q594 73 603 55T620 29Q628 22 641 17T673 12H691V0H378V12H462Q481 12 490 21T500 44Q500 59 495 72L442 228ZM198 247H435L321 581L198 247ZM329 912H404L507 748H495L365 853L237 748H225L329 912Z"  />
<glyph unicode="&#xC3;" horiz-adv-x="694" d="M442 228H190Q173 180 164 145T154 95Q154 60 183 36T263 12H289V0H2V12H9Q38 12 59 23T97 54T127 100T151 157L347 685H385L583 104Q594 73 603 55T620 29Q628 22 641 17T673 12H691V0H378V12H462Q481 12 490 21T500 44Q500 59 495 72L442 228ZM198 247H435L321 581L198 247ZM516 880Q507 764 434 764Q419 764 402 769T365 785Q355 791 344 797T321 810T299 820T279 824Q259 824 246 809T229 764H216Q223 881 300 881Q317 881 334 875T370 857Q393 843 414 832T454 821Q471 821 486 836T504 880H516Z"  />
<glyph unicode="&#xC4;" horiz-adv-x="694" d="M442 228H190Q173 180 164 145T154 95Q154 60 183 36T263 12H289V0H2V12H9Q38 12 59 23T97 54T127 100T151 157L347 685H385L583 104Q594 73 603 55T620 29Q628 22 641 17T673 12H691V0H378V12H462Q481 12 490 21T500 44Q500 59 495 72L442 228ZM198 247H435L321 581L198 247ZM219 815Q219 837 234 852T270 867Q292 867 307 852T322 815Q322 794 307 779T270 764Q249 764 234 779T219 815ZM411 815Q411 837 426 852T462 867Q483 867 498 852T513 815Q513 794 498 779T462 764Q441 764 426 779T411 815Z"  />
<glyph unicode="&#xC5;" horiz-adv-x="694" d="M442 228H190Q173 180 164 145T154 95Q154 60 183 36T263 12H289V0H2V12H9Q38 12 59 23T97 54T127 100T151 157L347 685H385L583 104Q594 73 603 55T620 29Q628 22 641 17T673 12H691V0H378V12H462Q481 12 490 21T500 44Q500 59 495 72L442 228ZM198 247H435L321 581L198 247ZM274 840Q274 859 281 876T300 905T330 925T366 932Q385 932 401 925T430 906T450 876T458 840Q458 821 451 805T431 776T402 756T366 749Q347 749 330 756T301 775T281 804T274 840ZM296 840Q296 811 316 791T366 771Q395 771 415 791T436 840Q436 869 416 889T366 910Q337 910 317 890T296 840Z"  />
<glyph unicode="&#xC6;" horiz-adv-x="1006" d="M952 674V430H941Q916 537 862 599T725 662H601Q578 662 578 629V347H612Q758 347 764 524H776V154H764Q764 199 753 232T723 288T676 322T618 334H578V46Q578 12 609 12H736Q780 12 816 29T879 78T926 151T956 244H967L961 0H375V12H427Q478 12 478 69V287H252L206 202Q197 185 188 168T171 134T160 103T155 78Q155 48 178 30T231 12H252V0H2V12Q87 15 152 131L409 592Q420 610 420 627Q420 662 368 662H281V674H952ZM263 306H478V639Q478 662 470 662Q463 662 451 641L263 306Z"  />
<glyph unicode="&#xC7;" horiz-adv-x="623" d="M329 -17Q272 -14 221 14T130 88T68 196T44 329Q44 396 66 460T126 575T216 656T326 687Q433 687 504 571Q530 594 546 624T567 687H578V383H567Q552 439 531 491T481 585T413 650T327 675Q243 675 196 584Q187 566 181 538T171 474T166 396T164 308Q164 270 166 233T174 163T188 104T208 63Q231 31 264 14T341 -4Q391 -4 432 15T504 68T553 147T574 245H586Q584 190 565 143T514 60T439 5T346 -17L322 -47Q360 -55 381 -75T403 -120Q403 -142 388 -158T348 -186T291 -202T223 -208V-196Q247 -195 268 -192T304 -181T328 -163T337 -133Q337 -93 272 -90L329 -17Z"  />
<glyph unicode="&#xC8;" horiz-adv-x="644" d="M12 674H589V430H578Q553 537 499 599T362 662H238Q215 662 215 629V347H250Q395 347 401 524H413V154H401Q401 199 390 232T360 288T313 322T255 334H215V46Q215 12 246 12H373Q417 12 453 29T516 78T563 151T593 244H604L599 0H12V12H64Q115 12 115 69V604Q115 662 66 662H12V674ZM350 852Q329 869 320 880T310 906Q310 921 319 930T342 939Q363 939 377 924T415 869L478 759H466L350 852Z"  />
<glyph unicode="&#xC9;" horiz-adv-x="644" d="M12 674H589V430H578Q553 537 499 599T362 662H238Q215 662 215 629V347H250Q395 347 401 524H413V154H401Q401 199 390 232T360 288T313 322T255 334H215V46Q215 12 246 12H373Q417 12 453 29T516 78T563 151T593 244H604L599 0H12V12H64Q115 12 115 69V604Q115 662 66 662H12V674ZM322 759H310L374 869Q397 908 411 923T446 939Q460 939 469 930T478 906Q478 892 469 881T439 852L322 759Z"  />
<glyph unicode="&#xCA;" horiz-adv-x="644" d="M12 674H589V430H578Q553 537 499 599T362 662H238Q215 662 215 629V347H250Q395 347 401 524H413V154H401Q401 199 390 232T360 288T313 322T255 334H215V46Q215 12 246 12H373Q417 12 453 29T516 78T563 151T593 244H604L599 0H12V12H64Q115 12 115 69V604Q115 662 66 662H12V674ZM347 922H422L525 758H513L383 863L255 758H243L347 922Z"  />
<glyph unicode="&#xCB;" horiz-adv-x="644" d="M12 674H589V430H578Q553 537 499 599T362 662H238Q215 662 215 629V347H250Q395 347 401 524H413V154H401Q401 199 390 232T360 288T313 322T255 334H215V46Q215 12 246 12H373Q417 12 453 29T516 78T563 151T593 244H604L599 0H12V12H64Q115 12 115 69V604Q115 662 66 662H12V674ZM237 825Q237 847 252 862T288 877Q310 877 325 862T340 825Q340 804 325 789T288 774Q267 774 252 789T237 825ZM429 825Q429 847 444 862T480 877Q501 877 516 862T531 825Q531 804 516 789T480 774Q459 774 444 789T429 825Z"  />
<glyph unicode="&#xCC;" horiz-adv-x="330" d="M12 12H65Q115 12 115 69V604Q115 662 65 662H12V674H317V662H265Q215 662 215 604V69Q215 12 265 12H317V0H12V12ZM92 842Q71 859 62 870T52 896Q52 911 61 920T84 929Q105 929 119 914T157 859L220 749H208L92 842Z"  />
<glyph unicode="&#xCD;" horiz-adv-x="330" d="M12 12H65Q115 12 115 69V604Q115 662 65 662H12V674H317V662H265Q215 662 215 604V69Q215 12 265 12H317V0H12V12ZM122 749H110L174 859Q197 898 211 913T246 929Q260 929 269 920T278 896Q278 882 269 871T239 842L122 749Z"  />
<glyph unicode="&#xCE;" horiz-adv-x="330" d="M12 12H65Q115 12 115 69V604Q115 662 65 662H12V674H317V662H265Q215 662 215 604V69Q215 12 265 12H317V0H12V12ZM128 912H203L306 748H294L164 853L36 748H24L128 912Z"  />
<glyph unicode="&#xCF;" horiz-adv-x="330" d="M12 12H65Q115 12 115 69V604Q115 662 65 662H12V674H317V662H265Q215 662 215 604V69Q215 12 265 12H317V0H12V12ZM18 815Q18 837 33 852T69 867Q91 867 106 852T121 815Q121 794 106 779T69 764Q48 764 33 779T18 815ZM210 815Q210 837 225 852T261 867Q282 867 297 852T312 815Q312 794 297 779T261 764Q240 764 225 779T210 815Z"  />
<glyph unicode="&#xD0;" horiz-adv-x="718" d="M24 344H115V604Q115 662 65 662H12V674H342Q412 674 473 646T580 571T652 463T679 333Q679 264 651 204T574 98T464 27T336 0H12V12H65Q115 12 115 69V330H24V344ZM242 662Q215 662 215 631V344H395V330H215V52Q215 12 244 12H339Q401 12 443 40T512 114T550 222T562 349Q562 416 552 473T515 573T443 638T329 662H242Z"  />
<glyph unicode="&#xD1;" horiz-adv-x="701" d="M12 674H194L568 130V455Q568 503 563 541T545 606T507 647T444 662H426V674H696V662H676Q640 662 621 643T592 594T582 527T580 455V-23H552L137 581V215Q137 114 162 63T257 12H290V0H12V12H32Q55 12 72 21T101 54T119 117T125 215V513Q125 554 122 582T109 628T82 654T35 662H12V674ZM478 880Q469 764 396 764Q381 764 364 769T327 785Q317 791 306 797T283 810T261 820T241 824Q221 824 208 809T191 764H178Q185 881 262 881Q279 881 296 875T332 857Q355 843 376 832T416 821Q433 821 448 836T466 880H478Z"  />
<glyph unicode="&#xD2;" horiz-adv-x="698" d="M39 330Q39 397 62 460T128 573T227 653T350 683Q417 683 473 653T571 573T635 460T659 330Q659 263 636 201T571 90T473 12T350 -17Q278 -17 221 14T123 96T61 208T39 330ZM522 545Q505 606 461 638T350 670Q284 670 237 638T174 543Q167 512 164 456T160 331Q160 262 163 207T175 121Q192 57 236 27T349 -4Q420 -4 465 29T524 128Q531 161 534 217T538 341Q538 407 534 461T522 545ZM276 842Q255 859 246 870T236 896Q236 911 245 920T268 929Q289 929 303 914T341 859L404 749H392L276 842Z"  />
<glyph unicode="&#xD3;" horiz-adv-x="698" d="M39 330Q39 397 62 460T128 573T227 653T350 683Q417 683 473 653T571 573T635 460T659 330Q659 263 636 201T571 90T473 12T350 -17Q278 -17 221 14T123 96T61 208T39 330ZM522 545Q505 606 461 638T350 670Q284 670 237 638T174 543Q167 512 164 456T160 331Q160 262 163 207T175 121Q192 57 236 27T349 -4Q420 -4 465 29T524 128Q531 161 534 217T538 341Q538 407 534 461T522 545ZM307 749H295L359 859Q382 898 396 913T431 929Q445 929 454 920T463 896Q463 882 454 871T424 842L307 749Z"  />
<glyph unicode="&#xD4;" horiz-adv-x="698" d="M39 330Q39 397 62 460T128 573T227 653T350 683Q417 683 473 653T571 573T635 460T659 330Q659 263 636 201T571 90T473 12T350 -17Q278 -17 221 14T123 96T61 208T39 330ZM522 545Q505 606 461 638T350 670Q284 670 237 638T174 543Q167 512 164 456T160 331Q160 262 163 207T175 121Q192 57 236 27T349 -4Q420 -4 465 29T524 128Q531 161 534 217T538 341Q538 407 534 461T522 545ZM312 912H387L490 748H478L348 853L220 748H208L312 912Z"  />
<glyph unicode="&#xD5;" horiz-adv-x="698" d="M39 330Q39 397 62 460T128 573T227 653T350 683Q417 683 473 653T571 573T635 460T659 330Q659 263 636 201T571 90T473 12T350 -17Q278 -17 221 14T123 96T61 208T39 330ZM522 545Q505 606 461 638T350 670Q284 670 237 638T174 543Q167 512 164 456T160 331Q160 262 163 207T175 121Q192 57 236 27T349 -4Q420 -4 465 29T524 128Q531 161 534 217T538 341Q538 407 534 461T522 545ZM500 880Q491 764 418 764Q403 764 386 769T349 785Q339 791 328 797T305 810T283 820T263 824Q243 824 230 809T213 764H200Q207 881 284 881Q301 881 318 875T354 857Q377 843 398 832T438 821Q455 821 470 836T488 880H500Z"  />
<glyph unicode="&#xD6;" horiz-adv-x="698" d="M39 330Q39 397 62 460T128 573T227 653T350 683Q417 683 473 653T571 573T635 460T659 330Q659 263 636 201T571 90T473 12T350 -17Q278 -17 221 14T123 96T61 208T39 330ZM522 545Q505 606 461 638T350 670Q284 670 237 638T174 543Q167 512 164 456T160 331Q160 262 163 207T175 121Q192 57 236 27T349 -4Q420 -4 465 29T524 128Q531 161 534 217T538 341Q538 407 534 461T522 545ZM203 815Q203 837 218 852T254 867Q276 867 291 852T306 815Q306 794 291 779T254 764Q233 764 218 779T203 815ZM395 815Q395 837 410 852T446 867Q467 867 482 852T497 815Q497 794 482 779T446 764Q425 764 410 779T395 815Z"  />
<glyph unicode="&#xD7;" horiz-adv-x="667" d="M333 351L541 558L571 528L363 320L569 114L539 83L333 290L126 83L96 114L303 320L96 528L126 558L333 351Z"  />
<glyph unicode="&#xD8;" horiz-adv-x="698" d="M39 330Q39 397 62 460T128 573T227 653T350 683Q413 683 467 656T562 583L661 695L671 686L571 572Q613 522 636 459T659 330Q659 263 636 201T571 90T473 12T350 -17Q283 -17 229 9T136 81L37 -31L26 -22L126 91Q84 142 62 205T39 330ZM522 545Q505 606 461 638T350 670Q284 670 237 638T174 543Q167 512 164 456T160 331Q160 271 163 223T171 141L523 539L522 545ZM538 341Q538 396 535 443T527 522L174 124L175 121Q192 57 236 27T349 -4Q420 -4 465 29T524 128Q531 161 534 217T538 341Z"  />
<glyph unicode="&#xD9;" horiz-adv-x="728" d="M735 662Q613 657 613 507V253Q613 193 596 143T547 56T469 -1T363 -22Q263 -22 188 38Q115 98 115 236V604Q115 662 65 662H12V674H317V662H263Q215 662 215 600V215Q215 2 387 2Q438 2 477 21T544 74T586 154T601 253V483Q601 582 563 622Q525 662 472 662H447V674H735V662ZM309 842Q288 859 279 870T269 896Q269 911 278 920T301 929Q322 929 336 914T374 859L437 749H425L309 842Z"  />
<glyph unicode="&#xDA;" horiz-adv-x="728" d="M735 662Q613 657 613 507V253Q613 193 596 143T547 56T469 -1T363 -22Q263 -22 188 38Q115 98 115 236V604Q115 662 65 662H12V674H317V662H263Q215 662 215 600V215Q215 2 387 2Q438 2 477 21T544 74T586 154T601 253V483Q601 582 563 622Q525 662 472 662H447V674H735V662ZM339 749H327L391 859Q414 898 428 913T463 929Q477 929 486 920T495 896Q495 882 486 871T456 842L339 749Z"  />
<glyph unicode="&#xDB;" horiz-adv-x="728" d="M735 662Q613 657 613 507V253Q613 193 596 143T547 56T469 -1T363 -22Q263 -22 188 38Q115 98 115 236V604Q115 662 65 662H12V674H317V662H263Q215 662 215 600V215Q215 2 387 2Q438 2 477 21T544 74T586 154T601 253V483Q601 582 563 622Q525 662 472 662H447V674H735V662ZM345 912H420L523 748H511L381 853L253 748H241L345 912Z"  />
<glyph unicode="&#xDC;" horiz-adv-x="728" d="M735 662Q613 657 613 507V253Q613 193 596 143T547 56T469 -1T363 -22Q263 -22 188 38Q115 98 115 236V604Q115 662 65 662H12V674H317V662H263Q215 662 215 600V215Q215 2 387 2Q438 2 477 21T544 74T586 154T601 253V483Q601 582 563 622Q525 662 472 662H447V674H735V662ZM235 815Q235 837 250 852T286 867Q308 867 323 852T338 815Q338 794 323 779T286 764Q265 764 250 779T235 815ZM427 815Q427 837 442 852T478 867Q499 867 514 852T529 815Q529 794 514 779T478 764Q457 764 442 779T427 815Z"  />
<glyph unicode="&#xDD;" horiz-adv-x="723" d="M210 638Q210 625 219 610L402 273L534 522Q544 541 548 560T552 595Q552 625 530 643T470 662H418V674H721V662H708Q684 662 664 655T625 631T587 586T545 517L406 254V69Q406 12 457 12H525V0H171V12H256Q306 12 306 69V241L96 625Q85 645 71 653T34 662H2V674H327V662H244Q227 662 219 656T210 638ZM325 749H313L377 859Q400 898 414 913T449 929Q463 929 472 920T481 896Q481 882 472 871T442 842L325 749Z"  />
<glyph unicode="&#xDE;" horiz-adv-x="612" d="M12 12H65Q115 12 115 69V604Q115 662 65 662H12V674H317V662H265Q215 662 215 604V516H332Q387 516 434 505T517 472T572 415T592 334Q592 293 570 260T511 204T429 169T337 156H215V69Q215 12 265 12H317V0H12V12ZM215 504V168H314Q402 168 440 213T479 334Q479 417 439 460T319 504H215Z"  />
<glyph unicode="&#xDF;" horiz-adv-x="555" d="M12 12H59Q90 12 90 44V463Q90 524 105 566T147 634T210 673T289 685Q329 685 365 674T429 641T473 591T489 527Q489 429 337 386Q523 350 523 187Q523 150 509 116T472 54T418 11T353 -6Q315 -6 291 16T266 71Q266 92 279 106T311 120Q327 120 339 109T351 80Q351 71 347 63T339 49T330 38T326 27Q326 18 333 12T355 6Q379 6 392 23T411 66T418 124T419 187Q419 227 415 262T399 322T362 361T296 376H270V389Q336 389 365 422T394 518Q394 593 370 632T291 672Q233 672 207 641T181 547V41Q181 12 208 12H247V0H12V12Z"  />
<glyph unicode="&#xE0;" horiz-adv-x="506" d="M408 -6Q372 -6 346 16T312 96Q287 43 255 19T172 -6Q108 -6 70 24T32 101Q32 134 49 155T92 189T152 211T217 226Q273 238 305 254V330Q305 372 281 395T213 418Q200 418 184 415T155 405T132 389T123 370Q123 363 129 358T144 347T159 330T166 304Q166 284 153 272T120 259Q97 259 83 275T69 312Q69 339 83 361T119 399T171 424T230 433Q395 433 395 297V99Q395 19 432 19Q463 19 476 58T489 160H501Q501 71 480 33T408 -6ZM305 240Q281 229 250 220Q222 212 200 204T162 182T138 146T129 89Q129 57 145 35T198 12Q219 12 238 23T272 54T296 97T305 146V240ZM157 598Q136 615 127 626T117 652Q117 667 126 676T149 685Q170 685 184 670T222 615L285 505H273L157 598Z"  />
<glyph unicode="&#xE1;" horiz-adv-x="506" d="M408 -6Q372 -6 346 16T312 96Q287 43 255 19T172 -6Q108 -6 70 24T32 101Q32 134 49 155T92 189T152 211T217 226Q273 238 305 254V330Q305 372 281 395T213 418Q200 418 184 415T155 405T132 389T123 370Q123 363 129 358T144 347T159 330T166 304Q166 284 153 272T120 259Q97 259 83 275T69 312Q69 339 83 361T119 399T171 424T230 433Q395 433 395 297V99Q395 19 432 19Q463 19 476 58T489 160H501Q501 71 480 33T408 -6ZM305 240Q281 229 250 220Q222 212 200 204T162 182T138 146T129 89Q129 57 145 35T198 12Q219 12 238 23T272 54T296 97T305 146V240ZM188 505H176L240 615Q263 654 277 669T312 685Q326 685 335 676T344 652Q344 638 335 627T305 598L188 505Z"  />
<glyph unicode="&#xE2;" horiz-adv-x="506" d="M408 -6Q372 -6 346 16T312 96Q287 43 255 19T172 -6Q108 -6 70 24T32 101Q32 134 49 155T92 189T152 211T217 226Q273 238 305 254V330Q305 372 281 395T213 418Q200 418 184 415T155 405T132 389T123 370Q123 363 129 358T144 347T159 330T166 304Q166 284 153 272T120 259Q97 259 83 275T69 312Q69 339 83 361T119 399T171 424T230 433Q395 433 395 297V99Q395 19 432 19Q463 19 476 58T489 160H501Q501 71 480 33T408 -6ZM305 240Q281 229 250 220Q222 212 200 204T162 182T138 146T129 89Q129 57 145 35T198 12Q219 12 238 23T272 54T296 97T305 146V240ZM193 668H268L371 504H359L229 609L101 504H89L193 668Z"  />
<glyph unicode="&#xE3;" horiz-adv-x="506" d="M408 -6Q372 -6 346 16T312 96Q287 43 255 19T172 -6Q108 -6 70 24T32 101Q32 134 49 155T92 189T152 211T217 226Q273 238 305 254V330Q305 372 281 395T213 418Q200 418 184 415T155 405T132 389T123 370Q123 363 129 358T144 347T159 330T166 304Q166 284 153 272T120 259Q97 259 83 275T69 312Q69 339 83 361T119 399T171 424T230 433Q395 433 395 297V99Q395 19 432 19Q463 19 476 58T489 160H501Q501 71 480 33T408 -6ZM305 240Q281 229 250 220Q222 212 200 204T162 182T138 146T129 89Q129 57 145 35T198 12Q219 12 238 23T272 54T296 97T305 146V240ZM380 636Q371 520 298 520Q283 520 266 525T229 541Q219 547 208 553T185 566T163 576T143 580Q123 580 110 565T93 520H80Q87 637 164 637Q181 637 198 631T234 613Q257 599 278 588T318 577Q335 577 350 592T368 636H380Z"  />
<glyph unicode="&#xE4;" horiz-adv-x="506" d="M408 -6Q372 -6 346 16T312 96Q287 43 255 19T172 -6Q108 -6 70 24T32 101Q32 134 49 155T92 189T152 211T217 226Q273 238 305 254V330Q305 372 281 395T213 418Q200 418 184 415T155 405T132 389T123 370Q123 363 129 358T144 347T159 330T166 304Q166 284 153 272T120 259Q97 259 83 275T69 312Q69 339 83 361T119 399T171 424T230 433Q395 433 395 297V99Q395 19 432 19Q463 19 476 58T489 160H501Q501 71 480 33T408 -6ZM305 240Q281 229 250 220Q222 212 200 204T162 182T138 146T129 89Q129 57 145 35T198 12Q219 12 238 23T272 54T296 97T305 146V240ZM83 571Q83 593 98 608T134 623Q156 623 171 608T186 571Q186 550 171 535T134 520Q113 520 98 535T83 571ZM275 571Q275 593 290 608T326 623Q347 623 362 608T377 571Q377 550 362 535T326 520Q305 520 290 535T275 571Z"  />
<glyph unicode="&#xE5;" horiz-adv-x="506" d="M408 -6Q372 -6 346 16T312 96Q287 43 255 19T172 -6Q108 -6 70 24T32 101Q32 134 49 155T92 189T152 211T217 226Q273 238 305 254V330Q305 372 281 395T213 418Q200 418 184 415T155 405T132 389T123 370Q123 363 129 358T144 347T159 330T166 304Q166 284 153 272T120 259Q97 259 83 275T69 312Q69 339 83 361T119 399T171 424T230 433Q395 433 395 297V99Q395 19 432 19Q463 19 476 58T489 160H501Q501 71 480 33T408 -6ZM305 240Q281 229 250 220Q222 212 200 204T162 182T138 146T129 89Q129 57 145 35T198 12Q219 12 238 23T272 54T296 97T305 146V240ZM138 596Q138 615 145 632T164 661T194 681T230 688Q249 688 265 681T294 662T314 632T322 596Q322 577 315 561T295 532T266 512T230 505Q211 505 194 512T165 531T145 560T138 596ZM160 596Q160 567 180 547T230 527Q259 527 279 547T300 596Q300 625 280 645T230 666Q201 666 181 646T160 596Z"  />
<glyph unicode="&#xE6;" horiz-adv-x="750" d="M230 433Q333 433 372 379Q398 404 432 418T508 433Q551 433 587 417T650 373T694 308T715 228H395V202Q395 105 429 56T524 7Q556 7 586 18T640 49T682 97T707 160H719Q711 121 693 91T647 39T586 6T514 -6Q445 -6 394 27T319 113Q294 51 260 23T172 -6Q108 -6 70 24T32 101Q32 134 49 155T92 189T152 211T217 226Q273 238 305 254V330Q305 372 281 395T213 418Q200 418 184 415T155 405T132 389T123 370Q123 363 129 358T144 347T159 330T166 304Q166 284 153 272T120 259Q97 259 83 275T69 312Q69 339 83 361T119 399T171 424T230 433ZM580 240Q597 240 603 248T609 283Q609 311 602 336T582 380T549 409T507 420Q457 420 426 373T395 240H580ZM305 240Q281 229 250 220Q222 212 200 204T162 182T138 146T129 89Q129 57 145 35T198 12Q219 12 238 23T272 54T296 97T305 146V240Z"  />
<glyph unicode="&#xE7;" horiz-adv-x="442" d="M234 -6Q192 -4 156 13T92 60T48 127T32 208Q32 253 49 293T97 365T168 414T257 433Q288 433 315 423T361 394T392 353T403 305Q403 279 391 262T354 245Q331 245 319 260T307 293Q307 327 337 342Q346 347 351 350T357 362Q357 372 350 382T329 401T298 414T257 420Q194 420 165 370T136 208Q136 110 166 59T256 7Q285 7 310 18T353 50T382 98T394 160H406Q404 85 362 41T251 -6L223 -42Q260 -50 282 -70T304 -115Q304 -137 289 -153T249 -181T192 -197T124 -203V-191Q148 -190 169 -187T205 -176T229 -158T238 -128Q238 -88 173 -85L234 -6Z"  />
<glyph unicode="&#xE8;" horiz-adv-x="491" d="M460 160Q452 121 434 91T388 39T327 6T255 -6Q207 -6 166 10T96 56T49 124T32 208Q32 253 48 293T94 365T163 414T250 433Q293 433 329 417T392 373T435 308T457 228H136V202Q136 105 170 56T265 7Q298 7 328 18T382 49T423 97T448 160H460ZM321 240Q338 240 344 248T350 283Q350 311 343 336T323 380T290 409T248 420Q198 420 167 373T136 240H321ZM176 598Q155 615 146 626T136 652Q136 667 145 676T168 685Q189 685 203 670T241 615L304 505H292L176 598Z"  />
<glyph unicode="&#xE9;" horiz-adv-x="491" d="M460 160Q452 121 434 91T388 39T327 6T255 -6Q207 -6 166 10T96 56T49 124T32 208Q32 253 48 293T94 365T163 414T250 433Q293 433 329 417T392 373T435 308T457 228H136V202Q136 105 170 56T265 7Q298 7 328 18T382 49T423 97T448 160H460ZM321 240Q338 240 344 248T350 283Q350 311 343 336T323 380T290 409T248 420Q198 420 167 373T136 240H321ZM206 505H194L258 615Q281 654 295 669T330 685Q344 685 353 676T362 652Q362 638 353 627T323 598L206 505Z"  />
<glyph unicode="&#xEA;" horiz-adv-x="491" d="M460 160Q452 121 434 91T388 39T327 6T255 -6Q207 -6 166 10T96 56T49 124T32 208Q32 253 48 293T94 365T163 414T250 433Q293 433 329 417T392 373T435 308T457 228H136V202Q136 105 170 56T265 7Q298 7 328 18T382 49T423 97T448 160H460ZM321 240Q338 240 344 248T350 283Q350 311 343 336T323 380T290 409T248 420Q198 420 167 373T136 240H321ZM212 668H287L390 504H378L248 609L120 504H108L212 668Z"  />
<glyph unicode="&#xEB;" horiz-adv-x="491" d="M460 160Q452 121 434 91T388 39T327 6T255 -6Q207 -6 166 10T96 56T49 124T32 208Q32 253 48 293T94 365T163 414T250 433Q293 433 329 417T392 373T435 308T457 228H136V202Q136 105 170 56T265 7Q298 7 328 18T382 49T423 97T448 160H460ZM321 240Q338 240 344 248T350 283Q350 311 343 336T323 380T290 409T248 420Q198 420 167 373T136 240H321ZM102 571Q102 593 117 608T153 623Q175 623 190 608T205 571Q205 550 190 535T153 520Q132 520 117 535T102 571ZM294 571Q294 593 309 608T345 623Q366 623 381 608T396 571Q396 550 381 535T345 520Q324 520 309 535T294 571Z"  />
<glyph unicode="&#xEC;" horiz-adv-x="256" d="M179 61Q179 34 187 23T219 12H251V0H13V12H48Q71 12 79 23T88 61V364Q88 387 76 397T41 407H10V419H48Q79 419 111 421T179 430V61ZM60 598Q40 615 31 626T21 652Q21 667 29 676T52 685Q73 685 87 670T125 615L188 505H176L60 598Z"  />
<glyph unicode="&#xED;" horiz-adv-x="256" d="M179 61Q179 34 187 23T219 12H251V0H13V12H48Q71 12 79 23T88 61V364Q88 387 76 397T41 407H10V419H48Q79 419 111 421T179 430V61ZM91 505H79L143 615Q166 654 180 669T215 685Q229 685 238 676T247 652Q247 638 238 627T208 598L91 505Z"  />
<glyph unicode="&#xEE;" horiz-adv-x="256" d="M179 61Q179 34 187 23T219 12H251V0H13V12H48Q71 12 79 23T88 61V364Q88 387 76 397T41 407H10V419H48Q79 419 111 421T179 430V61ZM96 668H172L275 504H263L133 609L5 504H-7L96 668Z"  />
<glyph unicode="&#xEF;" horiz-adv-x="256" d="M179 61Q179 34 187 23T219 12H251V0H13V12H48Q71 12 79 23T88 61V364Q88 387 76 397T41 407H10V419H48Q79 419 111 421T179 430V61ZM-13 571Q-13 593 2 608T38 623Q59 623 74 608T89 571Q89 550 74 535T38 520Q17 520 2 535T-13 571ZM178 571Q178 593 193 608T229 623Q251 623 266 608T281 571Q281 550 266 535T229 520Q208 520 193 535T178 571Z"  />
<glyph unicode="&#xF0;" horiz-adv-x="522" d="M278 628Q375 557 433 464T491 261Q491 216 479 169T439 82T367 19T258 -6Q210 -6 169 10T97 56T49 124T32 208Q32 253 49 293T98 365T170 414T258 433Q296 433 321 422T375 391Q366 451 338 510T256 620L142 574L135 591L241 633Q211 659 178 677L185 687Q205 676 223 665T260 641L354 679L361 662L278 628ZM136 208Q136 101 165 54T258 6Q298 6 323 19T362 59T382 122T387 208Q387 318 355 369T258 420Q195 420 166 370T136 208Z"  />
<glyph unicode="&#xF1;" horiz-adv-x="560" d="M179 297Q223 433 331 433Q369 433 397 421T444 386T472 332T482 263V61Q482 33 491 23T523 12H555V0H316V12H351Q374 12 383 23T392 61V287Q392 347 373 382T316 417Q285 417 260 399T216 351T189 283T179 204V61Q179 34 187 23T219 12H251V0H13V12H48Q71 12 79 23T88 61V363Q88 386 78 396T41 407H10V419H48Q80 419 113 422T179 430V297ZM436 636Q427 520 354 520Q339 520 322 525T285 541Q275 547 264 553T241 566T219 576T199 580Q179 580 166 565T149 520H136Q143 637 220 637Q237 637 254 631T290 613Q313 599 334 588T374 577Q391 577 406 592T424 636H436Z"  />
<glyph unicode="&#xF2;" horiz-adv-x="522" d="M261 -6Q212 -6 170 10T98 56T50 124T32 208Q32 253 50 293T99 365T171 414T261 433Q309 433 351 415T424 367T473 295T491 208Q491 163 473 124T424 56T351 11T261 -6ZM261 420Q195 420 166 370T136 208Q136 101 166 54T261 6Q300 6 324 19T363 59T382 122T387 208Q387 318 356 369T261 420ZM188 598Q167 615 158 626T148 652Q148 667 157 676T180 685Q201 685 215 670T253 615L316 505H304L188 598Z"  />
<glyph unicode="&#xF3;" horiz-adv-x="522" d="M261 -6Q212 -6 170 10T98 56T50 124T32 208Q32 253 50 293T99 365T171 414T261 433Q309 433 351 415T424 367T473 295T491 208Q491 163 473 124T424 56T351 11T261 -6ZM261 420Q195 420 166 370T136 208Q136 101 166 54T261 6Q300 6 324 19T363 59T382 122T387 208Q387 318 356 369T261 420ZM219 505H207L271 615Q294 654 308 669T343 685Q357 685 366 676T375 652Q375 638 366 627T336 598L219 505Z"  />
<glyph unicode="&#xF4;" horiz-adv-x="522" d="M261 -6Q212 -6 170 10T98 56T50 124T32 208Q32 253 50 293T99 365T171 414T261 433Q309 433 351 415T424 367T473 295T491 208Q491 163 473 124T424 56T351 11T261 -6ZM261 420Q195 420 166 370T136 208Q136 101 166 54T261 6Q300 6 324 19T363 59T382 122T387 208Q387 318 356 369T261 420ZM224 668H299L402 504H390L260 609L132 504H120L224 668Z"  />
<glyph unicode="&#xF5;" horiz-adv-x="522" d="M261 -6Q212 -6 170 10T98 56T50 124T32 208Q32 253 50 293T99 365T171 414T261 433Q309 433 351 415T424 367T473 295T491 208Q491 163 473 124T424 56T351 11T261 -6ZM261 420Q195 420 166 370T136 208Q136 101 166 54T261 6Q300 6 324 19T363 59T382 122T387 208Q387 318 356 369T261 420ZM411 636Q402 520 329 520Q314 520 297 525T260 541Q250 547 239 553T216 566T194 576T174 580Q154 580 141 565T124 520H111Q118 637 195 637Q212 637 229 631T265 613Q288 599 309 588T349 577Q366 577 381 592T399 636H411Z"  />
<glyph unicode="&#xF6;" horiz-adv-x="522" d="M261 -6Q212 -6 170 10T98 56T50 124T32 208Q32 253 50 293T99 365T171 414T261 433Q309 433 351 415T424 367T473 295T491 208Q491 163 473 124T424 56T351 11T261 -6ZM261 420Q195 420 166 370T136 208Q136 101 166 54T261 6Q300 6 324 19T363 59T382 122T387 208Q387 318 356 369T261 420ZM114 571Q114 593 129 608T165 623Q187 623 202 608T217 571Q217 550 202 535T165 520Q144 520 129 535T114 571ZM306 571Q306 593 321 608T357 623Q378 623 393 608T408 571Q408 550 393 535T357 520Q336 520 321 535T306 571Z"  />
<glyph unicode="&#xF7;" horiz-adv-x="667" d="M71 341H596V299H71V341ZM289 533Q289 551 301 564T333 577Q351 577 363 564T376 533Q376 514 364 502T333 489Q314 489 302 501T289 533ZM289 107Q289 125 301 138T333 151Q351 151 363 138T376 107Q376 89 364 76T333 63Q314 63 302 76T289 107Z"  />
<glyph unicode="&#xF8;" horiz-adv-x="522" d="M261 -6Q219 -6 183 5T118 39L59 -30L48 -21L107 47Q72 76 52 118T32 208Q32 253 50 293T99 365T171 414T261 433Q301 433 337 421T402 385L464 457L475 447L413 376Q448 345 469 302T491 208Q491 163 473 124T424 56T351 11T261 -6ZM387 208Q387 282 372 330L154 79Q182 6 261 6Q300 6 324 19T363 59T382 122T387 208ZM261 420Q195 420 166 370T136 208Q136 139 148 94L367 345Q338 420 261 420Z"  />
<glyph unicode="&#xF9;" horiz-adv-x="544" d="M545 12V0H507Q475 0 442 -2T376 -10V130Q354 60 318 27T220 -6Q181 -6 154 6T110 41T86 95T78 164V363Q78 386 67 396T30 407H-1V419H37Q69 419 102 422T168 430V139Q168 79 183 44T237 9Q273 9 299 30T343 83T368 156T376 234V363Q376 386 366 396T329 407H297V419H335Q367 419 400 422T467 430V57Q467 34 477 23T514 12H545ZM181 598Q160 615 151 626T141 652Q141 667 150 676T173 685Q194 685 208 670T246 615L309 505H297L181 598Z"  />
<glyph unicode="&#xFA;" horiz-adv-x="544" d="M545 12V0H507Q475 0 442 -2T376 -10V130Q354 60 318 27T220 -6Q181 -6 154 6T110 41T86 95T78 164V363Q78 386 67 396T30 407H-1V419H37Q69 419 102 422T168 430V139Q168 79 183 44T237 9Q273 9 299 30T343 83T368 156T376 234V363Q376 386 366 396T329 407H297V419H335Q367 419 400 422T467 430V57Q467 34 477 23T514 12H545ZM211 505H199L263 615Q286 654 300 669T335 685Q349 685 358 676T367 652Q367 638 358 627T328 598L211 505Z"  />
<glyph unicode="&#xFB;" horiz-adv-x="544" d="M545 12V0H507Q475 0 442 -2T376 -10V130Q354 60 318 27T220 -6Q181 -6 154 6T110 41T86 95T78 164V363Q78 386 67 396T30 407H-1V419H37Q69 419 102 422T168 430V139Q168 79 183 44T237 9Q273 9 299 30T343 83T368 156T376 234V363Q376 386 366 396T329 407H297V419H335Q367 419 400 422T467 430V57Q467 34 477 23T514 12H545ZM217 668H292L395 504H383L253 609L125 504H113L217 668Z"  />
<glyph unicode="&#xFC;" horiz-adv-x="544" d="M545 12V0H507Q475 0 442 -2T376 -10V130Q354 60 318 27T220 -6Q181 -6 154 6T110 41T86 95T78 164V363Q78 386 67 396T30 407H-1V419H37Q69 419 102 422T168 430V139Q168 79 183 44T237 9Q273 9 299 30T343 83T368 156T376 234V363Q376 386 366 396T329 407H297V419H335Q367 419 400 422T467 430V57Q467 34 477 23T514 12H545ZM107 571Q107 593 122 608T158 623Q180 623 195 608T210 571Q210 550 195 535T158 520Q137 520 122 535T107 571ZM299 571Q299 593 314 608T350 623Q371 623 386 608T401 571Q401 550 386 535T350 520Q329 520 314 535T299 571Z"  />
<glyph unicode="&#xFD;" horiz-adv-x="542" d="M547 419V407H531Q489 407 467 383T427 319L249 -111Q221 -178 188 -209T108 -240Q63 -240 36 -219T9 -163Q9 -138 23 -123T61 -108Q83 -108 96 -122T109 -157Q109 -168 106 -176T98 -191T91 -203T87 -214Q87 -228 109 -228Q151 -228 181 -199T235 -112L262 -46L105 333Q91 367 77 387T28 407H-5V419H266V407H221Q187 407 187 378Q187 372 190 366L312 72L399 283Q417 326 417 359Q417 382 402 394T358 407H327V419H547ZM254 505H242L306 615Q329 654 343 669T378 685Q392 685 401 676T410 652Q410 638 401 627T371 598L254 505Z"  />
<glyph unicode="&#xFE;" horiz-adv-x="545" d="M302 -6Q260 -6 226 20T164 109V-173Q164 -199 172 -210T204 -222H236V-234H-2V-222H33Q56 -222 64 -211T73 -173V612Q73 662 21 662H-5V674H10Q26 674 45 674T86 676T127 679T164 684V317Q184 369 218 401T304 433Q350 433 389 415T455 367T498 295T514 208Q514 163 498 124T454 56T387 11T302 -6ZM164 212Q164 172 173 135T200 70T243 24T300 6Q355 6 382 58T410 208Q410 318 383 369T302 420Q267 420 241 403T198 356T173 290T164 212Z"  />
<glyph unicode="&#xFF;" horiz-adv-x="542" d="M547 419V407H531Q489 407 467 383T427 319L249 -111Q221 -178 188 -209T108 -240Q63 -240 36 -219T9 -163Q9 -138 23 -123T61 -108Q83 -108 96 -122T109 -157Q109 -168 106 -176T98 -191T91 -203T87 -214Q87 -228 109 -228Q151 -228 181 -199T235 -112L262 -46L105 333Q91 367 77 387T28 407H-5V419H266V407H221Q187 407 187 378Q187 372 190 366L312 72L399 283Q417 326 417 359Q417 382 402 394T358 407H327V419H547ZM149 571Q149 593 164 608T200 623Q222 623 237 608T252 571Q252 550 237 535T200 520Q179 520 164 535T149 571ZM341 571Q341 593 356 608T392 623Q413 623 428 608T443 571Q443 550 428 535T392 520Q371 520 356 535T341 571Z"  />
<glyph unicode="&#x100;" horiz-adv-x="694" d="M442 228H190Q173 180 164 145T154 95Q154 60 183 36T263 12H289V0H2V12H9Q38 12 59 23T97 54T127 100T151 157L347 685H385L583 104Q594 73 603 55T620 29Q628 22 641 17T673 12H691V0H378V12H462Q481 12 490 21T500 44Q500 59 495 72L442 228ZM198 247H435L321 581L198 247ZM217 819H516V785H217V819Z"  />
<glyph unicode="&#x101;" horiz-adv-x="506" d="M408 -6Q372 -6 346 16T312 96Q287 43 255 19T172 -6Q108 -6 70 24T32 101Q32 134 49 155T92 189T152 211T217 226Q273 238 305 254V330Q305 372 281 395T213 418Q200 418 184 415T155 405T132 389T123 370Q123 363 129 358T144 347T159 330T166 304Q166 284 153 272T120 259Q97 259 83 275T69 312Q69 339 83 361T119 399T171 424T230 433Q395 433 395 297V99Q395 19 432 19Q463 19 476 58T489 160H501Q501 71 480 33T408 -6ZM305 240Q281 229 250 220Q222 212 200 204T162 182T138 146T129 89Q129 57 145 35T198 12Q219 12 238 23T272 54T296 97T305 146V240ZM81 575H380V541H81V575Z"  />
<glyph unicode="&#x102;" horiz-adv-x="694" d="M442 228H190Q173 180 164 145T154 95Q154 60 183 36T263 12H289V0H2V12H9Q38 12 59 23T97 54T127 100T151 157L347 685H385L583 104Q594 73 603 55T620 29Q628 22 641 17T673 12H691V0H378V12H462Q481 12 490 21T500 44Q500 59 495 72L442 228ZM198 247H435L321 581L198 247ZM247 914Q259 876 290 856T366 835Q410 835 441 855T486 914H499Q492 847 457 806T366 765Q310 765 276 806T234 914H247Z"  />
<glyph unicode="&#x103;" horiz-adv-x="506" d="M408 -6Q372 -6 346 16T312 96Q287 43 255 19T172 -6Q108 -6 70 24T32 101Q32 134 49 155T92 189T152 211T217 226Q273 238 305 254V330Q305 372 281 395T213 418Q200 418 184 415T155 405T132 389T123 370Q123 363 129 358T144 347T159 330T166 304Q166 284 153 272T120 259Q97 259 83 275T69 312Q69 339 83 361T119 399T171 424T230 433Q395 433 395 297V99Q395 19 432 19Q463 19 476 58T489 160H501Q501 71 480 33T408 -6ZM305 240Q281 229 250 220Q222 212 200 204T162 182T138 146T129 89Q129 57 145 35T198 12Q219 12 238 23T272 54T296 97T305 146V240ZM111 669Q123 631 154 611T230 590Q274 590 305 610T350 669H363Q356 602 321 561T230 520Q174 520 140 561T98 669H111Z"  />
<glyph unicode="&#x104;" horiz-adv-x="694" d="M378 0V12H462Q481 12 490 21T500 44Q500 59 495 72L442 228H190Q173 180 164 145T154 95Q154 60 183 36T263 12H289V0H2V12H9Q38 12 59 23T97 54T127 100T151 157L347 685H385L583 104Q594 73 603 55T620 29Q628 22 641 17T673 12H691V0H591Q563 -22 542 -40Q532 -49 525 -58T514 -81T507 -111T504 -154Q504 -185 518 -201T554 -218Q571 -218 583 -209T612 -172L623 -178Q605 -210 583 -225T521 -240Q473 -240 445 -218T417 -154Q417 -124 441 -102T502 -51Q523 -35 539 -23T571 0H378ZM198 247H435L321 581L198 247Z"  />
<glyph unicode="&#x105;" horiz-adv-x="506" d="M408 -6Q372 -6 346 16T312 96Q287 43 255 19T172 -6Q108 -6 70 24T32 101Q32 134 49 155T92 189T152 211T217 226Q273 238 305 254V330Q305 372 281 395T213 418Q200 418 184 415T155 405T132 389T123 370Q123 363 129 358T144 347T159 330T166 304Q166 284 153 272T120 259Q97 259 83 275T69 312Q69 339 83 361T119 399T171 424T230 433Q395 433 395 297V99Q395 19 432 19Q463 19 476 58T489 160H501Q501 89 488 51T443 0Q429 -11 418 -20T395 -40Q385 -49 378 -58T366 -81T359 -111T357 -154Q357 -185 370 -201T406 -218Q424 -218 436 -209T464 -172L475 -178Q457 -210 435 -225T374 -240Q326 -240 298 -218T270 -154Q270 -124 293 -102T355 -51Q372 -37 386 -27T415 -6H408ZM305 240Q281 229 250 220Q222 212 200 204T162 182T138 146T129 89Q129 57 145 35T198 12Q219 12 238 23T272 54T296 97T305 146V240Z"  />
<glyph unicode="&#x106;" horiz-adv-x="623" d="M326 687Q433 687 504 571Q530 594 546 624T567 687H578V383H567Q552 439 531 491T481 585T413 650T327 675Q243 675 196 584Q187 566 181 538T171 474T166 396T164 308Q164 270 166 233T174 163T188 104T208 63Q231 31 264 14T341 -4Q391 -4 432 15T504 68T553 147T574 245H586Q584 190 565 142T513 59T437 4T342 -17Q283 -17 230 10T135 83T69 193T44 329Q44 396 66 460T126 575T216 656T326 687ZM269 759H257L321 869Q344 908 358 923T393 939Q407 939 416 930T425 906Q425 892 416 881T386 852L269 759Z"  />
<glyph unicode="&#x107;" horiz-adv-x="442" d="M406 160Q404 84 361 39T248 -6Q204 -6 165 10T96 56T49 124T32 208Q32 253 49 293T97 365T168 414T257 433Q288 433 315 423T361 394T392 353T403 305Q403 279 391 262T354 245Q331 245 319 260T307 293Q307 327 337 342Q346 347 351 350T357 362Q357 372 350 382T329 401T298 414T257 420Q194 420 165 370T136 208Q136 110 166 59T256 7Q285 7 310 18T353 50T382 98T394 160H406ZM209 505H197L261 615Q284 654 298 669T333 685Q347 685 356 676T365 652Q365 638 356 627T326 598L209 505Z"  />
<glyph unicode="&#x108;" horiz-adv-x="623" d="M326 687Q433 687 504 571Q530 594 546 624T567 687H578V383H567Q552 439 531 491T481 585T413 650T327 675Q243 675 196 584Q187 566 181 538T171 474T166 396T164 308Q164 270 166 233T174 163T188 104T208 63Q231 31 264 14T341 -4Q391 -4 432 15T504 68T553 147T574 245H586Q584 190 565 142T513 59T437 4T342 -17Q283 -17 230 10T135 83T69 193T44 329Q44 396 66 460T126 575T216 656T326 687ZM289 912H364L467 748H455L325 853L197 748H185L289 912Z"  />
<glyph unicode="&#x109;" horiz-adv-x="442" d="M406 160Q404 84 361 39T248 -6Q204 -6 165 10T96 56T49 124T32 208Q32 253 49 293T97 365T168 414T257 433Q288 433 315 423T361 394T392 353T403 305Q403 279 391 262T354 245Q331 245 319 260T307 293Q307 327 337 342Q346 347 351 350T357 362Q357 372 350 382T329 401T298 414T257 420Q194 420 165 370T136 208Q136 110 166 59T256 7Q285 7 310 18T353 50T382 98T394 160H406ZM214 668H289L392 504H380L250 609L122 504H110L214 668Z"  />
<glyph unicode="&#x10A;" horiz-adv-x="623" d="M326 687Q433 687 504 571Q530 594 546 624T567 687H578V383H567Q552 439 531 491T481 585T413 650T327 675Q243 675 196 584Q187 566 181 538T171 474T166 396T164 308Q164 270 166 233T174 163T188 104T208 63Q231 31 264 14T341 -4Q391 -4 432 15T504 68T553 147T574 245H586Q584 190 565 142T513 59T437 4T342 -17Q283 -17 230 10T135 83T69 193T44 329Q44 396 66 460T126 575T216 656T326 687ZM284 835Q284 858 300 874T340 891Q363 891 379 875T396 835Q396 812 380 795T340 778Q317 778 301 795T284 835Z"  />
<glyph unicode="&#x10B;" horiz-adv-x="442" d="M406 160Q404 84 361 39T248 -6Q204 -6 165 10T96 56T49 124T32 208Q32 253 49 293T97 365T168 414T257 433Q288 433 315 423T361 394T392 353T403 305Q403 279 391 262T354 245Q331 245 319 260T307 293Q307 327 337 342Q346 347 351 350T357 362Q357 372 350 382T329 401T298 414T257 420Q194 420 165 370T136 208Q136 110 166 59T256 7Q285 7 310 18T353 50T382 98T394 160H406ZM195 580Q195 603 211 619T251 636Q274 636 290 620T307 580Q307 557 291 540T251 523Q228 523 212 540T195 580Z"  />
<glyph unicode="&#x10C;" horiz-adv-x="623" d="M326 687Q433 687 504 571Q530 594 546 624T567 687H578V383H567Q552 439 531 491T481 585T413 650T327 675Q243 675 196 584Q187 566 181 538T171 474T166 396T164 308Q164 270 166 233T174 163T188 104T208 63Q231 31 264 14T341 -4Q391 -4 432 15T504 68T553 147T574 245H586Q584 190 565 142T513 59T437 4T342 -17Q283 -17 230 10T135 83T69 193T44 329Q44 396 66 460T126 575T216 656T326 687ZM369 773H293L190 937H202L332 831L460 937H472L369 773Z"  />
<glyph unicode="&#x10D;" horiz-adv-x="442" d="M406 160Q404 84 361 39T248 -6Q204 -6 165 10T96 56T49 124T32 208Q32 253 49 293T97 365T168 414T257 433Q288 433 315 423T361 394T392 353T403 305Q403 279 391 262T354 245Q331 245 319 260T307 293Q307 327 337 342Q346 347 351 350T357 362Q357 372 350 382T329 401T298 414T257 420Q194 420 165 370T136 208Q136 110 166 59T256 7Q285 7 310 18T353 50T382 98T394 160H406ZM289 519H213L110 683H122L252 577L380 683H392L289 519Z"  />
<glyph unicode="&#x10E;" horiz-adv-x="718" d="M12 674H342Q412 674 473 646T580 571T652 463T679 333Q679 264 651 204T574 98T464 27T336 0H12V12H65Q115 12 115 69V604Q115 662 65 662H12V674ZM242 662Q215 662 215 631V52Q215 12 244 12H339Q401 12 443 40T512 114T550 222T562 349Q562 416 552 473T515 573T443 638T329 662H242ZM350 763H274L171 927H183L313 821L441 927H453L350 763Z"  />
<glyph unicode="&#x10F;" horiz-adv-x="554" d="M510 0Q478 0 445 -2T379 -10V106Q359 51 323 22T239 -7Q192 -7 154 9T89 55T47 124T32 208Q32 253 47 293T90 365T156 414T241 433Q283 433 317 408T379 321V612Q379 662 326 662H278V674H316Q332 674 351 674T392 676T433 679T470 684V57Q470 34 480 23T517 12H548V0H510ZM133 208Q133 101 160 54T241 6Q276 6 302 23T345 68T370 133T379 208Q379 253 370 291T343 358T300 403T243 420Q188 420 161 370T133 208ZM529 470H519L532 589Q537 628 548 646T580 664Q594 664 603 655T612 631Q612 622 607 609T587 570L529 470Z"  />
<glyph unicode="&#x110;" horiz-adv-x="718" d="M24 344H115V604Q115 662 65 662H12V674H342Q412 674 473 646T580 571T652 463T679 333Q679 264 651 204T574 98T464 27T336 0H12V12H65Q115 12 115 69V330H24V344ZM242 662Q215 662 215 631V344H395V330H215V52Q215 12 244 12H339Q401 12 443 40T512 114T550 222T562 349Q562 416 552 473T515 573T443 638T329 662H242Z"  />
<glyph unicode="&#x111;" horiz-adv-x="554" d="M257 550H379V612Q379 662 326 662H278V674H316Q332 674 351 674T392 676T433 679T470 684V550H548V535H470V57Q470 34 480 23T517 12H548V0H510Q478 0 445 -2T379 -10V106Q359 51 323 22T239 -7Q192 -7 154 9T89 55T47 124T32 208Q32 253 47 293T90 365T156 414T241 433Q283 433 317 408T379 321V535H257V550ZM133 208Q133 101 160 54T241 6Q276 6 302 23T345 68T370 133T379 208Q379 253 370 291T343 358T300 403T243 420Q188 420 161 370T133 208Z"  />
<glyph unicode="&#x112;" horiz-adv-x="644" d="M12 674H589V430H578Q553 537 499 599T362 662H238Q215 662 215 629V347H250Q395 347 401 524H413V154H401Q401 199 390 232T360 288T313 322T255 334H215V46Q215 12 246 12H373Q417 12 453 29T516 78T563 151T593 244H604L599 0H12V12H64Q115 12 115 69V604Q115 662 66 662H12V674ZM235 829H534V795H235V829Z"  />
<glyph unicode="&#x113;" horiz-adv-x="491" d="M460 160Q452 121 434 91T388 39T327 6T255 -6Q207 -6 166 10T96 56T49 124T32 208Q32 253 48 293T94 365T163 414T250 433Q293 433 329 417T392 373T435 308T457 228H136V202Q136 105 170 56T265 7Q298 7 328 18T382 49T423 97T448 160H460ZM321 240Q338 240 344 248T350 283Q350 311 343 336T323 380T290 409T248 420Q198 420 167 373T136 240H321ZM100 575H399V541H100V575Z"  />
<glyph unicode="&#x114;" horiz-adv-x="644" d="M12 674H589V430H578Q553 537 499 599T362 662H238Q215 662 215 629V347H250Q395 347 401 524H413V154H401Q401 199 390 232T360 288T313 322T255 334H215V46Q215 12 246 12H373Q417 12 453 29T516 78T563 151T593 244H604L599 0H12V12H64Q115 12 115 69V604Q115 662 66 662H12V674ZM193 914Q205 876 236 856T312 835Q356 835 387 855T432 914H445Q438 847 403 806T312 765Q256 765 222 806T180 914H193Z"  />
<glyph unicode="&#x115;" horiz-adv-x="491" d="M460 160Q452 121 434 91T388 39T327 6T255 -6Q207 -6 166 10T96 56T49 124T32 208Q32 253 48 293T94 365T163 414T250 433Q293 433 329 417T392 373T435 308T457 228H136V202Q136 105 170 56T265 7Q298 7 328 18T382 49T423 97T448 160H460ZM321 240Q338 240 344 248T350 283Q350 311 343 336T323 380T290 409T248 420Q198 420 167 373T136 240H321ZM130 669Q142 631 173 611T249 590Q293 590 324 610T369 669H382Q375 602 340 561T249 520Q193 520 159 561T117 669H130Z"  />
<glyph unicode="&#x116;" horiz-adv-x="644" d="M12 674H589V430H578Q553 537 499 599T362 662H238Q215 662 215 629V347H250Q395 347 401 524H413V154H401Q401 199 390 232T360 288T313 322T255 334H215V46Q215 12 246 12H373Q417 12 453 29T516 78T563 151T593 244H604L599 0H12V12H64Q115 12 115 69V604Q115 662 66 662H12V674ZM336 835Q336 858 352 874T392 891Q415 891 431 875T448 835Q448 812 432 795T392 778Q369 778 353 795T336 835Z"  />
<glyph unicode="&#x117;" horiz-adv-x="491" d="M460 160Q452 121 434 91T388 39T327 6T255 -6Q207 -6 166 10T96 56T49 124T32 208Q32 253 48 293T94 365T163 414T250 433Q293 433 329 417T392 373T435 308T457 228H136V202Q136 105 170 56T265 7Q298 7 328 18T382 49T423 97T448 160H460ZM321 240Q338 240 344 248T350 283Q350 311 343 336T323 380T290 409T248 420Q198 420 167 373T136 240H321ZM193 580Q193 603 209 619T249 636Q272 636 288 620T305 580Q305 557 289 540T249 523Q226 523 210 540T193 580Z"  />
<glyph unicode="&#x118;" horiz-adv-x="644" d="M12 0V12H64Q115 12 115 69V604Q115 662 66 662H12V674H589V430H578Q553 537 499 599T362 662H238Q215 662 215 629V347H250Q395 347 401 524H413V154H401Q401 199 390 232T360 288T313 322T255 334H215V46Q215 12 246 12H373Q417 12 453 29T516 78T563 151T593 244H604L599 0H542Q528 -11 517 -20T494 -40Q484 -49 477 -58T465 -81T458 -111T456 -154Q456 -185 469 -201T505 -218Q522 -218 534 -209T563 -172L574 -178Q556 -210 534 -225T473 -240Q425 -240 397 -218T369 -154Q369 -124 392 -102T454 -51Q474 -35 490 -23T522 0H12Z"  />
<glyph unicode="&#x119;" horiz-adv-x="491" d="M460 160Q452 116 430 83T375 28Q362 19 352 10T331 -8Q321 -17 314 -26T302 -49T295 -79T293 -122Q293 -153 306 -169T342 -186Q360 -186 372 -177T400 -140L411 -146Q393 -178 371 -193T310 -208Q262 -208 234 -186T206 -122Q206 -92 229 -70T291 -19Q299 -13 306 -8T319 2Q287 -6 255 -6Q207 -6 166 10T96 56T49 124T32 208Q32 253 48 293T94 365T163 414T250 433Q293 433 329 417T392 373T435 308T457 228H136V202Q136 105 170 56T265 7Q298 7 328 18T382 49T423 97T448 160H460ZM321 240Q338 240 344 248T350 283Q350 311 343 336T323 380T290 409T248 420Q198 420 167 373T136 240H321Z"  />
<glyph unicode="&#x11A;" horiz-adv-x="644" d="M12 674H589V430H578Q553 537 499 599T362 662H238Q215 662 215 629V347H250Q395 347 401 524H413V154H401Q401 199 390 232T360 288T313 322T255 334H215V46Q215 12 246 12H373Q417 12 453 29T516 78T563 151T593 244H604L599 0H12V12H64Q115 12 115 69V604Q115 662 66 662H12V674ZM422 773H346L243 937H255L385 831L513 937H525L422 773Z"  />
<glyph unicode="&#x11B;" horiz-adv-x="491" d="M460 160Q452 121 434 91T388 39T327 6T255 -6Q207 -6 166 10T96 56T49 124T32 208Q32 253 48 293T94 365T163 414T250 433Q293 433 329 417T392 373T435 308T457 228H136V202Q136 105 170 56T265 7Q298 7 328 18T382 49T423 97T448 160H460ZM321 240Q338 240 344 248T350 283Q350 311 343 336T323 380T290 409T248 420Q198 420 167 373T136 240H321ZM287 519H211L108 683H120L250 577L378 683H390L287 519Z"  />
<glyph unicode="&#x11C;" horiz-adv-x="712" d="M342 683Q463 683 535 572Q570 610 583 683H594L609 370H598Q585 434 563 489T510 584T438 647T346 670Q289 670 253 643T196 569T167 456T159 313Q159 244 166 186T194 85T247 20T334 -4Q370 -4 402 7T458 40T495 96T509 174V229Q509 262 475 262H376V274H708V262H642Q605 262 605 224V-17H595Q586 33 571 66T541 117Q499 52 453 18T337 -17Q269 -17 214 14T120 94T60 202T39 318Q39 383 62 448T127 565T224 650T342 683ZM319 922H394L497 758H485L355 863L227 758H215L319 922Z"  />
<glyph unicode="&#x11D;" horiz-adv-x="510" d="M7 -130Q7 -95 38 -78T140 -51Q85 -42 58 -20T30 46Q30 70 40 86T66 111T104 125T147 130H163Q100 145 68 184T36 271Q36 308 51 338T92 389T151 421T220 433Q272 433 313 408T383 332Q383 337 383 344T382 361Q382 391 398 411T448 432Q476 432 495 416T515 372Q515 352 504 343T478 333Q462 333 452 342T441 368Q441 381 447 385T454 401Q454 417 435 417Q418 417 406 402T394 361Q394 349 396 339T400 318T405 295T407 268Q407 232 391 204T346 156T281 126T204 116Q191 116 177 117T147 118Q112 118 88 107T64 73Q64 37 134 37Q153 37 169 38T202 40T237 42T276 43Q357 43 404 10T451 -92Q451 -131 433 -159T385 -205T316 -231T233 -240Q194 -240 154 -234T81 -215T28 -181T7 -130ZM233 -228Q277 -228 313 -220T375 -197T415 -162T429 -117Q429 -79 396 -65T307 -51Q256 -51 217 -53T151 -61Q111 -69 92 -87T73 -131Q73 -157 86 -175T121 -205T172 -222T233 -228ZM220 420Q125 420 125 267Q125 204 149 167T218 130Q318 130 318 278Q318 420 220 420ZM205 668H280L383 504H371L241 609L113 504H101L205 668Z"  />
<glyph unicode="&#x11E;" horiz-adv-x="712" d="M342 683Q463 683 535 572Q570 610 583 683H594L609 370H598Q585 434 563 489T510 584T438 647T346 670Q289 670 253 643T196 569T167 456T159 313Q159 244 166 186T194 85T247 20T334 -4Q370 -4 402 7T458 40T495 96T509 174V229Q509 262 475 262H376V274H708V262H642Q605 262 605 224V-17H595Q586 33 571 66T541 117Q499 52 453 18T337 -17Q269 -17 214 14T120 94T60 202T39 318Q39 383 62 448T127 565T224 650T342 683ZM232 924Q244 886 275 866T351 845Q395 845 426 865T471 924H484Q477 857 442 816T351 775Q295 775 261 816T219 924H232Z"  />
<glyph unicode="&#x11F;" horiz-adv-x="510" d="M7 -130Q7 -95 38 -78T140 -51Q85 -42 58 -20T30 46Q30 70 40 86T66 111T104 125T147 130H163Q100 145 68 184T36 271Q36 308 51 338T92 389T151 421T220 433Q272 433 313 408T383 332Q383 337 383 344T382 361Q382 391 398 411T448 432Q476 432 495 416T515 372Q515 352 504 343T478 333Q462 333 452 342T441 368Q441 381 447 385T454 401Q454 417 435 417Q418 417 406 402T394 361Q394 349 396 339T400 318T405 295T407 268Q407 232 391 204T346 156T281 126T204 116Q191 116 177 117T147 118Q112 118 88 107T64 73Q64 37 134 37Q153 37 169 38T202 40T237 42T276 43Q357 43 404 10T451 -92Q451 -131 433 -159T385 -205T316 -231T233 -240Q194 -240 154 -234T81 -215T28 -181T7 -130ZM233 -228Q277 -228 313 -220T375 -197T415 -162T429 -117Q429 -79 396 -65T307 -51Q256 -51 217 -53T151 -61Q111 -69 92 -87T73 -131Q73 -157 86 -175T121 -205T172 -222T233 -228ZM220 420Q125 420 125 267Q125 204 149 167T218 130Q318 130 318 278Q318 420 220 420ZM122 669Q134 631 165 611T241 590Q285 590 316 610T361 669H374Q367 602 332 561T241 520Q185 520 151 561T109 669H122Z"  />
<glyph unicode="&#x120;" horiz-adv-x="712" d="M342 683Q463 683 535 572Q570 610 583 683H594L609 370H598Q585 434 563 489T510 584T438 647T346 670Q289 670 253 643T196 569T167 456T159 313Q159 244 166 186T194 85T247 20T334 -4Q370 -4 402 7T458 40T495 96T509 174V229Q509 262 475 262H376V274H708V262H642Q605 262 605 224V-17H595Q586 33 571 66T541 117Q499 52 453 18T337 -17Q269 -17 214 14T120 94T60 202T39 318Q39 383 62 448T127 565T224 650T342 683ZM304 835Q304 858 320 874T360 891Q383 891 399 875T416 835Q416 812 400 795T360 778Q337 778 321 795T304 835Z"  />
<glyph unicode="&#x121;" horiz-adv-x="510" d="M7 -130Q7 -95 38 -78T140 -51Q85 -42 58 -20T30 46Q30 70 40 86T66 111T104 125T147 130H163Q100 145 68 184T36 271Q36 308 51 338T92 389T151 421T220 433Q272 433 313 408T383 332Q383 337 383 344T382 361Q382 391 398 411T448 432Q476 432 495 416T515 372Q515 352 504 343T478 333Q462 333 452 342T441 368Q441 381 447 385T454 401Q454 417 435 417Q418 417 406 402T394 361Q394 349 396 339T400 318T405 295T407 268Q407 232 391 204T346 156T281 126T204 116Q191 116 177 117T147 118Q112 118 88 107T64 73Q64 37 134 37Q153 37 169 38T202 40T237 42T276 43Q357 43 404 10T451 -92Q451 -131 433 -159T385 -205T316 -231T233 -240Q194 -240 154 -234T81 -215T28 -181T7 -130ZM233 -228Q277 -228 313 -220T375 -197T415 -162T429 -117Q429 -79 396 -65T307 -51Q256 -51 217 -53T151 -61Q111 -69 92 -87T73 -131Q73 -157 86 -175T121 -205T172 -222T233 -228ZM220 420Q125 420 125 267Q125 204 149 167T218 130Q318 130 318 278Q318 420 220 420ZM186 580Q186 603 202 619T242 636Q265 636 281 620T298 580Q298 557 282 540T242 523Q219 523 203 540T186 580Z"  />
<glyph unicode="&#x122;" horiz-adv-x="712" d="M342 683Q463 683 535 572Q570 610 583 683H594L609 370H598Q585 434 563 489T510 584T438 647T346 670Q289 670 253 643T196 569T167 456T159 313Q159 244 166 186T194 85T247 20T334 -4Q370 -4 402 7T458 40T495 96T509 174V229Q509 262 475 262H376V274H708V262H642Q605 262 605 224V-17H595Q586 33 571 66T541 117Q499 52 453 18T337 -17Q269 -17 214 14T120 94T60 202T39 318Q39 383 62 448T127 565T224 650T342 683ZM299 -229Q331 -213 346 -193T362 -153Q362 -142 352 -142Q347 -142 343 -144T326 -146Q308 -146 295 -134T282 -105Q282 -84 295 -70T325 -56Q354 -56 366 -75T379 -130Q379 -168 361 -194T305 -240L299 -229Z"  />
<glyph unicode="&#x123;" horiz-adv-x="510" d="M7 -130Q7 -95 38 -78T140 -51Q85 -42 58 -20T30 46Q30 70 40 86T66 111T104 125T147 130H163Q100 145 68 184T36 271Q36 308 51 338T92 389T151 421T220 433Q272 433 313 408T383 332Q383 337 383 344T382 361Q382 391 398 411T448 432Q476 432 495 416T515 372Q515 352 504 343T478 333Q462 333 452 342T441 368Q441 381 447 385T454 401Q454 417 435 417Q418 417 406 402T394 361Q394 349 396 339T400 318T405 295T407 268Q407 232 391 204T346 156T281 126T204 116Q191 116 177 117T147 118Q112 118 88 107T64 73Q64 37 134 37Q153 37 169 38T202 40T237 42T276 43Q357 43 404 10T451 -92Q451 -131 433 -159T385 -205T316 -231T233 -240Q194 -240 154 -234T81 -215T28 -181T7 -130ZM233 -228Q277 -228 313 -220T375 -197T415 -162T429 -117Q429 -79 396 -65T307 -51Q256 -51 217 -53T151 -61Q111 -69 92 -87T73 -131Q73 -157 86 -175T121 -205T172 -222T233 -228ZM220 420Q125 420 125 267Q125 204 149 167T218 130Q318 130 318 278Q318 420 220 420ZM262 697Q233 680 219 661T204 621Q204 609 213 609Q220 609 225 611T244 614Q263 614 276 602T289 572Q289 551 276 537T246 523Q214 523 201 544T187 603Q187 668 255 708L262 697Z"  />
<glyph unicode="&#x124;" horiz-adv-x="730" d="M12 674H315V662H265Q215 662 215 604V358H516V604Q516 662 466 662H413V674H718V662H666Q616 662 616 604V70Q616 12 666 12H718V0H413V12H466Q516 12 516 70V340H215V70Q215 12 265 12H315V0H12V12H65Q115 12 115 70V604Q115 662 65 662H12V674ZM328 922H403L506 758H494L364 863L236 758H224L328 922Z"  />
<glyph unicode="&#x125;" horiz-adv-x="560" d="M179 297Q223 433 331 433Q369 433 397 421T444 386T472 332T482 263V61Q482 33 491 23T523 12H555V0H316V12H351Q374 12 383 23T392 61V287Q392 347 373 382T316 417Q285 417 260 399T216 351T189 283T179 204V61Q179 34 187 23T219 12H251V0H13V12H48Q71 12 79 23T88 61V617Q88 640 78 651T41 662H10V674H48Q80 674 113 676T179 684V297ZM215 912H290L393 748H381L251 853L123 748H111L215 912Z"  />
<glyph unicode="&#x126;" horiz-adv-x="730" d="M12 674H315V662H265Q215 662 215 604V518H516V604Q516 662 466 662H413V674H718V662H666Q616 662 616 604V518H682V503H616V70Q616 12 666 12H718V0H413V12H466Q516 12 516 70V340H215V70Q215 12 265 12H315V0H12V12H65Q115 12 115 70V503H48V518H115V604Q115 662 65 662H12V674ZM516 358V503H215V358H516Z"  />
<glyph unicode="&#x127;" horiz-adv-x="560" d="M179 550H301V535H179V297Q223 433 331 433Q369 433 397 421T444 386T472 332T482 263V61Q482 33 491 23T523 12H555V0H316V12H351Q374 12 383 23T392 61V287Q392 347 373 382T316 417Q285 417 260 399T216 351T189 283T179 204V61Q179 34 187 23T219 12H251V0H13V12H48Q71 12 79 23T88 61V535H10V550H88V617Q88 640 78 651T41 662H10V674H48Q80 674 113 676T179 684V550Z"  />
<glyph unicode="&#x128;" horiz-adv-x="330" d="M12 12H65Q115 12 115 69V604Q115 662 65 662H12V674H317V662H265Q215 662 215 604V69Q215 12 265 12H317V0H12V12ZM315 880Q306 764 233 764Q218 764 201 769T164 785Q154 791 143 797T120 810T98 820T78 824Q58 824 45 809T28 764H15Q22 881 99 881Q116 881 133 875T169 857Q192 843 213 832T253 821Q270 821 285 836T303 880H315Z"  />
<glyph unicode="&#x129;" horiz-adv-x="256" d="M179 61Q179 34 187 23T219 12H251V0H13V12H48Q71 12 79 23T88 61V364Q88 387 76 397T41 407H10V419H48Q79 419 111 421T179 430V61ZM284 636Q275 520 201 520Q186 520 170 525T133 541Q123 547 112 553T89 566T66 576T46 580Q27 580 14 565T-4 520H-16Q-10 637 68 637Q85 637 102 631T138 613Q161 599 182 588T221 577Q238 577 253 592T271 636H284Z"  />
<glyph unicode="&#x12A;" horiz-adv-x="330" d="M12 12H65Q115 12 115 69V604Q115 662 65 662H12V674H317V662H265Q215 662 215 604V69Q215 12 265 12H317V0H12V12ZM16 819H315V785H16V819Z"  />
<glyph unicode="&#x12B;" horiz-adv-x="256" d="M179 61Q179 34 187 23T219 12H251V0H13V12H48Q71 12 79 23T88 61V364Q88 387 76 397T41 407H10V419H48Q79 419 111 421T179 430V61ZM-16 575H283V541H-16V575Z"  />
<glyph unicode="&#x12C;" horiz-adv-x="330" d="M12 12H65Q115 12 115 69V604Q115 662 65 662H12V674H317V662H265Q215 662 215 604V69Q215 12 265 12H317V0H12V12ZM46 914Q58 876 89 856T165 835Q209 835 240 855T285 914H298Q291 847 256 806T165 765Q109 765 75 806T33 914H46Z"  />
<glyph unicode="&#x12D;" horiz-adv-x="256" d="M179 61Q179 34 187 23T219 12H251V0H13V12H48Q71 12 79 23T88 61V364Q88 387 76 397T41 407H10V419H48Q79 419 111 421T179 430V61ZM14 669Q26 631 58 611T134 590Q177 590 208 610T253 669H266Q260 602 225 561T134 520Q78 520 44 561T1 669H14Z"  />
<glyph unicode="&#x12E;" horiz-adv-x="330" d="M12 12H65Q115 12 115 69V604Q115 662 65 662H12V674H317V662H265Q215 662 215 604V69Q215 12 265 12H317V0H218Q190 -22 169 -40Q159 -49 152 -58T140 -81T133 -111T131 -154Q131 -185 144 -201T180 -218Q198 -218 210 -209T238 -172L249 -178Q231 -210 209 -225T148 -240Q100 -240 72 -218T44 -154Q44 -124 67 -102T129 -51Q149 -35 165 -23T198 0H12V12Z"  />
<glyph unicode="&#x12F;" horiz-adv-x="256" d="M13 0V12H48Q71 12 79 23T88 61V364Q88 387 76 397T41 407H10V419H48Q79 419 111 421T179 430V61Q179 34 187 23T219 12H251V0H189Q175 -11 164 -20T141 -40Q131 -49 124 -58T112 -81T105 -111T103 -154Q103 -185 116 -201T152 -218Q169 -218 181 -209T210 -172L221 -178Q203 -210 181 -225T120 -240Q72 -240 44 -218T16 -154Q16 -124 39 -102T101 -51Q121 -35 137 -23T169 0H13ZM76 573Q76 596 92 612T132 629Q155 629 171 613T188 573Q188 550 172 534T132 517Q109 517 93 533T76 573Z"  />
<glyph unicode="&#x130;" horiz-adv-x="330" d="M12 12H65Q115 12 115 69V604Q115 662 65 662H12V674H317V662H265Q215 662 215 604V69Q215 12 265 12H317V0H12V12ZM109 825Q109 848 125 864T165 881Q188 881 204 865T221 825Q221 802 205 785T165 768Q142 768 126 785T109 825Z"  />
<glyph unicode="&#x131;" horiz-adv-x="264" d="M179 61Q179 34 187 23T219 12H251V0H13V12H48Q71 12 79 23T88 61V364Q88 387 76 397T41 407H10V419H48Q79 419 111 421T179 430V61Z"  />
<glyph unicode="&#x132;" horiz-adv-x="832" d="M12 12H65Q115 12 115 69V604Q115 662 65 662H12V674H317V662H265Q215 662 215 604V69Q215 12 265 12H317V0H12V12ZM827 674V662H775Q725 662 725 604V213Q725 162 710 119T668 45T602 -3T516 -21Q480 -21 447 -9T389 25T349 77T334 144Q334 179 351 205T401 232Q428 232 445 213T463 167Q463 140 451 126T425 104T398 89T386 71Q386 55 397 41T426 16T467 -1T515 -8Q575 -8 600 27T625 134V604Q625 662 575 662H522V674H827Z"  />
<glyph unicode="&#x133;" horiz-adv-x="523" d="M179 61Q179 34 187 23T219 12H251V0H13V12H48Q71 12 79 23T88 61V364Q88 387 76 397T41 407H10V419H48Q79 419 111 421T179 430V61ZM76 573Q76 596 92 612T132 629Q155 629 171 613T188 573Q188 550 172 534T132 517Q109 517 93 533T76 573ZM319 419Q350 419 382 421T450 430V-78Q450 -108 442 -137T416 -189T373 -226T312 -240Q294 -240 276 -235T244 -219T221 -192T212 -156Q212 -134 224 -121T260 -107Q280 -107 291 -118T302 -147Q302 -163 297 -172T285 -188T274 -198T268 -207Q268 -216 281 -222T312 -228Q340 -228 349 -211T359 -146V364Q359 387 347 397T312 407H281V419H319ZM347 573Q347 596 363 612T403 629Q426 629 442 613T459 573Q459 550 443 534T403 517Q380 517 364 533T347 573Z"  />
<glyph unicode="&#x134;" horiz-adv-x="502" d="M498 674V662H445Q395 662 395 604V213Q395 162 380 119T338 45T273 -3T187 -21Q150 -21 117 -9T59 25T20 77T5 144Q5 179 22 205T72 232Q98 232 115 213T133 167Q133 140 121 126T95 104T68 89T56 71Q56 55 67 41T96 16T138 -1T185 -8Q246 -8 270 27T295 134V604Q295 662 245 662H192V674H498ZM308 912H383L486 748H474L344 853L216 748H204L308 912Z"  />
<glyph unicode="&#x135;" horiz-adv-x="251" d="M47 419Q78 419 110 421T179 430V-78Q179 -108 171 -137T145 -189T102 -226T41 -240Q23 -240 5 -235T-27 -219T-50 -192T-59 -156Q-59 -134 -47 -121T-11 -107Q9 -107 20 -118T31 -147Q31 -163 26 -172T14 -188T3 -198T-3 -207Q-3 -216 10 -222T41 -228Q68 -228 78 -211T88 -146V364Q88 387 75 397T41 407H9V419H47ZM88 668H164L267 504H255L125 609L-3 504H-15L88 668Z"  />
<glyph unicode="&#x136;" horiz-adv-x="763" d="M713 674V662H693Q632 662 584 635T486 557L370 440L611 98Q638 60 671 36T742 12H760V0H422V12H498Q524 12 524 35Q524 49 513 64L298 368L215 284V69Q215 12 265 12H317V0H12V12H65Q115 12 115 69V604Q115 662 65 662H12V674H317V662H265Q215 662 215 604V302L444 532Q489 577 489 611Q489 635 473 648T429 662H408V674H713ZM334 -229Q366 -213 381 -193T397 -153Q397 -142 387 -142Q382 -142 378 -144T361 -146Q343 -146 330 -134T317 -105Q317 -84 330 -70T360 -56Q389 -56 401 -75T414 -130Q414 -168 396 -194T340 -240L334 -229Z"  />
<glyph unicode="&#x137;" horiz-adv-x="549" d="M179 158L335 315Q361 340 361 366Q361 383 343 395T285 407H260V419H527V407H513Q444 407 368 331L313 276L468 59Q483 37 501 25T539 12H555V0H305V12H347Q372 12 372 30Q372 35 369 40T363 51L249 211L179 142V61Q179 34 187 23T219 12H251V0H13V12H48Q71 12 79 23T88 61V618Q88 641 76 651T41 662H10V674H48Q79 674 111 676T179 684V158ZM240 -229Q272 -213 287 -193T303 -153Q303 -142 293 -142Q288 -142 284 -144T267 -146Q249 -146 236 -134T223 -105Q223 -84 236 -70T266 -56Q295 -56 307 -75T320 -130Q320 -168 302 -194T246 -240L240 -229Z"  />
<glyph unicode="&#x138;" horiz-adv-x="549" d="M179 158L335 315Q361 340 361 366Q361 383 343 395T285 407H260V419H527V407H513Q444 407 368 331L313 276L468 59Q483 37 501 25T539 12H555V0H305V12H347Q372 12 372 30Q372 35 369 40T363 51L249 211L179 142V61Q179 34 187 23T219 12H251V0H13V12H48Q71 12 79 23T88 61V364Q88 387 76 397T41 407H10V419H48Q79 419 111 421T179 430V158Z"  />
<glyph unicode="&#x139;" horiz-adv-x="599" d="M12 12H60Q86 12 100 26T115 69V604Q115 633 101 647T60 662H14V674H310V662H265Q215 662 215 604V64Q215 12 257 12H328Q374 12 414 32T485 87T539 167T573 264H584L576 0H12V12ZM122 749H110L174 859Q197 898 211 913T246 929Q260 929 269 920T278 896Q278 882 269 871T239 842L122 749Z"  />
<glyph unicode="&#x13A;" horiz-adv-x="264" d="M179 61Q179 34 187 23T219 12H251V0H13V12H48Q71 12 79 23T88 61V618Q88 641 76 651T41 662H10V674H48Q79 674 111 676T179 684V61ZM91 749H79L143 859Q166 898 180 913T215 929Q229 929 238 920T247 896Q247 882 238 871T208 842L91 749Z"  />
<glyph unicode="&#x13B;" horiz-adv-x="599" d="M12 12H60Q86 12 100 26T115 69V604Q115 633 101 647T60 662H14V674H310V662H265Q215 662 215 604V64Q215 12 257 12H328Q374 12 414 32T485 87T539 167T573 264H584L576 0H12V12ZM262 -229Q294 -213 309 -193T325 -153Q325 -142 315 -142Q310 -142 306 -144T289 -146Q271 -146 258 -134T245 -105Q245 -84 258 -70T288 -56Q317 -56 329 -75T342 -130Q342 -168 324 -194T268 -240L262 -229Z"  />
<glyph unicode="&#x13C;" horiz-adv-x="264" d="M179 61Q179 34 187 23T219 12H251V0H13V12H48Q71 12 79 23T88 61V618Q88 641 76 651T41 662H10V674H48Q79 674 111 676T179 684V61ZM103 -229Q135 -213 150 -193T166 -153Q166 -142 156 -142Q151 -142 147 -144T130 -146Q112 -146 99 -134T86 -105Q86 -84 99 -70T129 -56Q158 -56 170 -75T183 -130Q183 -168 165 -194T109 -240L103 -229Z"  />
<glyph unicode="&#x13D;" horiz-adv-x="599" d="M12 12H60Q86 12 100 26T115 69V604Q115 633 101 647T60 662H14V674H310V662H265Q215 662 215 604V64Q215 12 257 12H328Q374 12 414 32T485 87T539 167T573 264H584L576 0H12V12ZM323 470H312L326 589Q331 628 342 646T374 664Q388 664 397 655T406 631Q406 622 401 609T381 570L323 470Z"  />
<glyph unicode="&#x13E;" horiz-adv-x="264" d="M179 61Q179 34 187 23T219 12H251V0H13V12H48Q71 12 79 23T88 61V618Q88 641 76 651T41 662H10V674H48Q79 674 111 676T179 684V61ZM239 470H228L241 589Q246 628 257 646T290 664Q304 664 312 655T321 631Q321 622 316 609T297 570L239 470Z"  />
<glyph unicode="&#x13F;" horiz-adv-x="618" d="M12 12H60Q86 12 100 26T115 69V604Q115 633 101 647T60 662H14V674H310V662H265Q215 662 215 604V64Q215 12 257 12H328Q374 12 414 32T485 87T539 167T573 264H584L576 0H12V12ZM527 443Q527 422 512 407T474 391Q452 391 437 406T421 443Q421 465 436 480T474 496Q496 496 511 481T527 443Z"  />
<glyph unicode="&#x140;" horiz-adv-x="392" d="M179 61Q179 34 187 23T219 12H251V0H13V12H48Q71 12 79 23T88 61V618Q88 641 76 651T41 662H10V674H48Q79 674 111 676T179 684V61ZM382 332Q382 310 367 295T330 279Q307 279 292 294T277 332Q277 354 292 369T330 385Q351 385 366 370T382 332Z"  />
<glyph unicode="&#x141;" horiz-adv-x="599" d="M12 12H60Q86 12 100 26T115 69V292L12 208V228L115 312V604Q115 633 101 647T60 662H14V674H310V662H265Q215 662 215 604V393L377 526V507L215 375V64Q215 12 257 12H328Q374 12 414 32T485 87T539 167T573 264H584L576 0H12V12Z"  />
<glyph unicode="&#x142;" horiz-adv-x="264" d="M179 414L243 465V446L179 395V61Q179 34 187 23T219 12H251V0H13V12H48Q71 12 79 23T88 61V320L25 269V288L88 339V618Q88 641 76 651T41 662H10V674H48Q79 674 111 676T179 684V414Z"  />
<glyph unicode="&#x143;" horiz-adv-x="701" d="M12 674H194L568 130V455Q568 503 563 541T545 606T507 647T444 662H426V674H696V662H676Q640 662 621 643T592 594T582 527T580 455V-23H552L137 581V215Q137 114 162 63T257 12H290V0H12V12H32Q55 12 72 21T101 54T119 117T125 215V513Q125 554 122 582T109 628T82 654T35 662H12V674ZM285 749H273L337 859Q360 898 374 913T409 929Q423 929 432 920T441 896Q441 882 432 871T402 842L285 749Z"  />
<glyph unicode="&#x144;" horiz-adv-x="560" d="M179 297Q223 433 331 433Q369 433 397 421T444 386T472 332T482 263V61Q482 33 491 23T523 12H555V0H316V12H351Q374 12 383 23T392 61V287Q392 347 373 382T316 417Q285 417 260 399T216 351T189 283T179 204V61Q179 34 187 23T219 12H251V0H13V12H48Q71 12 79 23T88 61V363Q88 386 78 396T41 407H10V419H48Q80 419 113 422T179 430V297ZM243 505H231L295 615Q318 654 332 669T367 685Q381 685 390 676T399 652Q399 638 390 627T360 598L243 505Z"  />
<glyph unicode="&#x145;" horiz-adv-x="701" d="M12 674H194L568 130V455Q568 503 563 541T545 606T507 647T444 662H426V674H696V662H676Q640 662 621 643T592 594T582 527T580 455V-23H552L137 581V215Q137 114 162 63T257 12H290V0H12V12H32Q55 12 72 21T101 54T119 117T125 215V513Q125 554 122 582T109 628T82 654T35 662H12V674ZM321 -229Q353 -213 368 -193T384 -153Q384 -142 374 -142Q369 -142 365 -144T348 -146Q330 -146 317 -134T304 -105Q304 -84 317 -70T347 -56Q376 -56 388 -75T401 -130Q401 -168 383 -194T327 -240L321 -229Z"  />
<glyph unicode="&#x146;" horiz-adv-x="560" d="M179 297Q223 433 331 433Q369 433 397 421T444 386T472 332T482 263V61Q482 33 491 23T523 12H555V0H316V12H351Q374 12 383 23T392 61V287Q392 347 373 382T316 417Q285 417 260 399T216 351T189 283T179 204V61Q179 34 187 23T219 12H251V0H13V12H48Q71 12 79 23T88 61V363Q88 386 78 396T41 407H10V419H48Q80 419 113 422T179 430V297ZM246 -229Q278 -213 293 -193T309 -153Q309 -142 299 -142Q294 -142 290 -144T273 -146Q255 -146 242 -134T229 -105Q229 -84 242 -70T272 -56Q301 -56 313 -75T326 -130Q326 -168 308 -194T252 -240L246 -229Z"  />
<glyph unicode="&#x147;" horiz-adv-x="701" d="M12 674H194L568 130V455Q568 503 563 541T545 606T507 647T444 662H426V674H696V662H676Q640 662 621 643T592 594T582 527T580 455V-23H552L137 581V215Q137 114 162 63T257 12H290V0H12V12H32Q55 12 72 21T101 54T119 117T125 215V513Q125 554 122 582T109 628T82 654T35 662H12V674ZM366 763H290L187 927H199L329 821L457 927H469L366 763Z"  />
<glyph unicode="&#x148;" horiz-adv-x="560" d="M179 297Q223 433 331 433Q369 433 397 421T444 386T472 332T482 263V61Q482 33 491 23T523 12H555V0H316V12H351Q374 12 383 23T392 61V287Q392 347 373 382T316 417Q285 417 260 399T216 351T189 283T179 204V61Q179 34 187 23T219 12H251V0H13V12H48Q71 12 79 23T88 61V363Q88 386 78 396T41 407H10V419H48Q80 419 113 422T179 430V297ZM324 519H248L145 683H157L287 577L415 683H427L324 519Z"  />
<glyph unicode="&#x149;" horiz-adv-x="696" d="M39 439Q86 465 110 501T135 578Q135 597 124 597Q116 597 108 590T82 582Q63 582 50 597T37 633Q37 654 50 668T84 682Q100 682 112 674T132 653T144 622T148 586Q148 536 124 498T45 429L39 439ZM315 297Q359 433 467 433Q505 433 533 421T581 386T609 332T619 263V61Q619 33 627 23T659 12H691V0H452V12H487Q511 12 519 23T528 61V287Q528 347 509 382T452 417Q421 417 396 399T352 351T325 283T315 204V61Q315 34 323 23T355 12H387V0H149V12H184Q207 12 216 23T225 61V363Q225 386 214 396T177 407H146V419H184Q216 419 249 422T315 430V297Z"  />
<glyph unicode="&#x14A;" horiz-adv-x="701" d="M12 674H194L568 130V455Q568 503 563 541T545 606T507 647T444 662H426V674H696V662H676Q640 662 621 643T592 594T582 527T580 455V-78Q580 -108 573 -137T550 -189T512 -226T458 -240Q440 -240 422 -235T389 -219T366 -192T357 -156Q357 -134 369 -121T404 -107Q424 -107 435 -118T447 -147Q447 -162 443 -170T434 -184T424 -194T420 -204Q420 -215 430 -221T457 -228Q484 -228 494 -211T504 -147V46L137 581V215Q137 114 162 63T257 12H290V0H12V12H32Q55 12 72 21T101 54T119 117T125 215V513Q125 554 122 582T109 628T82 654T35 662H12V674Z"  />
<glyph unicode="&#x14B;" horiz-adv-x="550" d="M48 419Q80 419 113 422T179 430V297Q223 433 331 433Q369 433 397 421T444 386T472 332T482 263V-78Q482 -108 474 -137T448 -189T406 -226T345 -240Q327 -240 309 -235T277 -219T254 -192T245 -156Q245 -134 257 -121T292 -107Q312 -107 323 -118T334 -147Q334 -163 329 -172T317 -188T306 -198T300 -207Q300 -216 313 -222T344 -228Q372 -228 382 -211T392 -146V287Q392 347 373 382T316 417Q285 417 260 399T216 351T189 283T179 204V61Q179 34 187 23T219 12H251V0H13V12H48Q71 12 79 23T88 61V363Q88 386 78 396T41 407H10V419H48Z"  />
<glyph unicode="&#x14C;" horiz-adv-x="698" d="M39 330Q39 397 62 460T128 573T227 653T350 683Q417 683 473 653T571 573T635 460T659 330Q659 263 636 201T571 90T473 12T350 -17Q278 -17 221 14T123 96T61 208T39 330ZM522 545Q505 606 461 638T350 670Q284 670 237 638T174 543Q167 512 164 456T160 331Q160 262 163 207T175 121Q192 57 236 27T349 -4Q420 -4 465 29T524 128Q531 161 534 217T538 341Q538 407 534 461T522 545ZM200 819H499V785H200V819Z"  />
<glyph unicode="&#x14D;" horiz-adv-x="522" d="M261 -6Q212 -6 170 10T98 56T50 124T32 208Q32 253 50 293T99 365T171 414T261 433Q309 433 351 415T424 367T473 295T491 208Q491 163 473 124T424 56T351 11T261 -6ZM261 420Q195 420 166 370T136 208Q136 101 166 54T261 6Q300 6 324 19T363 59T382 122T387 208Q387 318 356 369T261 420ZM112 575H411V541H112V575Z"  />
<glyph unicode="&#x14E;" horiz-adv-x="698" d="M39 330Q39 397 62 460T128 573T227 653T350 683Q417 683 473 653T571 573T635 460T659 330Q659 263 636 201T571 90T473 12T350 -17Q278 -17 221 14T123 96T61 208T39 330ZM522 545Q505 606 461 638T350 670Q284 670 237 638T174 543Q167 512 164 456T160 331Q160 262 163 207T175 121Q192 57 236 27T349 -4Q420 -4 465 29T524 128Q531 161 534 217T538 341Q538 407 534 461T522 545ZM230 914Q242 876 273 856T349 835Q393 835 424 855T469 914H482Q475 847 440 806T349 765Q293 765 259 806T217 914H230Z"  />
<glyph unicode="&#x14F;" horiz-adv-x="522" d="M261 -6Q212 -6 170 10T98 56T50 124T32 208Q32 253 50 293T99 365T171 414T261 433Q309 433 351 415T424 367T473 295T491 208Q491 163 473 124T424 56T351 11T261 -6ZM261 420Q195 420 166 370T136 208Q136 101 166 54T261 6Q300 6 324 19T363 59T382 122T387 208Q387 318 356 369T261 420ZM142 669Q154 631 185 611T261 590Q305 590 336 610T381 669H394Q387 602 352 561T261 520Q205 520 171 561T129 669H142Z"  />
<glyph unicode="&#x150;" horiz-adv-x="698" d="M39 330Q39 397 62 460T128 573T227 653T350 683Q417 683 473 653T571 573T635 460T659 330Q659 263 636 201T571 90T473 12T350 -17Q278 -17 221 14T123 96T61 208T39 330ZM522 545Q505 606 461 638T350 670Q284 670 237 638T174 543Q167 512 164 456T160 331Q160 262 163 207T175 121Q192 57 236 27T349 -4Q420 -4 465 29T524 128Q531 161 534 217T538 341Q538 407 534 461T522 545ZM397 749H383L446 873Q460 902 473 917T503 932Q519 932 529 922T539 896Q539 885 530 873T504 844L397 749ZM260 749H248L310 873Q325 902 338 917T368 932Q383 932 393 922T403 896Q403 875 368 844L260 749Z"  />
<glyph unicode="&#x151;" horiz-adv-x="522" d="M261 -6Q212 -6 170 10T98 56T50 124T32 208Q32 253 50 293T99 365T171 414T261 433Q309 433 351 415T424 367T473 295T491 208Q491 163 473 124T424 56T351 11T261 -6ZM261 420Q195 420 166 370T136 208Q136 101 166 54T261 6Q300 6 324 19T363 59T382 122T387 208Q387 318 356 369T261 420ZM309 505H295L358 629Q372 658 385 673T415 688Q431 688 441 678T451 652Q451 641 442 629T416 600L309 505ZM172 505H160L222 629Q237 658 250 673T280 688Q295 688 305 678T315 652Q315 631 280 600L172 505Z"  />
<glyph unicode="&#x152;" horiz-adv-x="1066" d="M502 0Q479 0 439 -8T350 -17Q278 -17 221 15T123 99T61 212T39 333Q39 400 62 464T128 577T227 657T350 687Q397 687 428 681T477 674H1012V430H1001Q976 537 922 599T785 662H661Q638 662 638 629V347H672Q818 347 824 524H836V154H824Q824 199 813 232T783 288T736 322T678 334H638V46Q638 12 669 12H796Q840 12 876 29T939 78T986 151T1016 244H1027L1021 0H502ZM176 132Q192 67 236 32T349 -4Q417 -4 455 16T511 80T534 188T538 344Q538 428 533 490T509 594T453 655T350 675Q284 675 237 638T174 538Q167 507 164 455T160 333Q160 266 164 214T176 132Z"  />
<glyph unicode="&#x153;" horiz-adv-x="846" d="M815 160Q807 121 789 91T743 39T682 6T610 -6Q556 -6 511 17T437 79Q407 40 361 17T261 -6Q212 -6 170 10T98 56T50 124T32 208Q32 253 50 293T99 365T171 414T261 433Q315 433 361 408T437 342Q466 383 508 408T604 433Q647 433 683 417T747 373T790 308T812 228H491V202Q491 105 525 56T620 7Q653 7 683 18T737 49T778 97T803 160H815ZM261 420Q195 420 166 370T136 208Q136 101 166 54T261 6Q300 6 324 19T363 59T382 122T387 208Q387 318 356 369T261 420ZM676 240Q693 240 699 248T705 283Q705 311 698 336T678 380T645 409T603 420Q553 420 522 373T491 240H676Z"  />
<glyph unicode="&#x154;" horiz-adv-x="693" d="M12 12H65Q115 12 115 69V604Q115 662 65 662H12V674H328Q381 674 428 663T510 631T566 578T587 506Q587 470 568 442T517 392T444 358T359 338Q409 327 445 308T507 259T545 184T564 79Q567 24 604 24Q625 24 640 61T656 164V218H668V179Q668 91 648 43T572 -6Q510 -6 482 35T449 145Q446 197 435 233T400 291T341 324T254 334H215V69Q215 12 265 12H317V0H12V12ZM265 662Q215 662 215 604V347H295Q379 347 425 387T472 507Q472 585 427 623T304 662H265ZM267 749H255L319 859Q342 898 356 913T391 929Q405 929 414 920T423 896Q423 882 414 871T384 842L267 749Z"  />
<glyph unicode="&#x155;" horiz-adv-x="412" d="M179 300Q202 370 236 401T310 433Q328 433 344 426T373 408T393 381T401 348Q401 321 387 306T350 290Q327 290 311 304T295 339Q295 354 300 362T312 377T324 389T330 402Q330 419 306 419Q280 419 257 402T216 355T189 282T179 191V61Q179 34 187 23T219 12H251V0H13V12H48Q71 12 79 23T88 61V364Q88 387 76 397T41 407H10V419H48Q79 419 111 421T179 430V300ZM174 505H162L226 615Q249 654 263 669T298 685Q312 685 321 676T330 652Q330 638 321 627T291 598L174 505Z"  />
<glyph unicode="&#x156;" horiz-adv-x="693" d="M12 12H65Q115 12 115 69V604Q115 662 65 662H12V674H328Q381 674 428 663T510 631T566 578T587 506Q587 470 568 442T517 392T444 358T359 338Q409 327 445 308T507 259T545 184T564 79Q567 24 604 24Q625 24 640 61T656 164V218H668V179Q668 91 648 43T572 -6Q510 -6 482 35T449 145Q446 197 435 233T400 291T341 324T254 334H215V69Q215 12 265 12H317V0H12V12ZM265 662Q215 662 215 604V347H295Q379 347 425 387T472 507Q472 585 427 623T304 662H265ZM343 -229Q375 -213 390 -193T406 -153Q406 -142 396 -142Q391 -142 387 -144T370 -146Q352 -146 339 -134T326 -105Q326 -84 339 -70T369 -56Q398 -56 410 -75T423 -130Q423 -168 405 -194T349 -240L343 -229Z"  />
<glyph unicode="&#x157;" horiz-adv-x="412" d="M179 300Q202 370 236 401T310 433Q328 433 344 426T373 408T393 381T401 348Q401 321 387 306T350 290Q327 290 311 304T295 339Q295 354 300 362T312 377T324 389T330 402Q330 419 306 419Q280 419 257 402T216 355T189 282T179 191V61Q179 34 187 23T219 12H251V0H13V12H48Q71 12 79 23T88 61V364Q88 387 76 397T41 407H10V419H48Q79 419 111 421T179 430V300ZM104 -229Q136 -213 151 -193T167 -153Q167 -142 157 -142Q152 -142 148 -144T131 -146Q113 -146 100 -134T87 -105Q87 -84 100 -70T130 -56Q159 -56 171 -75T184 -130Q184 -168 166 -194T110 -240L104 -229Z"  />
<glyph unicode="&#x158;" horiz-adv-x="693" d="M12 12H65Q115 12 115 69V604Q115 662 65 662H12V674H328Q381 674 428 663T510 631T566 578T587 506Q587 470 568 442T517 392T444 358T359 338Q409 327 445 308T507 259T545 184T564 79Q567 24 604 24Q625 24 640 61T656 164V218H668V179Q668 91 648 43T572 -6Q510 -6 482 35T449 145Q446 197 435 233T400 291T341 324T254 334H215V69Q215 12 265 12H317V0H12V12ZM265 662Q215 662 215 604V347H295Q379 347 425 387T472 507Q472 585 427 623T304 662H265ZM348 763H272L169 927H181L311 821L439 927H451L348 763Z"  />
<glyph unicode="&#x159;" horiz-adv-x="412" d="M179 300Q202 370 236 401T310 433Q328 433 344 426T373 408T393 381T401 348Q401 321 387 306T350 290Q327 290 311 304T295 339Q295 354 300 362T312 377T324 389T330 402Q330 419 306 419Q280 419 257 402T216 355T189 282T179 191V61Q179 34 187 23T219 12H251V0H13V12H48Q71 12 79 23T88 61V364Q88 387 76 397T41 407H10V419H48Q79 419 111 421T179 430V300ZM254 519H178L75 683H87L217 577L345 683H357L254 519Z"  />
<glyph unicode="&#x15A;" horiz-adv-x="569" d="M325 -17Q264 -17 215 9T125 95Q105 69 93 44T71 -14H60V295H71Q98 139 161 68T325 -4Q391 -4 433 27T475 116Q475 151 460 177T417 224T352 262T272 295Q230 311 191 329T123 371T77 427T59 504Q59 541 73 574T113 631T172 669T245 683Q296 683 340 659T420 588Q459 630 474 677H485V416H474Q467 469 448 515T398 595T329 650T245 670Q218 670 193 661T149 637T117 600T105 555Q105 527 119 506T158 467T219 434T297 403Q347 385 388 365T458 319T504 256T520 169Q520 126 506 92T465 33T403 -4T325 -17ZM219 749H207L271 859Q294 898 308 913T343 929Q357 929 366 920T375 896Q375 882 366 871T336 842L219 749Z"  />
<glyph unicode="&#x15B;" horiz-adv-x="395" d="M229 -6Q195 -6 160 6T95 53Q81 41 71 25T55 -6H44V179H55Q73 94 115 50T229 6Q268 6 294 23T321 79Q321 97 312 109T285 132T244 150T192 167Q158 177 131 189T84 218T55 259T45 314Q45 339 55 361T82 399T123 424T175 433Q210 433 240 416T291 375Q307 387 315 400T327 428H338V260H327Q322 294 308 323T274 374T229 408T175 420Q139 420 111 402T83 347Q83 315 115 298T203 264Q239 252 268 240T319 210T351 169T363 115Q363 58 325 26T229 -6ZM149 505H137L201 615Q224 654 238 669T273 685Q287 685 296 676T305 652Q305 638 296 627T266 598L149 505Z"  />
<glyph unicode="&#x15C;" horiz-adv-x="569" d="M325 -17Q264 -17 215 9T125 95Q105 69 93 44T71 -14H60V295H71Q98 139 161 68T325 -4Q391 -4 433 27T475 116Q475 151 460 177T417 224T352 262T272 295Q230 311 191 329T123 371T77 427T59 504Q59 541 73 574T113 631T172 669T245 683Q296 683 340 659T420 588Q459 630 474 677H485V416H474Q467 469 448 515T398 595T329 650T245 670Q218 670 193 661T149 637T117 600T105 555Q105 527 119 506T158 467T219 434T297 403Q347 385 388 365T458 319T504 256T520 169Q520 126 506 92T465 33T403 -4T325 -17ZM224 912H299L402 748H390L260 853L132 748H120L224 912Z"  />
<glyph unicode="&#x15D;" horiz-adv-x="395" d="M229 -6Q195 -6 160 6T95 53Q81 41 71 25T55 -6H44V179H55Q73 94 115 50T229 6Q268 6 294 23T321 79Q321 97 312 109T285 132T244 150T192 167Q158 177 131 189T84 218T55 259T45 314Q45 339 55 361T82 399T123 424T175 433Q210 433 240 416T291 375Q307 387 315 400T327 428H338V260H327Q322 294 308 323T274 374T229 408T175 420Q139 420 111 402T83 347Q83 315 115 298T203 264Q239 252 268 240T319 210T351 169T363 115Q363 58 325 26T229 -6ZM155 668H230L333 504H321L191 609L63 504H51L155 668Z"  />
<glyph unicode="&#x15E;" horiz-adv-x="569" d="M308 -17Q252 -13 207 13T125 95Q105 69 93 44T71 -14H60V295H71Q98 139 161 68T325 -4Q391 -4 433 27T475 116Q475 151 460 177T417 224T352 262T272 295Q230 311 191 329T123 371T77 427T59 504Q59 541 73 574T113 631T172 669T245 683Q296 683 340 659T420 588Q459 630 474 677H485V416H474Q467 469 448 515T398 595T329 650T245 670Q218 670 193 661T149 637T117 600T105 555Q105 527 119 506T158 467T219 434T297 403Q347 385 388 365T458 319T504 256T520 169Q520 126 506 92T465 33T403 -4T325 -17H324L301 -47Q338 -55 359 -75T381 -120Q381 -142 366 -158T327 -186T270 -202T202 -208V-196Q226 -195 247 -192T283 -181T307 -163T316 -133Q316 -93 251 -90L308 -17Z"  />
<glyph unicode="&#x15F;" horiz-adv-x="395" d="M215 -6Q184 -4 153 9T95 53Q81 41 71 25T55 -6H44V179H55Q73 94 115 50T229 6Q268 6 294 23T321 79Q321 97 312 109T285 132T244 150T192 167Q158 177 131 189T84 218T55 259T45 314Q45 339 55 361T82 399T123 424T175 433Q210 433 240 416T291 375Q307 387 315 400T327 428H338V260H327Q322 294 308 323T274 374T229 408T175 420Q139 420 111 402T83 347Q83 315 115 298T203 264Q239 252 268 240T319 210T351 169T363 115Q363 58 326 27T232 -6L204 -42Q241 -50 263 -70T285 -115Q285 -137 270 -153T230 -181T173 -197T105 -203V-191Q129 -190 150 -187T186 -176T210 -158T219 -128Q219 -88 154 -85L215 -6Z"  />
<glyph unicode="&#x160;" horiz-adv-x="569" d="M325 -17Q264 -17 215 9T125 95Q105 69 93 44T71 -14H60V295H71Q98 139 161 68T325 -4Q391 -4 433 27T475 116Q475 151 460 177T417 224T352 262T272 295Q230 311 191 329T123 371T77 427T59 504Q59 541 73 574T113 631T172 669T245 683Q296 683 340 659T420 588Q459 630 474 677H485V416H474Q467 469 448 515T398 595T329 650T245 670Q218 670 193 661T149 637T117 600T105 555Q105 527 119 506T158 467T219 434T297 403Q347 385 388 365T458 319T504 256T520 169Q520 126 506 92T465 33T403 -4T325 -17ZM299 763H223L120 927H132L262 821L390 927H402L299 763Z"  />
<glyph unicode="&#x161;" horiz-adv-x="395" d="M229 -6Q195 -6 160 6T95 53Q81 41 71 25T55 -6H44V179H55Q73 94 115 50T229 6Q268 6 294 23T321 79Q321 97 312 109T285 132T244 150T192 167Q158 177 131 189T84 218T55 259T45 314Q45 339 55 361T82 399T123 424T175 433Q210 433 240 416T291 375Q307 387 315 400T327 428H338V260H327Q322 294 308 323T274 374T229 408T175 420Q139 420 111 402T83 347Q83 315 115 298T203 264Q239 252 268 240T319 210T351 169T363 115Q363 58 325 26T229 -6ZM230 519H154L51 683H63L193 577L321 683H333L230 519Z"  />
<glyph unicode="&#x162;" horiz-adv-x="650" d="M323 0H142V12H227Q276 12 276 69V630Q276 646 266 654T228 662Q180 662 147 643T92 590T56 514T36 421H24V674H625V421H614Q606 474 593 518T558 594T504 644T425 662Q398 662 387 656T376 630V69Q376 12 427 12H496V0H339L307 -42Q344 -50 365 -70T387 -115Q387 -137 372 -153T333 -181T276 -197T208 -203V-191Q232 -190 253 -187T289 -176T313 -158T322 -128Q322 -88 257 -85L323 0Z"  />
<glyph unicode="&#x163;" horiz-adv-x="374" d="M206 -6Q152 -2 123 27T93 111V398H5V409Q73 426 117 478T172 615H184V419H323V398H184V89Q184 57 198 35T245 13Q294 13 319 66T344 226H356Q356 110 326 53T222 -6L194 -42Q232 -50 253 -70T275 -115Q275 -137 260 -153T220 -181T163 -197T95 -203V-191Q119 -190 140 -187T176 -176T200 -158T209 -128Q209 -88 145 -85L206 -6Z"  />
<glyph unicode="&#x164;" horiz-adv-x="650" d="M614 421Q606 474 593 518T558 594T504 644T425 662Q398 662 387 656T376 630V69Q376 12 427 12H496V0H142V12H227Q276 12 276 69V630Q276 646 266 654T228 662Q180 662 147 643T92 590T56 514T36 421H24V674H625V421H614ZM365 763H289L186 927H198L328 821L456 927H468L365 763Z"  />
<glyph unicode="&#x165;" horiz-adv-x="374" d="M184 615V419H323V398H184V89Q184 57 198 35T245 13Q294 13 319 66T344 226H356Q356 108 326 51T219 -6Q159 -6 126 24T93 111V398H5V409Q73 426 117 478T172 615H184ZM258 470H247L260 589Q265 628 276 646T309 664Q323 664 331 655T340 631Q340 622 335 609T316 570L258 470Z"  />
<glyph unicode="&#x166;" horiz-adv-x="650" d="M614 421Q606 474 593 518T558 594T504 644T425 662Q398 662 387 656T376 630V344H511V330H376V69Q376 12 427 12H496V0H142V12H227Q276 12 276 69V330H142V344H276V630Q276 646 266 654T228 662Q180 662 147 643T92 590T56 514T36 421H24V674H625V421H614Z"  />
<glyph unicode="&#x167;" horiz-adv-x="374" d="M184 615V419H323V398H184V271H307V256H184V89Q184 57 198 35T245 13Q294 13 319 66T344 226H356Q356 108 326 51T219 -6Q159 -6 126 24T93 111V256H15V271H93V398H5V409Q73 426 117 478T172 615H184Z"  />
<glyph unicode="&#x168;" horiz-adv-x="728" d="M735 662Q613 657 613 507V253Q613 193 596 143T547 56T469 -1T363 -22Q263 -22 188 38Q115 98 115 236V604Q115 662 65 662H12V674H317V662H263Q215 662 215 600V215Q215 2 387 2Q438 2 477 21T544 74T586 154T601 253V483Q601 582 563 622Q525 662 472 662H447V674H735V662ZM532 880Q523 764 450 764Q435 764 418 769T381 785Q371 791 360 797T337 810T315 820T295 824Q275 824 262 809T245 764H232Q239 881 316 881Q333 881 350 875T386 857Q409 843 430 832T470 821Q487 821 502 836T520 880H532Z"  />
<glyph unicode="&#x169;" horiz-adv-x="544" d="M545 12V0H507Q475 0 442 -2T376 -10V130Q354 60 318 27T220 -6Q181 -6 154 6T110 41T86 95T78 164V363Q78 386 67 396T30 407H-1V419H37Q69 419 102 422T168 430V139Q168 79 183 44T237 9Q273 9 299 30T343 83T368 156T376 234V363Q376 386 366 396T329 407H297V419H335Q367 419 400 422T467 430V57Q467 34 477 23T514 12H545ZM404 636Q395 520 322 520Q307 520 290 525T253 541Q243 547 232 553T209 566T187 576T167 580Q147 580 134 565T117 520H104Q111 637 188 637Q205 637 222 631T258 613Q281 599 302 588T342 577Q359 577 374 592T392 636H404Z"  />
<glyph unicode="&#x16A;" horiz-adv-x="728" d="M735 662Q613 657 613 507V253Q613 193 596 143T547 56T469 -1T363 -22Q263 -22 188 38Q115 98 115 236V604Q115 662 65 662H12V674H317V662H263Q215 662 215 600V215Q215 2 387 2Q438 2 477 21T544 74T586 154T601 253V483Q601 582 563 622Q525 662 472 662H447V674H735V662ZM232 819H531V785H232V819Z"  />
<glyph unicode="&#x16B;" horiz-adv-x="544" d="M545 12V0H507Q475 0 442 -2T376 -10V130Q354 60 318 27T220 -6Q181 -6 154 6T110 41T86 95T78 164V363Q78 386 67 396T30 407H-1V419H37Q69 419 102 422T168 430V139Q168 79 183 44T237 9Q273 9 299 30T343 83T368 156T376 234V363Q376 386 366 396T329 407H297V419H335Q367 419 400 422T467 430V57Q467 34 477 23T514 12H545ZM104 575H403V541H104V575Z"  />
<glyph unicode="&#x16C;" horiz-adv-x="728" d="M735 662Q613 657 613 507V253Q613 193 596 143T547 56T469 -1T363 -22Q263 -22 188 38Q115 98 115 236V604Q115 662 65 662H12V674H317V662H263Q215 662 215 600V215Q215 2 387 2Q438 2 477 21T544 74T586 154T601 253V483Q601 582 563 622Q525 662 472 662H447V674H735V662ZM263 914Q275 876 306 856T382 835Q426 835 457 855T502 914H515Q508 847 473 806T382 765Q326 765 292 806T250 914H263Z"  />
<glyph unicode="&#x16D;" horiz-adv-x="544" d="M545 12V0H507Q475 0 442 -2T376 -10V130Q354 60 318 27T220 -6Q181 -6 154 6T110 41T86 95T78 164V363Q78 386 67 396T30 407H-1V419H37Q69 419 102 422T168 430V139Q168 79 183 44T237 9Q273 9 299 30T343 83T368 156T376 234V363Q376 386 366 396T329 407H297V419H335Q367 419 400 422T467 430V57Q467 34 477 23T514 12H545ZM135 669Q147 631 178 611T254 590Q298 590 329 610T374 669H387Q380 602 345 561T254 520Q198 520 164 561T122 669H135Z"  />
<glyph unicode="&#x16E;" horiz-adv-x="728" d="M735 662Q613 657 613 507V253Q613 193 596 143T547 56T469 -1T363 -22Q263 -22 188 38Q115 98 115 236V604Q115 662 65 662H12V674H317V662H263Q215 662 215 600V215Q215 2 387 2Q438 2 477 21T544 74T586 154T601 253V483Q601 582 563 622Q525 662 472 662H447V674H735V662ZM289 840Q289 859 296 876T315 905T345 925T381 932Q400 932 416 925T445 906T465 876T473 840Q473 821 466 805T446 776T417 756T381 749Q362 749 345 756T316 775T296 804T289 840ZM311 840Q311 811 331 791T381 771Q410 771 430 791T451 840Q451 869 431 889T381 910Q352 910 332 890T311 840Z"  />
<glyph unicode="&#x16F;" horiz-adv-x="544" d="M545 12V0H507Q475 0 442 -2T376 -10V130Q354 60 318 27T220 -6Q181 -6 154 6T110 41T86 95T78 164V363Q78 386 67 396T30 407H-1V419H37Q69 419 102 422T168 430V139Q168 79 183 44T237 9Q273 9 299 30T343 83T368 156T376 234V363Q376 386 366 396T329 407H297V419H335Q367 419 400 422T467 430V57Q467 34 477 23T514 12H545ZM161 596Q161 615 168 632T187 661T217 681T253 688Q272 688 288 681T317 662T337 632T345 596Q345 577 338 561T318 532T289 512T253 505Q234 505 217 512T188 531T168 560T161 596ZM183 596Q183 567 203 547T253 527Q282 527 302 547T323 596Q323 625 303 645T253 666Q224 666 204 646T183 596Z"  />
<glyph unicode="&#x170;" horiz-adv-x="728" d="M735 662Q613 657 613 507V253Q613 193 596 143T547 56T469 -1T363 -22Q263 -22 188 38Q115 98 115 236V604Q115 662 65 662H12V674H317V662H263Q215 662 215 600V215Q215 2 387 2Q438 2 477 21T544 74T586 154T601 253V483Q601 582 563 622Q525 662 472 662H447V674H735V662ZM429 749H415L478 873Q492 902 505 917T535 932Q551 932 561 922T571 896Q571 885 562 873T536 844L429 749ZM292 749H280L342 873Q357 902 370 917T400 932Q415 932 425 922T435 896Q435 875 400 844L292 749Z"  />
<glyph unicode="&#x171;" horiz-adv-x="544" d="M545 12V0H507Q475 0 442 -2T376 -10V130Q354 60 318 27T220 -6Q181 -6 154 6T110 41T86 95T78 164V363Q78 386 67 396T30 407H-1V419H37Q69 419 102 422T168 430V139Q168 79 183 44T237 9Q273 9 299 30T343 83T368 156T376 234V363Q376 386 366 396T329 407H297V419H335Q367 419 400 422T467 430V57Q467 34 477 23T514 12H545ZM301 505H287L350 629Q364 658 377 673T407 688Q423 688 433 678T443 652Q443 641 434 629T408 600L301 505ZM164 505H152L214 629Q229 658 242 673T272 688Q287 688 297 678T307 652Q307 631 272 600L164 505Z"  />
<glyph unicode="&#x172;" horiz-adv-x="728" d="M735 662Q613 657 613 507V253Q613 164 577 98T472 0H473Q459 -11 447 -20T424 -40Q414 -49 407 -58T395 -81T388 -111T386 -154Q386 -185 399 -201T435 -218Q452 -218 464 -209T493 -172L504 -178Q486 -210 464 -225T403 -240Q355 -240 327 -218T299 -154Q299 -124 322 -102T384 -51Q398 -40 410 -31T434 -14Q399 -22 363 -22Q263 -22 188 38Q115 98 115 236V604Q115 662 65 662H12V674H317V662H263Q215 662 215 600V215Q215 2 387 2Q438 2 477 21T544 74T586 154T601 253V483Q601 582 563 622Q525 662 472 662H447V674H735V662Z"  />
<glyph unicode="&#x173;" horiz-adv-x="544" d="M545 12V0H507H476Q462 -11 451 -20T428 -40Q418 -49 411 -58T399 -81T392 -111T390 -154Q390 -185 404 -201T439 -218Q457 -218 469 -209T498 -172L508 -178Q490 -210 468 -225T407 -240Q359 -240 331 -218T303 -154Q303 -124 326 -102T388 -51Q408 -36 424 -24T455 -1Q415 -4 376 -10V130Q354 60 318 27T220 -6Q181 -6 154 6T110 41T86 95T78 164V363Q78 386 67 396T30 407H-1V419H37Q69 419 102 422T168 430V139Q168 79 183 44T237 9Q273 9 299 30T343 83T368 156T376 234V363Q376 386 366 396T329 407H297V419H335Q367 419 400 422T467 430V57Q467 34 477 23T514 12H545Z"  />
<glyph unicode="&#x174;" horiz-adv-x="1009" d="M199 628Q199 624 200 620T202 611L346 121L488 533L470 594Q459 631 446 646T408 662H352V674H671V662H606Q562 662 562 628Q562 624 562 620T564 611L708 122L828 478Q837 506 841 528T845 574Q845 612 822 637T752 662H736V674H1006V662H993Q968 662 946 647T905 608T871 552T844 487L672 -21H648L494 513L310 -21H286L107 603Q99 631 82 646T41 662H2V674H291V662H256Q199 662 199 628ZM473 912H548L651 748H639L509 853L381 748H369L473 912Z"  />
<glyph unicode="&#x175;" horiz-adv-x="706" d="M422 388Q422 378 426 367L510 97L594 310Q607 343 607 368Q607 385 595 396T559 407H543V419H710V407H706Q645 407 612 323L482 -10H450L359 283L240 -10H209L92 320Q84 342 78 358T63 385T45 401T18 407H-5V419H216V407H192Q165 407 165 391Q165 380 169 369L267 91L353 302L329 380Q324 394 316 400T288 407H260V419H494V407H454Q422 407 422 388ZM334 668H409L512 504H500L370 609L242 504H230L334 668Z"  />
<glyph unicode="&#x176;" horiz-adv-x="723" d="M210 638Q210 625 219 610L402 273L534 522Q544 541 548 560T552 595Q552 625 530 643T470 662H418V674H721V662H708Q684 662 664 655T625 631T587 586T545 517L406 254V69Q406 12 457 12H525V0H171V12H256Q306 12 306 69V241L96 625Q85 645 71 653T34 662H2V674H327V662H244Q227 662 219 656T210 638ZM331 912H406L509 748H497L367 853L239 748H227L331 912Z"  />
<glyph unicode="&#x177;" horiz-adv-x="542" d="M547 419V407H531Q489 407 467 383T427 319L249 -111Q221 -178 188 -209T108 -240Q63 -240 36 -219T9 -163Q9 -138 23 -123T61 -108Q83 -108 96 -122T109 -157Q109 -168 106 -176T98 -191T91 -203T87 -214Q87 -228 109 -228Q151 -228 181 -199T235 -112L262 -46L105 333Q91 367 77 387T28 407H-5V419H266V407H221Q187 407 187 378Q187 372 190 366L312 72L399 283Q417 326 417 359Q417 382 402 394T358 407H327V419H547ZM259 668H334L437 504H425L295 609L167 504H155L259 668Z"  />
<glyph unicode="&#x178;" horiz-adv-x="723" d="M210 638Q210 625 219 610L402 273L534 522Q544 541 548 560T552 595Q552 625 530 643T470 662H418V674H721V662H708Q684 662 664 655T625 631T587 586T545 517L406 254V69Q406 12 457 12H525V0H171V12H256Q306 12 306 69V241L96 625Q85 645 71 653T34 662H2V674H327V662H244Q227 662 219 656T210 638ZM221 815Q221 837 236 852T272 867Q294 867 309 852T324 815Q324 794 309 779T272 764Q251 764 236 779T221 815ZM413 815Q413 837 428 852T464 867Q485 867 500 852T515 815Q515 794 500 779T464 764Q443 764 428 779T413 815Z"  />
<glyph unicode="&#x179;" horiz-adv-x="648" d="M167 12H354Q417 12 483 69Q515 98 540 144T580 257H591L585 0H37L483 662H304Q224 662 164 602Q104 543 83 435H71L76 674H611L167 12ZM282 749H270L334 859Q357 898 371 913T406 929Q420 929 429 920T438 896Q438 882 429 871T399 842L282 749Z"  />
<glyph unicode="&#x17A;" horiz-adv-x="453" d="M144 12H241Q283 12 312 22T361 53T391 102T407 170H418V0H34V8L296 407H215Q86 407 64 252H53V419H412L144 12ZM188 505H176L240 615Q263 654 277 669T312 685Q326 685 335 676T344 652Q344 638 335 627T305 598L188 505Z"  />
<glyph unicode="&#x17B;" horiz-adv-x="648" d="M167 12H354Q417 12 483 69Q515 98 540 144T580 257H591L585 0H37L483 662H304Q224 662 164 602Q104 543 83 435H71L76 674H611L167 12ZM269 825Q269 848 285 864T325 881Q348 881 364 865T381 825Q381 802 365 785T325 768Q302 768 286 785T269 825Z"  />
<glyph unicode="&#x17C;" horiz-adv-x="453" d="M144 12H241Q283 12 312 22T361 53T391 102T407 170H418V0H34V8L296 407H215Q86 407 64 252H53V419H412L144 12ZM174 580Q174 603 190 619T230 636Q253 636 269 620T286 580Q286 557 270 540T230 523Q207 523 191 540T174 580Z"  />
<glyph unicode="&#x17D;" horiz-adv-x="648" d="M167 12H354Q417 12 483 69Q515 98 540 144T580 257H591L585 0H37L483 662H304Q224 662 164 602Q104 543 83 435H71L76 674H611L167 12ZM363 763H287L184 927H196L326 821L454 927H466L363 763Z"  />
<glyph unicode="&#x17E;" horiz-adv-x="453" d="M144 12H241Q283 12 312 22T361 53T391 102T407 170H418V0H34V8L296 407H215Q86 407 64 252H53V419H412L144 12ZM268 519H192L89 683H101L231 577L359 683H371L268 519Z"  />
<glyph unicode="&#x192;" horiz-adv-x="490" d="M85 -222Q100 -222 112 -211T138 -166T165 -72T197 85L251 381H166L170 403Q195 405 210 406T231 410Q245 415 256 432T281 491Q297 537 312 568T343 618T378 645T420 653Q458 653 481 636T504 594Q504 577 495 567T471 556Q459 556 450 564T440 584Q440 595 445 600T451 614Q451 641 420 641Q392 641 379 616T357 533L335 403H422L417 381H331L281 140Q256 21 232 -52T183 -166T134 -220T85 -234Q50 -234 30 -219T9 -179Q9 -162 21 -152T47 -142Q59 -142 69 -151T79 -171Q79 -184 73 -191T67 -206Q67 -222 85 -222Z"  />
<glyph unicode="&#x218;" horiz-adv-x="569" d="M325 -17Q264 -17 215 9T125 95Q105 69 93 44T71 -14H60V295H71Q98 139 161 68T325 -4Q391 -4 433 27T475 116Q475 151 460 177T417 224T352 262T272 295Q230 311 191 329T123 371T77 427T59 504Q59 541 73 574T113 631T172 669T245 683Q296 683 340 659T420 588Q459 630 474 677H485V416H474Q467 469 448 515T398 595T329 650T245 670Q218 670 193 661T149 637T117 600T105 555Q105 527 119 506T158 467T219 434T297 403Q347 385 388 365T458 319T504 256T520 169Q520 126 506 92T465 33T403 -4T325 -17ZM288 -234Q320 -218 335 -198T351 -158Q351 -147 341 -147Q336 -147 332 -149T315 -151Q297 -151 284 -139T271 -110Q271 -89 284 -75T314 -61Q343 -61 355 -80T368 -135Q368 -173 350 -199T294 -245L288 -234Z"  />
<glyph unicode="&#x219;" horiz-adv-x="395" d="M229 -6Q195 -6 160 6T95 53Q81 41 71 25T55 -6H44V179H55Q73 94 115 50T229 6Q268 6 294 23T321 79Q321 97 312 109T285 132T244 150T192 167Q158 177 131 189T84 218T55 259T45 314Q45 339 55 361T82 399T123 424T175 433Q210 433 240 416T291 375Q307 387 315 400T327 428H338V260H327Q322 294 308 323T274 374T229 408T175 420Q139 420 111 402T83 347Q83 315 115 298T203 264Q239 252 268 240T319 210T351 169T363 115Q363 58 325 26T229 -6ZM191 -229Q223 -213 238 -193T254 -153Q254 -142 244 -142Q239 -142 235 -144T218 -146Q200 -146 187 -134T174 -105Q174 -84 187 -70T217 -56Q246 -56 258 -75T271 -130Q271 -168 253 -194T197 -240L191 -229Z"  />
<glyph unicode="&#x21A;" horiz-adv-x="650" d="M614 421Q606 474 593 518T558 594T504 644T425 662Q398 662 387 656T376 630V69Q376 12 427 12H496V0H142V12H227Q276 12 276 69V630Q276 646 266 654T228 662Q180 662 147 643T92 590T56 514T36 421H24V674H625V421H614ZM294 -229Q326 -213 341 -193T357 -153Q357 -142 347 -142Q342 -142 337 -144T321 -146Q303 -146 290 -134T276 -105Q276 -84 289 -70T320 -56Q349 -56 361 -75T374 -130Q374 -168 356 -194T300 -240L294 -229Z"  />
<glyph unicode="&#x21B;" horiz-adv-x="374" d="M184 615V419H323V398H184V89Q184 57 198 35T245 13Q294 13 319 66T344 226H356Q356 108 326 51T219 -6Q159 -6 126 24T93 111V398H5V409Q73 426 117 478T172 615H184ZM182 -229Q214 -213 229 -193T245 -153Q245 -142 235 -142Q230 -142 225 -144T209 -146Q191 -146 178 -134T164 -105Q164 -84 177 -70T208 -56Q237 -56 249 -75T261 -130Q261 -168 244 -194T188 -240L182 -229Z"  />
<glyph unicode="&#x237;" horiz-adv-x="251" d="M47 419Q78 419 110 421T179 430V-78Q179 -108 171 -137T145 -189T102 -226T41 -240Q23 -240 5 -235T-27 -219T-50 -192T-59 -156Q-59 -134 -47 -121T-11 -107Q9 -107 20 -118T31 -147Q31 -163 26 -172T14 -188T3 -198T-3 -207Q-3 -216 10 -222T41 -228Q68 -228 78 -211T88 -146V364Q88 387 75 397T41 407H9V419H47Z"  />
<glyph unicode="&#x2C6;" horiz-adv-x="316" d="M121 668H196L299 504H287L157 609L29 504H17L121 668Z"  />
<glyph unicode="&#x2C7;" horiz-adv-x="316" d="M196 519H120L17 683H29L159 577L287 683H299L196 519Z"  />
<glyph unicode="&#x2C9;" horiz-adv-x="316" d="M9 575H308V541H9V575Z"  />
<glyph unicode="&#x2D8;" horiz-adv-x="316" d="M39 669Q51 631 82 611T158 590Q202 590 233 610T278 669H291Q284 602 249 561T158 520Q102 520 68 561T26 669H39Z"  />
<glyph unicode="&#x2D9;" horiz-adv-x="316" d="M102 580Q102 603 118 619T158 636Q181 636 197 620T214 580Q214 557 198 540T158 523Q135 523 119 540T102 580Z"  />
<glyph unicode="&#x2DA;" horiz-adv-x="316" d="M66 596Q66 615 73 632T92 661T122 681T158 688Q177 688 193 681T222 662T242 632T250 596Q250 577 243 561T223 532T194 512T158 505Q139 505 122 512T93 531T73 560T66 596ZM88 596Q88 567 108 547T158 527Q187 527 207 547T228 596Q228 625 208 645T158 666Q129 666 109 646T88 596Z"  />
<glyph unicode="&#x2DB;" horiz-adv-x="316" d="M185 0Q157 -22 136 -40Q126 -49 119 -58T107 -81T100 -111T98 -154Q98 -185 112 -201T147 -218Q165 -218 177 -209T206 -172L216 -178Q198 -210 176 -225T115 -240Q67 -240 39 -218T11 -154Q11 -124 34 -102T96 -51Q117 -35 133 -23T165 0H185Z"  />
<glyph unicode="&#x2DC;" horiz-adv-x="316" d="M308 636Q299 520 226 520Q211 520 194 525T157 541Q147 547 136 553T113 566T91 576T71 580Q51 580 38 565T21 520H8Q15 637 92 637Q109 637 126 631T162 613Q185 599 206 588T246 577Q263 577 278 592T296 636H308Z"  />
<glyph unicode="&#x2DD;" horiz-adv-x="316" d="M162 505H148L211 629Q225 658 238 673T268 688Q284 688 294 678T304 652Q304 641 295 629T269 600L162 505ZM25 505H13L75 629Q90 658 103 673T133 688Q148 688 158 678T168 652Q168 631 133 600L25 505Z"  />
<glyph unicode="&#x3A9;" horiz-adv-x="667" d="M538 0H330V15Q353 43 386 80T452 162T513 258T557 367Q578 445 575 500T552 589T501 639T432 655Q392 655 351 639T273 587T205 496T153 362Q138 307 138 258T146 166T167 86T191 16L180 0H-23L-11 119L6 121Q7 96 10 81T18 58T33 47T55 44H158Q143 64 125 94T94 165T79 257T92 368Q111 440 147 497T230 595T331 657T440 679Q497 679 539 659T605 599T634 504T620 376Q606 322 578 274T515 183T445 106T378 44H481Q496 44 506 46T526 56T546 79T571 121L590 119L538 0Z"  />
<glyph unicode="&#x3BC;" horiz-adv-x="500" d="M140 430H214L136 157Q131 140 129 131T125 116T123 107T122 101Q122 93 123 82T128 60T143 42T172 34Q195 34 220 49T268 94Q283 113 292 126T308 154T321 190T338 245L392 430H466L384 148L374 116Q368 98 368 77Q368 36 395 36Q420 36 434 57T462 105H480Q474 85 468 71T456 46T441 27T422 11Q408 0 390 -6T357 -12Q328 -12 311 8T293 62Q293 67 293 77T296 99Q257 42 215 15T136 -12Q117 -12 104 -7T82 7T68 24T59 41Q51 15 47 -3T39 -39T34 -79T29 -134Q22 -215 -25 -215Q-41 -215 -50 -204T-60 -176Q-60 -170 -59 -165T-55 -151T-44 -127T-23 -86Q8 -27 33 63L140 430Z"  />
<glyph unicode="&#x3C0;" horiz-adv-x="513" d="M527 445Q513 419 501 405T478 378Q466 376 448 376T409 375Q401 354 392 322T373 254T354 183T338 122Q327 80 329 56T358 31Q373 31 386 39T417 65L425 50Q398 15 372 2T322 -11Q305 -11 293 -6T275 12T270 49T281 108Q299 175 321 245T364 377Q319 379 275 379T201 379L194 356Q172 273 147 210T100 103T61 35T38 5Q28 0 13 -5T-14 -11L-15 2Q20 34 49 82T103 184T144 289T173 380Q147 380 128 376T94 366T65 351T38 332L30 348Q42 358 58 371T94 397T141 417T201 425Q226 425 254 425T313 423Q344 422 377 422T445 421Q466 421 479 427T510 454L527 445Z"  />
<glyph unicode="&#x1E80;" horiz-adv-x="1009" d="M199 628Q199 624 200 620T202 611L346 121L488 533L470 594Q459 631 446 646T408 662H352V674H671V662H606Q562 662 562 628Q562 624 562 620T564 611L708 122L828 478Q837 506 841 528T845 574Q845 612 822 637T752 662H736V674H1006V662H993Q968 662 946 647T905 608T871 552T844 487L672 -21H648L494 513L310 -21H286L107 603Q99 631 82 646T41 662H2V674H291V662H256Q199 662 199 628ZM437 842Q416 859 407 870T397 896Q397 911 406 920T429 929Q450 929 464 914T502 859L565 749H553L437 842Z"  />
<glyph unicode="&#x1E81;" horiz-adv-x="706" d="M422 388Q422 378 426 367L510 97L594 310Q607 343 607 368Q607 385 595 396T559 407H543V419H710V407H706Q645 407 612 323L482 -10H450L359 283L240 -10H209L92 320Q84 342 78 358T63 385T45 401T18 407H-5V419H216V407H192Q165 407 165 391Q165 380 169 369L267 91L353 302L329 380Q324 394 316 400T288 407H260V419H494V407H454Q422 407 422 388ZM298 598Q277 615 268 626T258 652Q258 667 267 676T290 685Q311 685 325 670T363 615L426 505H414L298 598Z"  />
<glyph unicode="&#x1E82;" horiz-adv-x="1009" d="M199 628Q199 624 200 620T202 611L346 121L488 533L470 594Q459 631 446 646T408 662H352V674H671V662H606Q562 662 562 628Q562 624 562 620T564 611L708 122L828 478Q837 506 841 528T845 574Q845 612 822 637T752 662H736V674H1006V662H993Q968 662 946 647T905 608T871 552T844 487L672 -21H648L494 513L310 -21H286L107 603Q99 631 82 646T41 662H2V674H291V662H256Q199 662 199 628ZM468 749H456L520 859Q543 898 557 913T592 929Q606 929 615 920T624 896Q624 882 615 871T585 842L468 749Z"  />
<glyph unicode="&#x1E83;" horiz-adv-x="706" d="M422 388Q422 378 426 367L510 97L594 310Q607 343 607 368Q607 385 595 396T559 407H543V419H710V407H706Q645 407 612 323L482 -10H450L359 283L240 -10H209L92 320Q84 342 78 358T63 385T45 401T18 407H-5V419H216V407H192Q165 407 165 391Q165 380 169 369L267 91L353 302L329 380Q324 394 316 400T288 407H260V419H494V407H454Q422 407 422 388ZM329 505H317L381 615Q404 654 418 669T453 685Q467 685 476 676T485 652Q485 638 476 627T446 598L329 505Z"  />
<glyph unicode="&#x1E84;" horiz-adv-x="1009" d="M199 628Q199 624 200 620T202 611L346 121L488 533L470 594Q459 631 446 646T408 662H352V674H671V662H606Q562 662 562 628Q562 624 562 620T564 611L708 122L828 478Q837 506 841 528T845 574Q845 612 822 637T752 662H736V674H1006V662H993Q968 662 946 647T905 608T871 552T844 487L672 -21H648L494 513L310 -21H286L107 603Q99 631 82 646T41 662H2V674H291V662H256Q199 662 199 628ZM363 815Q363 837 378 852T414 867Q436 867 451 852T466 815Q466 794 451 779T414 764Q393 764 378 779T363 815ZM555 815Q555 837 570 852T606 867Q627 867 642 852T657 815Q657 794 642 779T606 764Q585 764 570 779T555 815Z"  />
<glyph unicode="&#x1E85;" horiz-adv-x="706" d="M422 388Q422 378 426 367L510 97L594 310Q607 343 607 368Q607 385 595 396T559 407H543V419H710V407H706Q645 407 612 323L482 -10H450L359 283L240 -10H209L92 320Q84 342 78 358T63 385T45 401T18 407H-5V419H216V407H192Q165 407 165 391Q165 380 169 369L267 91L353 302L329 380Q324 394 316 400T288 407H260V419H494V407H454Q422 407 422 388ZM225 571Q225 593 240 608T276 623Q298 623 313 608T328 571Q328 550 313 535T276 520Q255 520 240 535T225 571ZM417 571Q417 593 432 608T468 623Q489 623 504 608T519 571Q519 550 504 535T468 520Q447 520 432 535T417 571Z"  />
<glyph unicode="&#x1EF2;" horiz-adv-x="723" d="M210 638Q210 625 219 610L402 273L534 522Q544 541 548 560T552 595Q552 625 530 643T470 662H418V674H721V662H708Q684 662 664 655T625 631T587 586T545 517L406 254V69Q406 12 457 12H525V0H171V12H256Q306 12 306 69V241L96 625Q85 645 71 653T34 662H2V674H327V662H244Q227 662 219 656T210 638ZM294 842Q273 859 264 870T254 896Q254 911 263 920T286 929Q307 929 321 914T359 859L422 749H410L294 842Z"  />
<glyph unicode="&#x1EF3;" horiz-adv-x="542" d="M547 419V407H531Q489 407 467 383T427 319L249 -111Q221 -178 188 -209T108 -240Q63 -240 36 -219T9 -163Q9 -138 23 -123T61 -108Q83 -108 96 -122T109 -157Q109 -168 106 -176T98 -191T91 -203T87 -214Q87 -228 109 -228Q151 -228 181 -199T235 -112L262 -46L105 333Q91 367 77 387T28 407H-5V419H266V407H221Q187 407 187 378Q187 372 190 366L312 72L399 283Q417 326 417 359Q417 382 402 394T358 407H327V419H547ZM223 598Q202 615 193 626T183 652Q183 667 192 676T215 685Q236 685 250 670T288 615L351 505H339L223 598Z"  />
<glyph unicode="&#x2013;" horiz-adv-x="494" d="M5 267H489V244H5V267Z"  />
<glyph unicode="&#x2014;" horiz-adv-x="1000" d="M5 267H995V244H5V267Z"  />
<glyph unicode="&#x2018;" horiz-adv-x="185" d="M146 671Q99 645 75 609T50 533Q50 514 61 514Q69 514 77 521T104 529Q122 529 135 514T148 478Q148 457 135 443T101 429Q84 429 72 437T53 458T41 489T37 525Q37 575 61 613T140 682L146 671Z"  />
<glyph unicode="&#x2019;" horiz-adv-x="185" d="M39 439Q86 465 110 501T135 578Q135 597 124 597Q116 597 108 590T82 582Q63 582 50 597T37 633Q37 654 50 668T84 682Q100 682 112 674T132 653T144 622T148 586Q148 536 124 498T45 429L39 439Z"  />
<glyph unicode="&#x201A;" horiz-adv-x="195" d="M44 -151Q91 -125 115 -89T140 -12Q140 6 129 6Q121 6 113 -1T86 -8Q68 -8 55 7T42 43Q42 64 55 78T89 92Q105 92 117 84T137 62T149 31T153 -4Q153 -54 129 -92T50 -162L44 -151Z"  />
<glyph unicode="&#x201C;" horiz-adv-x="363" d="M146 671Q99 645 75 609T50 533Q50 514 61 514Q69 514 77 521T104 529Q122 529 135 514T148 478Q148 457 135 443T101 429Q84 429 72 437T53 458T41 489T37 525Q37 575 61 613T140 682L146 671ZM324 671Q277 645 253 609T229 533Q229 514 239 514Q247 514 255 521T282 529Q300 529 313 514T327 478Q327 457 314 443T279 429Q262 429 250 437T231 458T219 489T215 525Q215 575 239 613T318 682L324 671Z"  />
<glyph unicode="&#x201D;" horiz-adv-x="363" d="M39 439Q86 465 110 501T135 578Q135 597 124 597Q116 597 108 590T82 582Q63 582 50 597T37 633Q37 654 50 668T84 682Q100 682 112 674T132 653T144 622T148 586Q148 536 124 498T45 429L39 439ZM217 439Q264 465 288 501T313 578Q313 597 302 597Q294 597 287 590T260 582Q241 582 228 597T215 633Q215 654 228 668T263 682Q279 682 291 674T311 653T323 622T327 586Q327 488 223 429L217 439Z"  />
<glyph unicode="&#x201E;" horiz-adv-x="368" d="M217 -148Q264 -122 288 -86T313 -10Q313 9 302 9Q294 9 287 2T260 -6Q241 -6 228 9T215 45Q215 66 228 80T263 94Q279 94 291 86T311 65T323 34T327 -2Q327 -100 223 -159L217 -148ZM44 -151Q91 -125 115 -89T140 -12Q140 6 129 6Q121 6 113 -1T86 -8Q68 -8 55 7T42 43Q42 64 55 78T89 92Q105 92 117 84T137 62T149 31T153 -4Q153 -54 129 -92T50 -162L44 -151Z"  />
<glyph unicode="&#x2020;" horiz-adv-x="508" d="M262 -232H246V-170Q246 -120 243 -56T235 75T222 204T204 310Q242 349 246 414Q224 414 205 410T167 399T133 389T102 384Q79 384 64 394T49 421Q49 438 64 448T102 459Q117 459 133 455T167 444T204 434T246 429Q246 455 240 478T228 523T215 564T209 602Q209 632 223 651T254 670Q271 670 285 651T299 602Q299 584 293 564T281 523T268 479T262 429Q284 429 303 433T341 444T375 454T406 459Q429 459 444 449T459 421Q459 405 444 395T406 384Q391 384 375 388T341 399T304 409T262 414Q266 349 304 310Q294 266 287 204T274 76T265 -55T262 -170V-232Z"  />
<glyph unicode="&#x2021;" horiz-adv-x="468" d="M234 -238Q218 -238 206 -221T194 -182Q194 -169 199 -153T210 -117T221 -79T226 -42Q206 -42 189 -46T157 -55T129 -65T103 -69Q79 -69 64 -60T49 -34Q49 -17 64 -8T103 1Q115 1 128 -3T157 -12T189 -22T226 -26Q223 23 191 55Q226 116 226 217Q226 319 191 380Q223 412 226 460Q206 460 189 456T157 447T129 437T103 433Q80 433 65 442T49 468Q49 485 64 494T103 504Q115 504 128 500T157 490T189 481T226 476Q226 494 221 513T210 551T199 587T194 617Q194 639 206 655T234 672Q250 672 262 656T274 617Q274 604 269 587T258 552T247 514T242 476Q261 476 278 480T311 490T339 499T365 504Q389 504 404 495T419 468Q419 451 404 442T365 433Q353 433 340 437T311 446T279 456T242 460Q245 410 277 380Q242 319 242 217Q242 116 277 55Q245 25 242 -26Q261 -26 278 -22T311 -13T339 -3T365 1Q388 1 403 -8T419 -34Q419 -50 404 -59T365 -69Q353 -69 340 -65T311 -56T279 -46T242 -42Q242 -60 247 -79T258 -117T269 -152T274 -182Q274 -204 262 -221T234 -238Z"  />
<glyph unicode="&#x2022;" horiz-adv-x="354" d="M55 331Q55 356 64 378T90 417T129 443T177 453Q202 453 224 444T264 418T290 379T300 331Q300 305 291 283T264 244T225 218T177 208Q151 208 129 217T91 244T65 283T55 331Z"  />
<glyph unicode="&#x2026;" horiz-adv-x="1005" d="M220 39Q220 17 205 2T167 -14Q145 -14 130 1T115 39Q115 61 130 76T167 92Q189 92 204 77T220 39ZM555 39Q555 17 540 2T502 -14Q480 -14 465 1T450 39Q450 61 465 76T502 92Q524 92 539 77T555 39ZM890 39Q890 17 875 2T837 -14Q815 -14 800 1T785 39Q785 61 800 76T837 92Q859 92 874 77T890 39Z"  />
<glyph unicode="&#x2030;" horiz-adv-x="1042" d="M181 682Q215 682 241 667T286 627T314 570T324 505Q324 472 315 440T287 384T242 344T181 328Q147 328 120 343T75 383T47 440T37 505Q37 538 46 570T74 626T120 666T181 682ZM247 556Q247 669 181 669Q115 669 115 556V454Q115 339 181 339Q247 339 247 454V556ZM586 682H627L128 -34H87L586 682ZM532 324Q566 324 593 309T638 268T666 211T676 146Q676 113 667 82T639 25T593 -15T532 -31Q498 -31 472 -16T427 25T399 81T389 146Q389 179 398 211T426 268T471 308T532 324ZM598 197Q598 311 532 311Q466 311 466 197V96Q466 -20 532 -20Q598 -20 598 96V197ZM865 324Q899 324 925 309T970 268T998 211T1008 146Q1008 113 999 82T971 25T926 -15T865 -31Q831 -31 804 -16T759 25T731 81T721 146Q721 179 730 211T758 268T804 308T865 324ZM931 197Q931 311 865 311Q799 311 799 197V96Q799 -20 865 -20Q931 -20 931 96V197Z"  />
<glyph unicode="&#x2039;" horiz-adv-x="273" d="M134 217L224 -6H213L49 217L213 440H224L134 217Z"  />
<glyph unicode="&#x203A;" horiz-adv-x="273" d="M49 440H60L224 217L60 -6H49L139 217L49 440Z"  />
<glyph unicode="&#x2044;" horiz-adv-x="51" d="M255 682H295L-204 -34H-244L255 682Z"  />
<glyph unicode="&#x2082;" horiz-adv-x="333" d="M32 10Q78 64 121 105T187 181Q205 208 205 243Q205 279 186 302T132 325Q98 325 74 304T50 256Q50 243 59 243Q61 243 68 248Q78 256 92 256Q103 256 113 245T124 220Q124 206 113 194T85 182Q65 182 52 200T38 247Q38 272 48 291T74 322T113 341T159 347Q213 347 247 319T282 248Q282 210 255 184T186 130Q126 93 95 60H253Q267 60 273 70T280 107H291L280 0H32V10Z"  />
<glyph unicode="&#x2084;" horiz-adv-x="333" d="M203 349H214V120H294V88H214V38Q214 12 241 12H279V0H87V12H126Q154 12 154 38V88H26L7 108L203 349ZM154 120V270L32 120H154Z"  />
<glyph unicode="&#x20AC;" horiz-adv-x="589" d="M83 255Q81 269 80 283T79 312Q79 338 82 362H24L29 375H84Q93 430 115 480T169 569T242 630T327 653Q419 653 482 543Q503 566 516 593T534 653H545V364H534Q522 417 504 467T461 555T402 617T328 641Q292 641 267 619T222 555Q211 529 207 482T200 375H437L432 362H199V291V255H412L408 243H200Q202 183 210 133T233 59Q253 30 279 13T342 -4Q384 -4 419 14T480 63T522 137T541 228H553Q551 176 534 132T489 54T424 2T343 -17Q297 -17 255 2T178 56T119 139T85 243H5L9 255H83Z"  />
<glyph unicode="&#x2113;" horiz-adv-x="360" d="M289 84Q215 -9 124 -9Q66 -9 48 28Q38 48 39 79T56 166L80 257L11 211L4 228L87 287L119 405Q136 469 149 513T176 587T204 637T239 675Q279 712 314 712Q332 712 343 702T359 675T363 636T355 589Q343 544 321 504T270 426T208 357T140 295L113 193Q100 144 98 113T102 63T123 37T157 30Q190 30 220 49T277 97L289 84ZM150 331Q179 359 206 391T255 456T294 523T319 589Q330 631 326 658T298 686Q269 686 243 634T186 465L150 331Z"  />
<glyph unicode="&#x2122;" horiz-adv-x="905" d="M554 674L639 415L723 674H869V662H836Q813 662 806 648T798 605V383Q798 354 805 341T836 327H868V315H662V327H698Q721 327 729 340T737 383V662H732L619 315H608L495 662H490V403Q490 364 501 346T548 327H567V315H407V327H419Q454 327 466 345T478 403V603Q478 626 468 644T431 662H407V674H554ZM256 662Q234 662 234 639V383Q234 354 242 341T273 327H318V315H89V327H135Q158 327 165 340T173 383V639Q173 662 151 662H137Q123 662 117 661T102 650Q85 633 70 599T47 528H37V674H371V528H361Q353 564 338 598T306 650Q298 659 292 660T271 662H256Z"  />
<glyph unicode="&#x2126;" horiz-adv-x="667" d="M538 0H330V15Q353 43 386 80T452 162T513 258T557 367Q578 445 575 500T552 589T501 639T432 655Q392 655 351 639T273 587T205 496T153 362Q138 307 138 258T146 166T167 86T191 16L180 0H-23L-11 119L6 121Q7 96 10 81T18 58T33 47T55 44H158Q143 64 125 94T94 165T79 257T92 368Q111 440 147 497T230 595T331 657T440 679Q497 679 539 659T605 599T634 504T620 376Q606 322 578 274T515 183T445 106T378 44H481Q496 44 506 46T526 56T546 79T571 121L590 119L538 0Z"  />
<glyph unicode="&#x212E;" horiz-adv-x="942" d="M285 326Q280 326 280 322V133Q280 122 288 112Q334 64 394 37T524 9Q599 9 663 40T772 124H828Q776 63 697 27T523 -10Q443 -10 374 17T252 91T169 200T139 335Q139 407 169 470T251 580T373 654T523 681Q603 681 673 654T795 580T878 470T909 335V326H285ZM767 540Q767 552 758 563Q712 608 653 634T524 661Q455 661 395 634T289 559Q280 550 280 536V350Q280 348 281 346T285 344H763Q765 344 766 346T767 350V540Z"  />
<glyph unicode="&#x2202;" horiz-adv-x="475" d="M274 415Q308 415 341 398T388 341Q396 365 404 389T420 442Q431 480 435 520T436 599Q434 618 427 638T406 674T375 700T332 711Q297 711 263 697T199 663Q188 661 184 676T189 706Q217 723 252 734T325 746Q388 746 421 710T469 610Q475 583 475 553T472 493T464 437T452 389Q445 363 435 332T411 268T380 201T343 140Q297 74 243 33T126 -9Q52 -9 22 42T15 186Q29 236 55 275T110 343Q142 373 186 394T273 415H274ZM278 383Q211 383 150 325Q120 292 99 250T64 160Q56 133 56 107T65 61T89 28T131 16Q152 16 172 24T211 47T246 80T276 118Q292 140 305 161T329 205T350 251T372 304Q370 315 364 328T345 354T317 374T279 383H278Z"  />
<glyph unicode="&#x2206;" horiz-adv-x="572" d="M-43 0L-38 16L374 670L400 678L466 16L462 0H-43ZM352 587L7 35H405L352 587Z"  />
<glyph unicode="&#x220F;" horiz-adv-x="713" d="M686 648Q656 646 640 644T615 636T605 621T603 596V-2Q603 -21 605 -33T615 -51T639 -61T683 -66V-85H471V-66Q499 -64 515 -62T539 -53T550 -35T552 -2V614Q552 633 546 637T520 642H294Q274 642 269 638T263 617V-2Q263 -21 264 -32T272 -50T294 -60T338 -66V-85H133V-66Q160 -64 175 -61T199 -52T210 -34T212 -2V596Q212 612 210 621T200 635T175 643T129 648V668H686V648Z"  />
<glyph unicode="&#x2211;" horiz-adv-x="603" d="M543 -85H130V-68L343 286L136 651V668H544Q544 661 545 646T548 612T551 570T555 526L534 522Q529 557 522 579T507 615Q503 622 498 627T482 636T455 640T411 642H206L392 318L183 -37H435Q464 -37 482 -35T513 -21T536 13T560 78L581 72L543 -85Z"  />
<glyph unicode="&#x2212;" horiz-adv-x="667" d="M71 342H595V299H71V342Z"  />
<glyph unicode="&#x2215;" horiz-adv-x="51" d="M255 682H295L-204 -34H-244L255 682Z"  />
<glyph unicode="&#x2219;" horiz-adv-x="281" d="M193 276Q193 254 178 239T141 223Q118 223 103 238T88 276Q88 298 103 313T141 329Q162 329 177 314T193 276Z"  />
<glyph unicode="&#x221A;" horiz-adv-x="608" d="M440 -131L427 -140L222 395L142 355L133 381L259 442L428 -11H430L558 877L587 868L440 -131Z"  />
<glyph unicode="&#x221E;" horiz-adv-x="734" d="M689 278Q689 246 678 220T648 176T605 148T553 138Q509 138 472 165T386 246Q368 226 350 207T310 172T266 148T214 138Q187 138 163 148T120 177T92 221T81 275Q81 305 91 330T120 375T164 404T220 415Q246 415 269 406T312 381T352 346T389 305Q407 326 425 345T464 380T508 405T560 415Q619 415 654 377T689 279V278ZM220 175Q242 175 262 185T301 209T335 241T365 274Q350 292 334 311T299 345T259 369T213 379Q191 379 174 371T145 348T127 314T121 274Q121 232 148 204T219 175H220ZM554 379Q531 379 510 368T471 340T437 307T409 277Q432 252 451 233T487 201T520 182T556 175Q578 175 595 183T625 206T643 239T649 275Q649 326 623 352T555 379H554Z"  />
<glyph unicode="&#x222B;" horiz-adv-x="435" d="M239 437Q234 555 242 630T268 747T311 804T366 820Q381 820 396 811T412 784Q412 769 404 762T382 754Q372 754 367 759T358 770T349 781T336 786Q328 786 319 779T301 752T289 700T286 614L303 233Q309 98 301 17T274 -108T230 -165T178 -179Q156 -179 144 -168T131 -142Q130 -128 140 -119T167 -109Q176 -109 181 -114T190 -125T198 -137T211 -142Q234 -142 247 -96T257 29L239 437Z"  />
<glyph unicode="&#x2248;" horiz-adv-x="534" d="M492 230Q475 195 448 170T378 145Q350 145 328 155T273 183Q252 195 232 204T189 214Q157 214 136 194T99 145L72 165Q92 206 124 228T194 251Q228 251 252 238T296 214Q318 201 337 192T381 182Q409 182 428 199T467 251L492 230ZM492 379Q475 344 448 319T378 294Q351 294 328 304T273 332Q252 344 232 353T188 363Q157 363 137 343T99 294L72 314Q92 355 124 377T194 400Q227 400 252 386T296 362Q319 349 337 340T381 331Q408 331 427 348T467 400L492 379Z"  />
<glyph unicode="&#x2260;" horiz-adv-x="555" d="M366 377H509V338H350L288 205H509V166H272L224 61L193 75L235 166H99V205H252L312 338H99V377H328L376 481L407 467L366 377Z"  />
<glyph unicode="&#x2264;" horiz-adv-x="574" d="M123 306V345L526 551V504L166 327V325L526 146V99L123 306ZM118 21V61H528V21H118Z"  />
<glyph unicode="&#x2265;" horiz-adv-x="574" d="M526 345V306L124 99V146L483 324V326L124 504V551L526 345ZM119 21V61H528V21H119Z"  />
<glyph unicode="&#x25CA;" horiz-adv-x="614" d="M383 -64H339L154 324L340 715H383L568 324L383 -64ZM363 669H360L198 326L361 -20H363L524 324L363 669Z"  />
<glyph unicode="&#xF6C3;" horiz-adv-x="316" d="M121 -229Q153 -213 168 -193T184 -153Q184 -142 174 -142Q169 -142 165 -144T148 -146Q130 -146 117 -134T104 -105Q104 -84 117 -70T147 -56Q176 -56 188 -75T201 -130Q201 -168 183 -194T127 -240L121 -229Z"  />
<glyph unicode="&#xFB00;" horiz-adv-x="619" d="M364 12Q387 12 396 23T405 61V398H205V61Q205 34 213 23T245 12H277V0H38V12H73Q96 12 105 23T114 61V398H17V419H114V438Q114 553 167 614T318 675Q357 675 392 662T447 620Q498 685 594 685Q617 685 639 681T678 667T706 643T717 610Q717 585 702 572T668 558Q644 558 631 573T618 605Q618 617 622 625T631 639T640 648T644 655Q644 662 634 667T598 672Q554 672 525 644T496 545V419H587V398H496V61Q496 34 504 23T536 12H568V0H329V12H364ZM405 419V468Q405 479 405 489T407 509Q387 512 377 526T366 557Q366 572 372 580T386 595T400 605T407 617Q407 634 387 648T322 662Q271 662 238 629T205 516V419H405Z"  />
<glyph unicode="&#xFB01;" horiz-adv-x="580" d="M496 61Q496 34 504 23T536 12H568V0H329V12H364Q387 12 396 23T405 61V354Q405 377 392 387T357 398H205V61Q205 34 213 23T245 12H277V0H38V12H73Q96 12 105 23T114 61V398H17V419H114V453Q114 565 173 625T337 685Q367 685 395 679T445 661T480 630T494 586Q494 561 480 547T445 533Q422 533 409 548T395 581Q395 593 399 601T408 615T417 626T421 638Q421 649 403 660T341 672Q311 672 286 665T243 640T215 597T205 531V419H364Q395 419 427 421T496 430V61Z"  />
<glyph unicode="&#xFB02;" horiz-adv-x="580" d="M496 61Q496 34 504 23T536 12H568V0H329V12H364Q387 12 396 23T405 61V631Q405 648 385 660T330 672Q275 672 240 640T205 531V419H296V398H205V61Q205 34 213 23T245 12H277V0H38V12H73Q96 12 105 23T114 61V398H17V419H114V453Q114 565 170 625T326 685Q362 685 393 674Q417 675 442 677T496 684V61Z"  />
<glyph unicode="&#xFB03;" horiz-adv-x="871" d="M787 61Q787 34 795 23T827 12H859V0H620V12H655Q678 12 687 23T696 61V354Q696 377 683 387T648 398H496V61Q496 34 504 23T536 12H568V0H329V12H364Q387 12 396 23T405 61V398H205V61Q205 34 213 23T245 12H277V0H38V12H73Q96 12 105 23T114 61V398H17V419H114V438Q114 553 167 614T318 675Q360 675 397 660T453 612Q482 647 526 666T628 685Q658 685 686 679T736 661T771 630T785 586Q785 561 771 547T736 533Q713 533 700 548T686 581Q686 593 690 601T699 615T708 626T712 638Q712 649 694 660T632 672Q602 672 577 665T534 640T506 597T496 531V419H655Q686 419 718 421T787 430V61ZM205 419H405V453Q405 468 406 482T409 509Q388 511 377 525T366 557Q366 572 372 580T386 595T400 605T407 617Q407 634 387 648T322 662Q271 662 238 629T205 516V419Z"  />
<glyph unicode="&#xFB04;" horiz-adv-x="871" d="M787 61Q787 34 795 23T827 12H859V0H620V12H655Q678 12 687 23T696 61V631Q696 648 676 660T621 672Q566 672 531 640T496 531V419H587V398H496V61Q496 34 504 23T536 12H568V0H329V12H364Q387 12 396 23T405 61V398H205V61Q205 34 213 23T245 12H277V0H38V12H73Q96 12 105 23T114 61V398H17V419H114V438Q114 553 167 614T318 675Q360 675 396 660T452 613Q507 685 617 685Q653 685 684 674Q708 675 733 677T787 684V61ZM205 419H405V453Q405 468 406 482T409 509Q388 512 377 526T366 557Q366 572 372 580T386 595T400 605T407 617Q407 634 387 648T322 662Q271 662 238 629T205 516V419Z"  />

</font>
</defs>
</svg>
